  0
SECTION
  2
HEADER
  9
$ACADVER
  1
AC1014
  9
$ACADMAINTVER
 70
     9
  9
$DWGCODEPAGE
  3
ANSI_1252
  9
$INSBASE
 10
0.0
 20
0.0
 30
0.0
  9
$EXTMIN
 10
1.000000000000000E+20
 20
1.000000000000000E+20
 30
1.000000000000000E+20
  9
$EXTMAX
 10
-1.000000000000000E+20
 20
-1.000000000000000E+20
 30
-1.000000000000000E+20
  9
$LIMMIN
 10
0.0
 20
0.0
  9
$LIMMAX
 10
12.0
 20
9.0
  9
$ORTHOMODE
 70
     0
  9
$REGENMODE
 70
     1
  9
$FILLMODE
 70
     1
  9
$QTEXTMODE
 70
     0
  9
$MIRRTEXT
 70
     1
  9
$DRAGMODE
 70
     2
  9
$LTSCALE
 40
1.0
  9
$OSMODE
 70
    37
  9
$ATTMODE
 70
     1
  9
$TEXTSIZE
 40
0.2
  9
$TRACEWID
 40
0.05
  9
$TEXTSTYLE
  7
STANDARD
  9
$CLAYER
  8
0
  9
$CELTYPE
  6
BYLAYER
  9
$CECOLOR
 62
   256
  9
$CELTSCALE
 40
1.0
  9
$DELOBJ
 70
     1
  9
$DISPSILH
 70
     0
  9
$DIMSCALE
 40
1.0
  9
$DIMASZ
 40
0.18
  9
$DIMEXO
 40
0.0625
  9
$DIMDLI
 40
0.38
  9
$DIMRND
 40
0.0
  9
$DIMDLE
 40
0.0
  9
$DIMEXE
 40
0.18
  9
$DIMTP
 40
0.0
  9
$DIMTM
 40
0.0
  9
$DIMTXT
 40
0.18
  9
$DIMCEN
 40
0.09
  9
$DIMTSZ
 40
0.0
  9
$DIMTOL
 70
     0
  9
$DIMLIM
 70
     0
  9
$DIMTIH
 70
     1
  9
$DIMTOH
 70
     1
  9
$DIMSE1
 70
     0
  9
$DIMSE2
 70
     0
  9
$DIMTAD
 70
     0
  9
$DIMZIN
 70
     0
  9
$DIMBLK
  1

  9
$DIMASO
 70
     1
  9
$DIMSHO
 70
     1
  9
$DIMPOST
  1

  9
$DIMAPOST
  1

  9
$DIMALT
 70
     0
  9
$DIMALTD
 70
     2
  9
$DIMALTF
 40
25.4
  9
$DIMLFAC
 40
1.0
  9
$DIMTOFL
 70
     0
  9
$DIMTVP
 40
0.0
  9
$DIMTIX
 70
     0
  9
$DIMSOXD
 70
     0
  9
$DIMSAH
 70
     0
  9
$DIMBLK1
  1

  9
$DIMBLK2
  1

  9
$DIMSTYLE
  2
STANDARD
  9
$DIMCLRD
 70
     0
  9
$DIMCLRE
 70
     0
  9
$DIMCLRT
 70
     0
  9
$DIMTFAC
 40
1.0
  9
$DIMGAP
 40
0.09
  9
$DIMJUST
 70
     0
  9
$DIMSD1
 70
     0
  9
$DIMSD2
 70
     0
  9
$DIMTOLJ
 70
     1
  9
$DIMTZIN
 70
     0
  9
$DIMALTZ
 70
     0
  9
$DIMALTTZ
 70
     0
  9
$DIMFIT
 70
     3
  9
$DIMUPT
 70
     0
  9
$DIMUNIT
 70
     2
  9
$DIMDEC
 70
     4
  9
$DIMTDEC
 70
     4
  9
$DIMALTU
 70
     2
  9
$DIMALTTD
 70
     2
  9
$DIMTXSTY
  7
STANDARD
  9
$DIMAUNIT
 70
     0
  9
$LUNITS
 70
     2
  9
$LUPREC
 70
     4
  9
$SKETCHINC
 40
0.1
  9
$FILLETRAD
 40
0.5
  9
$AUNITS
 70
     0
  9
$AUPREC
 70
     0
  9
$MENU
  1
.
  9
$ELEVATION
 40
0.0
  9
$PELEVATION
 40
0.0
  9
$THICKNESS
 40
0.0
  9
$LIMCHECK
 70
     0
  9
$CHAMFERA
 40
0.0
  9
$CHAMFERB
 40
0.0
  9
$CHAMFERC
 40
0.0
  9
$CHAMFERD
 40
0.0
  9
$SKPOLY
 70
     0
  9
$TDCREATE
 40
2456956.084348137
  9
$TDUPDATE
 40
2456956.084348542
  9
$TDINDWG
 40
0.0000000116
  9
$TDUSRTIMER
 40
0.0000000116
  9
$USRTIMER
 70
     1
  9
$ANGBASE
 50
0.0
  9
$ANGDIR
 70
     0
  9
$PDMODE
 70
     0
  9
$PDSIZE
 40
0.0
  9
$PLINEWID
 40
0.0
  9
$COORDS
 70
     1
  9
$SPLFRAME
 70
     0
  9
$SPLINETYPE
 70
     6
  9
$SPLINESEGS
 70
     8
  9
$ATTDIA
 70
     0
  9
$ATTREQ
 70
     1
  9
$HANDLING
 70
     1
  9
$HANDSEED
  5
3DF
  9
$SURFTAB1
 70
     6
  9
$SURFTAB2
 70
     6
  9
$SURFTYPE
 70
     6
  9
$SURFU
 70
     6
  9
$SURFV
 70
     6
  9
$UCSNAME
  2

  9
$UCSORG
 10
0.0
 20
0.0
 30
0.0
  9
$UCSXDIR
 10
1.0
 20
0.0
 30
0.0
  9
$UCSYDIR
 10
0.0
 20
1.0
 30
0.0
  9
$PUCSNAME
  2

  9
$PUCSORG
 10
0.0
 20
0.0
 30
0.0
  9
$PUCSXDIR
 10
1.0
 20
0.0
 30
0.0
  9
$PUCSYDIR
 10
0.0
 20
1.0
 30
0.0
  9
$USERI1
 70
     0
  9
$USERI2
 70
     0
  9
$USERI3
 70
     0
  9
$USERI4
 70
     0
  9
$USERI5
 70
     0
  9
$USERR1
 40
0.0
  9
$USERR2
 40
0.0
  9
$USERR3
 40
0.0
  9
$USERR4
 40
0.0
  9
$USERR5
 40
0.0
  9
$WORLDVIEW
 70
     1
  9
$SHADEDGE
 70
     3
  9
$SHADEDIF
 70
    70
  9
$TILEMODE
 70
     1
  9
$MAXACTVP
 70
    64
  9
$PINSBASE
 10
0.0
 20
0.0
 30
0.0
  9
$PLIMCHECK
 70
     0
  9
$PEXTMIN
 10
1.000000000000000E+20
 20
1.000000000000000E+20
 30
1.000000000000000E+20
  9
$PEXTMAX
 10
-1.000000000000000E+20
 20
-1.000000000000000E+20
 30
-1.000000000000000E+20
  9
$PLIMMIN
 10
0.0
 20
0.0
  9
$PLIMMAX
 10
12.0
 20
9.0
  9
$UNITMODE
 70
     0
  9
$VISRETAIN
 70
     1
  9
$PLINEGEN
 70
     0
  9
$PSLTSCALE
 70
     1
  9
$TREEDEPTH
 70
  3020
  9
$PICKSTYLE
 70
     1
  9
$CMLSTYLE
  2
STANDARD
  9
$CMLJUST
 70
     0
  9
$CMLSCALE
 40
1.0
  9
$PROXYGRAPHICS
 70
     1
  9
$MEASUREMENT
 70
     0
  0
ENDSEC
  0
SECTION
  2
CLASSES
  0
CLASS
  1
ACDBDICTIONARYWDFLT
  2
AcDbDictionaryWithDefault
  3
ObjectDBX Classes
 90
        0
280
     0
281
     0
  0
CLASS
  1
VISUALSTYLE
  2
AcDbVisualStyle
  3
ObjectDBX Classes
 90
     4095
280
     0
281
     0
  0
CLASS
  1
MATERIAL
  2
AcDbMaterial
  3
ObjectDBX Classes
 90
     1153
280
     0
281
     0
  0
CLASS
  1
SCALE
  2
AcDbScale
  3
ObjectDBX Classes
 90
     1153
280
     0
281
     0
  0
CLASS
  1
SUN
  2
AcDbSun
  3
SCENEOE
 90
     1153
280
     0
281
     0
  0
CLASS
  1
DICTIONARYVAR
  2
AcDbDictionaryVar
  3
ObjectDBX Classes
 90
        0
280
     0
281
     0
  0
CLASS
  1
XRECORD
  2
AcDbXrecord
  3
ObjectDBX Classes
 90
        0
280
     0
281
     0
  0
CLASS
  1
LWPOLYLINE
  2
AcDbPolyline
  3
ObjectDBX Classes
 90
        0
280
     0
281
     1
  0
CLASS
  1
HATCH
  2
AcDbHatch
  3
ObjectDBX Classes
 90
        0
280
     0
281
     1
  0
CLASS
  1
ACDBPLACEHOLDER
  2
AcDbPlaceHolder
  3
ObjectDBX Classes
 90
        0
280
     0
281
     0
  0
CLASS
  1
LAYOUT
  2
AcDbLayout
  3
ObjectDBX Classes
 90
        0
280
     0
281
     0
  0
ENDSEC
  0
SECTION
  2
TABLES
  0
TABLE
  2
VPORT
  5
8
102
{ACAD_XDICTIONARY
360
3D5
102
}
330
0
100
AcDbSymbolTable
 70
     1
  0
VPORT
  5
29
330
8
100
AcDbSymbolTableRecord
100
AcDbViewportTableRecord
  2
*ACTIVE
 70
     0
 10
0.0
 20
0.0
 11
1.0
 21
1.0
 12
0.0
 22
0.0
 13
0.0
 23
0.0
 14
0.5
 24
0.5
 15
0.5
 25
0.5
 16
0.0
 26
0.0
 36
1.0
 17
0.0
 27
0.0
 37
-1000.0
 40
11.71239046533252
 41
2.064655172413793
 42
50.0
 43
25.75646110115585
 44
36.83856401501899
 50
0.0
 51
0.0
 71
     0
 72
   100
 73
     1
 74
     3
 75
     0
 76
     0
 77
     0
 78
     0
  0
ENDTAB
  0
TABLE
  2
LTYPE
  5
5
330
0
100
AcDbSymbolTable
 70
     1
  0
LTYPE
  5
14
330
5
100
AcDbSymbolTableRecord
100
AcDbLinetypeTableRecord
  2
BYBLOCK
 70
     0
  3

 72
    65
 73
     0
 40
0.0
  0
LTYPE
  5
15
330
5
100
AcDbSymbolTableRecord
100
AcDbLinetypeTableRecord
  2
BYLAYER
 70
     0
  3

 72
    65
 73
     0
 40
0.0
  0
LTYPE
  5
16
330
5
100
AcDbSymbolTableRecord
100
AcDbLinetypeTableRecord
  2
CONTINUOUS
 70
     0
  3
Solid line
 72
    65
 73
     0
 40
0.0
  0
ENDTAB
  0
TABLE
  2
LAYER
  5
2
330
0
100
AcDbSymbolTable
 70
     3
  0
LAYER
  5
10
330
2
100
AcDbSymbolTableRecord
100
AcDbLayerTableRecord
  2
0
 70
     0
 62
     7
  6
CONTINUOUS
  0
LAYER
  5
6A
330
2
100
AcDbSymbolTableRecord
100
AcDbLayerTableRecord
  2
PROFILEEDGES
 70
     0
 62
     7
  6
CONTINUOUS
  0
LAYER
  5
6B
330
2
100
AcDbSymbolTableRecord
100
AcDbLayerTableRecord
  2
SECTIONCUTEDGES
 70
     0
 62
     7
  6
CONTINUOUS
  0
ENDTAB
  0
TABLE
  2
STYLE
  5
3
330
0
100
AcDbSymbolTable
 70
     1
  0
STYLE
  5
11
330
3
100
AcDbSymbolTableRecord
100
AcDbTextStyleTableRecord
  2
STANDARD
 70
     0
 40
0.0
 41
1.0
 50
0.0
 71
     0
 42
0.2
  3
txt
  4

  0
ENDTAB
  0
TABLE
  2
VIEW
  5
6
330
0
100
AcDbSymbolTable
 70
     0
  0
ENDTAB
  0
TABLE
  2
UCS
  5
7
330
0
100
AcDbSymbolTable
 70
     0
  0
ENDTAB
  0
TABLE
  2
APPID
  5
9
330
0
100
AcDbSymbolTable
 70
     1
  0
APPID
  5
12
330
9
100
AcDbSymbolTableRecord
100
AcDbRegAppTableRecord
  2
ACAD
 70
     0
  0
ENDTAB
  0
TABLE
  2
DIMSTYLE
  5
A
330
0
100
AcDbSymbolTable
 70
     1
  0
DIMSTYLE
105
27
330
A
100
AcDbSymbolTableRecord
100
AcDbDimStyleTableRecord
  2
STANDARD
 70
     0
  3

  4

  5

  6

  7

 40
1.0
 41
0.18
 42
0.0625
 43
0.38
 44
0.18
 45
0.0
 46
0.0
 47
0.0
 48
0.0
140
0.18
141
0.09
142
0.0
143
25.4
144
1.0
145
0.0
146
1.0
147
0.09
 71
     0
 72
     0
 73
     1
 74
     1
 75
     0
 76
     0
 77
     0
 78
     0
170
     0
171
     2
172
     0
173
     0
174
     0
175
     0
176
     0
177
     0
178
     0
270
     2
271
     4
272
     4
273
     2
274
     2
340
11
275
     0
280
     0
281
     0
282
     0
283
     1
284
     0
285
     0
286
     0
287
     3
288
     0
  0
ENDTAB
  0
TABLE
  2
BLOCK_RECORD
  5
1
330
0
100
AcDbSymbolTable
 70
     1
  0
BLOCK_RECORD
  5
1F
330
1
100
AcDbSymbolTableRecord
100
AcDbBlockTableRecord
  2
*MODEL_SPACE
  0
BLOCK_RECORD
  5
1B
330
1
100
AcDbSymbolTableRecord
100
AcDbBlockTableRecord
  2
*PAPER_SPACE
  0
ENDTAB
  0
ENDSEC
  0
SECTION
  2
BLOCKS
  0
BLOCK
  5
20
330
1F
100
AcDbEntity
  8
0
100
AcDbBlockBegin
  2
*MODEL_SPACE
 70
     0
 10
0.0
 20
0.0
 30
0.0
  3
*MODEL_SPACE
  1

  0
ENDBLK
  5
21
330
1F
100
AcDbEntity
  8
0
100
AcDbBlockEnd
  0
BLOCK
  5
1C
330
1B
100
AcDbEntity
 67
     1
  8
0
100
AcDbBlockBegin
  2
*PAPER_SPACE
 70
     0
 10
0.0
 20
0.0
 30
0.0
  3
*PAPER_SPACE
  1

  0
ENDBLK
  5
1D
330
1B
100
AcDbEntity
 67
     1
  8
0
100
AcDbBlockEnd
  0
ENDSEC
  0
SECTION
  2
ENTITIES
  0
LINE
  5
6C
330
1F
100
AcDbEntity
  8
0
100
AcDbLine
 10
-11.7798516776676
 20
-5.15166827505192
 30
0.0
 11
-11.92284026816921
 21
-5.399331778703371
 31
0.0
  0
LINE
  5
6D
330
1F
100
AcDbEntity
  8
0
100
AcDbLine
 10
-11.92284026816921
 20
-4.851936138128515
 30
0.0
 11
-11.82195862188041
 21
-5.026668275051914
 31
0.0
  0
LINE
  5
6E
330
1F
100
AcDbEntity
  8
0
100
AcDbLine
 10
-11.92284026816921
 20
-5.399331778703371
 30
0.0
 11
-11.81458709269616
 21
-5.461831778703373
 31
0.0
  0
LINE
  5
6F
330
1F
100
AcDbEntity
  8
0
100
AcDbLine
 10
-11.92284026816921
 20
-4.851936138128515
 30
0.0
 11
-12.03109344364227
 21
-4.914436138128515
 31
0.0
  0
LINE
  5
70
330
1F
100
AcDbEntity
  8
0
100
AcDbLine
 10
-12.09102377778939
 20
-4.310633754471128
 30
0.0
 11
-12.08828491298359
 21
-4.315377607469835
 31
0.0
  0
LINE
  5
71
330
1F
100
AcDbEntity
  8
0
100
AcDbLine
 10
-12.08828491298359
 20
-4.315377607469835
 30
0.0
 11
-11.81458709269616
 21
-4.789436138128517
 31
0.0
  0
LINE
  5
72
330
1F
100
AcDbEntity
  8
0
100
AcDbLine
 10
-11.81458709269616
 20
-4.789436138128517
 30
0.0
 11
-11.67762105458299
 21
-5.02666827505193
 31
0.0
  0
LINE
  5
73
330
1F
100
AcDbEntity
  8
0
100
AcDbLine
 10
-11.6054522709343
 20
-5.151668275051922
 30
0.0
 11
-11.60244099474007
 21
-5.156883958415944
 31
0.0
  0
LINE
  5
74
330
1F
100
AcDbEntity
  8
0
100
AcDbLine
 10
-11.92284026816921
 20
-4.851936138128515
 30
0.0
 11
-11.81458709269616
 21
-4.789436138128517
 31
0.0
  0
LINE
  5
75
330
1F
100
AcDbEntity
  8
0
100
AcDbLine
 10
-12.09102377778939
 20
-4.316958891802737
 30
0.0
 11
-12.08828491298359
 21
-4.315377607469835
 31
0.0
  0
LINE
  5
76
330
1F
100
AcDbEntity
  8
0
100
AcDbLine
 10
-11.60244099474007
 20
-5.156883958415944
 30
0.0
 11
-11.6565675824766
 21
-5.188133958415944
 31
0.0
  0
LINE
  5
77
330
1F
100
AcDbEntity
  8
0
100
AcDbLine
 10
-12.09102377778939
 20
-5.02666827505191
 30
0.0
 11
-11.84110486763194
 21
-5.026668275051911
 31
0.0
  0
LINE
  5
78
330
1F
100
AcDbEntity
  8
0
100
AcDbLine
 10
-12.09102377778939
 20
-5.151668275051916
 30
0.0
 11
-11.84110486763194
 21
-5.151668275051919
 31
0.0
  0
LINE
  5
79
330
1F
100
AcDbEntity
  8
0
100
AcDbLine
 10
-11.84110486763194
 20
-5.151668275051919
 30
0.0
 11
-11.84110486763194
 21
-5.026668275051911
 31
0.0
  0
LINE
  5
7A
330
1F
100
AcDbEntity
  8
0
100
AcDbLine
 10
-11.69445486763194
 20
-5.151668275051922
 30
0.0
 11
-11.71972799879581
 21
-5.15166827505192
 31
0.0
  0
LINE
  5
7B
330
1F
100
AcDbEntity
  8
0
100
AcDbLine
 10
-11.44180486763193
 20
-5.151668275051927
 30
0.0
 11
-11.44180486763194
 21
-5.026668275051935
 31
0.0
  0
LINE
  5
7C
330
1F
100
AcDbEntity
  8
0
100
AcDbLine
 10
-11.69445486763194
 20
-5.151668275051922
 30
0.0
 11
-11.69445486763194
 21
-5.026668275051929
 31
0.0
  0
LINE
  5
7D
330
1F
100
AcDbEntity
  8
0
100
AcDbLine
 10
-11.71972799879581
 20
-5.15166827505192
 30
0.0
 11
-11.6565675824766
 21
-5.188133958415944
 31
0.0
  0
LINE
  5
7E
330
1F
100
AcDbEntity
  8
0
100
AcDbLine
 10
-10.62031869865292
 20
-4.283658068437369
 30
0.0
 11
-10.62031869865292
 21
-4.158658068437368
 31
0.0
  0
LINE
  5
7F
330
1F
100
AcDbEntity
  8
0
100
AcDbLine
 10
-10.69248748230163
 20
-4.283658068437369
 30
0.0
 11
-10.69248748230163
 21
-4.158658068437367
 31
0.0
  0
LINE
  5
80
330
1F
100
AcDbEntity
  8
0
100
AcDbLine
 10
-9.063115393929028
 20
-4.283658068437375
 30
0.0
 11
-9.06311539392902
 21
-4.158658068437359
 31
0.0
  0
LINE
  5
81
330
1F
100
AcDbEntity
  8
0
100
AcDbLine
 10
-10.76465626595033
 20
-4.283658068437369
 30
0.0
 11
-10.76465626595033
 21
-4.158658068437368
 31
0.0
  0
LINE
  5
82
330
1F
100
AcDbEntity
  8
0
100
AcDbLine
 10
-11.2935237363961
 20
-4.15865806843737
 30
0.0
 11
-11.2935237363961
 21
-4.28365806843737
 31
0.0
  0
LINE
  5
83
330
1F
100
AcDbEntity
  8
0
100
AcDbLine
 10
-10.9810237363961
 20
-4.158658068437369
 30
0.0
 11
-10.9810237363961
 21
-4.283658068437369
 31
0.0
  0
LINE
  5
84
330
1F
100
AcDbEntity
  8
0
100
AcDbLine
 10
-10.9810237363961
 20
-4.158658068437369
 30
0.0
 11
-10.76465626595033
 21
-4.158658068437368
 31
0.0
  0
LINE
  5
85
330
1F
100
AcDbEntity
  8
0
100
AcDbLine
 10
-11.0435237363961
 20
-4.158658068437369
 30
0.0
 11
-11.0435237363961
 21
-4.28365806843737
 31
0.0
  0
LINE
  5
86
330
1F
100
AcDbEntity
  8
0
100
AcDbLine
 10
-11.1060237363961
 20
-4.28365806843737
 30
0.0
 11
-11.0435237363961
 21
-4.28365806843737
 31
0.0
  0
LINE
  5
87
330
1F
100
AcDbEntity
  8
0
100
AcDbLine
 10
-11.1060237363961
 20
-4.15865806843737
 30
0.0
 11
-11.1060237363961
 21
-4.28365806843737
 31
0.0
  0
LINE
  5
88
330
1F
100
AcDbEntity
  8
0
100
AcDbLine
 10
-11.1060237363961
 20
-4.15865806843737
 30
0.0
 11
-11.0435237363961
 21
-4.158658068437369
 31
0.0
  0
LINE
  5
89
330
1F
100
AcDbEntity
  8
0
100
AcDbLine
 10
-10.9810237363961
 20
-4.283658068437369
 30
0.0
 11
-11.0435237363961
 21
-4.28365806843737
 31
0.0
  0
LINE
  5
8A
330
1F
100
AcDbEntity
  8
0
100
AcDbLine
 10
-10.9810237363961
 20
-4.158658068437369
 30
0.0
 11
-11.0435237363961
 21
-4.158658068437369
 31
0.0
  0
LINE
  5
8B
330
1F
100
AcDbEntity
  8
0
100
AcDbLine
 10
-11.3560237363961
 20
-4.15865806843737
 30
0.0
 11
-11.3560237363961
 21
-4.28365806843737
 31
0.0
  0
LINE
  5
8C
330
1F
100
AcDbEntity
  8
0
100
AcDbLine
 10
-11.3560237363961
 20
-4.28365806843737
 30
0.0
 11
-11.2935237363961
 21
-4.28365806843737
 31
0.0
  0
LINE
  5
8D
330
1F
100
AcDbEntity
  8
0
100
AcDbLine
 10
-11.3560237363961
 20
-4.15865806843737
 30
0.0
 11
-11.2935237363961
 21
-4.15865806843737
 31
0.0
  0
LINE
  5
8E
330
1F
100
AcDbEntity
  8
0
100
AcDbLine
 10
-11.2310237363961
 20
-4.158658068437369
 30
0.0
 11
-11.2310237363961
 21
-4.28365806843737
 31
0.0
  0
LINE
  5
8F
330
1F
100
AcDbEntity
  8
0
100
AcDbLine
 10
-11.2310237363961
 20
-4.158658068437369
 30
0.0
 11
-11.1060237363961
 21
-4.15865806843737
 31
0.0
  0
LINE
  5
90
330
1F
100
AcDbEntity
  8
0
100
AcDbLine
 10
-11.2310237363961
 20
-4.28365806843737
 30
0.0
 11
-11.1060237363961
 21
-4.28365806843737
 31
0.0
  0
LINE
  5
91
330
1F
100
AcDbEntity
  8
0
100
AcDbLine
 10
-11.2935237363961
 20
-4.28365806843737
 30
0.0
 11
-11.2310237363961
 21
-4.28365806843737
 31
0.0
  0
LINE
  5
92
330
1F
100
AcDbEntity
  8
0
100
AcDbLine
 10
-11.2935237363961
 20
-4.15865806843737
 30
0.0
 11
-11.2310237363961
 21
-4.158658068437369
 31
0.0
  0
LINE
  5
93
330
1F
100
AcDbEntity
  8
0
100
AcDbLine
 10
-10.9810237363961
 20
-4.283658068437369
 30
0.0
 11
-10.76465626595033
 21
-4.283658068437369
 31
0.0
  0
LINE
  5
94
330
1F
100
AcDbEntity
  8
0
100
AcDbLine
 10
-8.663815393929024
 20
-4.283658068437367
 30
0.0
 11
-8.663815393929024
 21
-4.158658068437378
 31
0.0
  0
LINE
  5
95
330
1F
100
AcDbEntity
  8
0
100
AcDbLine
 10
-8.91646539392902
 20
-4.283658068437363
 30
0.0
 11
-8.916465393929027
 21
-4.158658068437371
 31
0.0
  0
LINE
  5
96
330
1F
100
AcDbEntity
  8
0
100
AcDbLine
 10
-11.06042428573585
 20
-5.250405604459306
 30
0.0
 11
-10.99792428573585
 21
-5.250405604459306
 31
0.0
  0
LINE
  5
97
330
1F
100
AcDbEntity
  8
0
100
AcDbLine
 10
-10.99792428573585
 20
-5.125405604459306
 30
0.0
 11
-10.99792428573585
 21
-5.250405604459306
 31
0.0
  0
LINE
  5
98
330
1F
100
AcDbEntity
  8
0
100
AcDbLine
 10
-11.06042428573585
 20
-5.125405604459306
 30
0.0
 11
-10.99792428573585
 21
-5.125405604459306
 31
0.0
  0
LINE
  5
99
330
1F
100
AcDbEntity
  8
0
100
AcDbLine
 10
-11.06042428573585
 20
-5.125405604459306
 30
0.0
 11
-11.06042428573585
 21
-5.250405604459306
 31
0.0
  0
LINE
  5
9A
330
1F
100
AcDbEntity
  8
0
100
AcDbLine
 10
-10.99792428573585
 20
-5.125405604459306
 30
0.0
 11
-10.93542428573585
 21
-5.125405604459307
 31
0.0
  0
LINE
  5
9B
330
1F
100
AcDbEntity
  8
0
100
AcDbLine
 10
-10.99792428573585
 20
-5.250405604459306
 30
0.0
 11
-10.93542428573585
 21
-5.250405604459307
 31
0.0
  0
LINE
  5
9C
330
1F
100
AcDbEntity
  8
0
100
AcDbLine
 10
-10.93542428573585
 20
-5.125405604459307
 30
0.0
 11
-10.93542428573585
 21
-5.250405604459307
 31
0.0
  0
LINE
  5
9D
330
1F
100
AcDbEntity
  8
0
100
AcDbLine
 10
-10.81042428573585
 20
-5.125405604459307
 30
0.0
 11
-10.81042428573585
 21
-5.250405604459308
 31
0.0
  0
LINE
  5
9E
330
1F
100
AcDbEntity
  8
0
100
AcDbLine
 10
-10.93542428573585
 20
-5.250405604459307
 30
0.0
 11
-10.81042428573585
 21
-5.250405604459308
 31
0.0
  0
LINE
  5
9F
330
1F
100
AcDbEntity
  8
0
100
AcDbLine
 10
-10.93542428573585
 20
-5.125405604459307
 30
0.0
 11
-10.81042428573585
 21
-5.125405604459307
 31
0.0
  0
LINE
  5
A0
330
1F
100
AcDbEntity
  8
0
100
AcDbLine
 10
-10.81042428573585
 20
-5.250405604459308
 30
0.0
 11
-10.74792428573585
 21
-5.250405604459308
 31
0.0
  0
LINE
  5
A1
330
1F
100
AcDbEntity
  8
0
100
AcDbLine
 10
-10.74792428573585
 20
-5.125405604459306
 30
0.0
 11
-10.74792428573585
 21
-5.250405604459308
 31
0.0
  0
LINE
  5
A2
330
1F
100
AcDbEntity
  8
0
100
AcDbLine
 10
-10.81042428573585
 20
-5.125405604459307
 30
0.0
 11
-10.74792428573585
 21
-5.125405604459306
 31
0.0
  0
LINE
  5
A3
330
1F
100
AcDbEntity
  8
0
100
AcDbLine
 10
-10.68542428573585
 20
-5.125405604459307
 30
0.0
 11
-10.68542428573585
 21
-5.250405604459308
 31
0.0
  0
LINE
  5
A4
330
1F
100
AcDbEntity
  8
0
100
AcDbLine
 10
-10.68542428573585
 20
-5.125405604459307
 30
0.0
 11
-10.74792428573585
 21
-5.125405604459306
 31
0.0
  0
LINE
  5
A5
330
1F
100
AcDbEntity
  8
0
100
AcDbLine
 10
-10.68542428573585
 20
-5.250405604459308
 30
0.0
 11
-10.74792428573585
 21
-5.250405604459308
 31
0.0
  0
LINE
  5
A6
330
1F
100
AcDbEntity
  8
0
100
AcDbLine
 10
-10.68542428573585
 20
-5.250405604459308
 30
0.0
 11
-10.46905681529008
 21
-5.250405604459308
 31
0.0
  0
LINE
  5
A7
330
1F
100
AcDbEntity
  8
0
100
AcDbLine
 10
-10.46905681529008
 20
-5.250405604459308
 30
0.0
 11
-10.46905681529008
 21
-5.125405604459307
 31
0.0
  0
LINE
  5
A8
330
1F
100
AcDbEntity
  8
0
100
AcDbLine
 10
-10.68542428573585
 20
-5.125405604459307
 30
0.0
 11
-10.46905681529008
 21
-5.125405604459307
 31
0.0
  0
LINE
  5
A9
330
1F
100
AcDbEntity
  8
0
100
AcDbLine
 10
-10.32471924799267
 20
-5.250405604459309
 30
0.0
 11
-10.32471924799267
 21
-5.125405604459309
 31
0.0
  0
LINE
  5
AA
330
1F
100
AcDbEntity
  8
0
100
AcDbLine
 10
-8.767515943268778
 20
-5.250405604459314
 30
0.0
 11
-8.767515943268775
 21
-5.125405604459309
 31
0.0
  0
LINE
  5
AB
330
1F
100
AcDbEntity
  8
0
100
AcDbLine
 10
-10.39688803164137
 20
-5.25040560445931
 30
0.0
 11
-10.39688803164138
 21
-5.125405604459308
 31
0.0
  0
LINE
  5
AC
330
1F
100
AcDbEntity
  8
0
100
AcDbLine
 10
-8.620865943268777
 20
-5.250405604459345
 30
0.0
 11
-8.62086594326877
 21
-5.125405604459328
 31
0.0
  0
LINE
  5
AD
330
1F
100
AcDbEntity
  8
0
100
AcDbLine
 10
-8.368215943268774
 20
-5.250405604459322
 30
0.0
 11
-8.368215943268774
 21
-5.125405604459331
 31
0.0
  0
LINE
  5
AE
330
1F
100
AcDbEntity
  8
0
100
AcDbLine
 10
-3.471502033837094
 20
-3.99879458792182
 30
0.0
 11
-3.47739116416746
 21
-3.984576970806124
 31
0.0
  0
LINE
  5
AF
330
1F
100
AcDbEntity
  8
0
100
AcDbLine
 10
-3.479399837162428
 20
-3.969319588157194
 30
0.0
 11
-3.477391165076876
 21
-3.954062205388537
 31
0.0
  0
LINE
  5
B0
330
1F
100
AcDbEntity
  8
0
100
AcDbLine
 10
-3.46213378067109
 20
-4.01100353239357
 30
0.0
 11
-3.471502033837094
 21
-3.99879458792182
 31
0.0
  0
LINE
  5
B1
330
1F
100
AcDbEntity
  8
0
100
AcDbLine
 10
-3.47739116416746
 20
-3.984576970806124
 30
0.0
 11
-3.479399837162428
 21
-3.969319588157194
 31
0.0
  0
LINE
  5
B2
330
1F
100
AcDbEntity
  8
0
100
AcDbLine
 10
-3.449924835640947
 20
-4.020371784831858
 30
0.0
 11
-3.46213378067109
 21
-4.01100353239357
 31
0.0
  0
LINE
  5
B3
330
1F
100
AcDbEntity
  8
0
100
AcDbLine
 10
-3.435707218174228
 20
-4.026260914314786
 30
0.0
 11
-3.449924835640947
 21
-4.020371784831858
 31
0.0
  0
LINE
  5
B4
330
1F
100
AcDbEntity
  8
0
100
AcDbLine
 10
-3.477391165076876
 20
-3.954062205388537
 30
0.0
 11
-3.471502035593951
 21
-3.93984458792182
 31
0.0
  0
LINE
  5
B5
330
1F
100
AcDbEntity
  8
0
100
AcDbLine
 10
-3.382494026103919
 20
-3.905372607694451
 30
0.0
 11
-3.347124839504822
 21
-3.890722209680058
 31
0.0
  0
LINE
  5
B6
330
1F
100
AcDbEntity
  8
0
100
AcDbLine
 10
-3.347124839504822
 20
-3.890722209680058
 30
0.0
 11
-3.316752630738374
 21
-3.86741679277091
 31
0.0
  0
LINE
  5
B7
330
1F
100
AcDbEntity
  8
0
100
AcDbLine
 10
-3.471502035593951
 20
-3.93984458792182
 30
0.0
 11
-3.46213378315566
 21
-3.927635642891676
 31
0.0
  0
LINE
  5
B8
330
1F
100
AcDbEntity
  8
0
100
AcDbLine
 10
-3.449924838683909
 20
-3.918267389725673
 30
0.0
 11
-3.435707221568214
 21
-3.912378259395305
 31
0.0
  0
LINE
  5
B9
330
1F
100
AcDbEntity
  8
0
100
AcDbLine
 10
-3.316752630738374
 20
-3.86741679277091
 30
0.0
 11
-3.29344721563956
 21
-3.837044582615344
 31
0.0
  0
LINE
  5
BA
330
1F
100
AcDbEntity
  8
0
100
AcDbLine
 10
-3.46213378315566
 20
-3.927635642891676
 30
0.0
 11
-3.449924838683909
 21
-3.918267389725673
 31
0.0
  0
LINE
  5
BB
330
1F
100
AcDbEntity
  8
0
100
AcDbLine
 10
-3.29344721563956
 20
-3.837044582615344
 30
0.0
 11
-3.27879681973335
 21
-3.80167539514301
 31
0.0
  0
LINE
  5
BC
330
1F
100
AcDbEntity
  8
0
100
AcDbLine
 10
-3.27879681973335
 20
-3.80167539514301
 30
0.0
 11
-3.273799843289801
 21
-3.76371958202975
 31
0.0
  0
LINE
  5
BD
330
1F
100
AcDbEntity
  8
0
100
AcDbLine
 10
-3.287997419845905
 20
-3.694176079915983
 30
0.0
 11
-3.308033832372154
 21
-3.664513996230947
 31
0.0
  0
LINE
  5
BE
330
1F
100
AcDbEntity
  8
0
100
AcDbLine
 10
-3.308033832372154
 20
-3.664513996230947
 30
0.0
 11
-3.335064632872551
 21
-3.641048428695353
 31
0.0
  0
LINE
  5
BF
330
1F
100
AcDbEntity
  8
0
100
AcDbLine
 10
-3.273799843289801
 20
-3.76371958202975
 30
0.0
 11
-3.276320843695721
 21
-3.728013257766215
 31
0.0
  0
LINE
  5
C0
330
1F
100
AcDbEntity
  8
0
100
AcDbLine
 10
-3.335064632872551
 20
-3.641048428695353
 30
0.0
 11
-3.367247716963498
 21
-3.625378516958063
 31
0.0
  0
LINE
  5
C1
330
1F
100
AcDbEntity
  8
0
100
AcDbLine
 10
-3.367247716963498
 20
-3.625378516958063
 30
0.0
 11
-3.402389860649264
 21
-3.618572139608226
 31
0.0
  0
LINE
  5
C2
330
1F
100
AcDbEntity
  8
0
100
AcDbLine
 10
-3.402389860649264
 20
-3.618572139608226
 30
0.0
 11
-3.416943278797902
 21
-3.61411941496381
 31
0.0
  0
LINE
  5
C3
330
1F
100
AcDbEntity
  8
0
100
AcDbLine
 10
-3.276320843695721
 20
-3.728013257766215
 30
0.0
 11
-3.287997419845905
 21
-3.694176079915983
 31
0.0
  0
LINE
  5
C4
330
1F
100
AcDbEntity
  8
0
100
AcDbLine
 10
-3.437733695994403
 20
-3.523981002057808
 30
0.0
 11
-3.426600814261897
 21
-3.513603734551437
 31
0.0
  0
LINE
  5
C5
330
1F
100
AcDbEntity
  8
0
100
AcDbLine
 10
-3.450254124158566
 20
-3.551439492716405
 30
0.0
 11
-3.445801399514081
 21
-3.536886074567763
 31
0.0
  0
LINE
  5
C6
330
1F
100
AcDbEntity
  8
0
100
AcDbLine
 10
-3.413161441808673
 20
-3.506461465679969
 30
0.0
 11
-3.398331449657814
 21
-3.503040929263839
 31
0.0
  0
LINE
  5
C7
330
1F
100
AcDbEntity
  8
0
100
AcDbLine
 10
-3.440225618814228
 20
-3.594918829711622
 30
0.0
 11
-3.447367887685695
 21
-3.581479457258412
 31
0.0
  0
LINE
  5
C8
330
1F
100
AcDbEntity
  8
0
100
AcDbLine
 10
-3.447367887685695
 20
-3.581479457258412
 30
0.0
 11
-3.450788424101827
 21
-3.566649465107545
 31
0.0
  0
LINE
  5
C9
330
1F
100
AcDbEntity
  8
0
100
AcDbLine
 10
-3.426600814261897
 20
-3.513603734551437
 30
0.0
 11
-3.413161441808673
 21
-3.506461465679969
 31
0.0
  0
LINE
  5
CA
330
1F
100
AcDbEntity
  8
0
100
AcDbLine
 10
-3.445801399514081
 20
-3.536886074567763
 30
0.0
 11
-3.437733695994403
 21
-3.523981002057808
 31
0.0
  0
LINE
  5
CB
330
1F
100
AcDbEntity
  8
0
100
AcDbLine
 10
-3.416943278797902
 20
-3.61411941496381
 30
0.0
 11
-3.429848351307847
 21
-3.606051711444132
 31
0.0
  0
LINE
  5
CC
330
1F
100
AcDbEntity
  8
0
100
AcDbLine
 10
-3.450788424101827
 20
-3.566649465107545
 30
0.0
 11
-3.450254124158566
 21
-3.551439492716405
 31
0.0
  0
LINE
  5
CD
330
1F
100
AcDbEntity
  8
0
100
AcDbLine
 10
-3.429848351307847
 20
-3.606051711444132
 30
0.0
 11
-3.440225618814228
 21
-3.594918829711622
 31
0.0
  0
LINE
  5
CE
330
1F
100
AcDbEntity
  8
0
100
AcDbLine
 10
-3.358910749329977
 20
-3.504425709681375
 30
0.0
 11
-3.335304861398442
 21
-3.498981013250427
 31
0.0
  0
LINE
  5
CF
330
1F
100
AcDbEntity
  8
0
100
AcDbLine
 10
-3.296191565311882
 20
-3.471093997587389
 30
0.0
 11
-3.283349663647379
 21
-3.450552132387247
 31
0.0
  0
LINE
  5
D0
330
1F
100
AcDbEntity
  8
0
100
AcDbLine
 10
-3.335304861398442
 20
-3.498981013250427
 30
0.0
 11
-3.313912515724011
 21
-3.487612186978251
 31
0.0
  0
LINE
  5
D1
330
1F
100
AcDbEntity
  8
0
100
AcDbLine
 10
-3.313912515724011
 20
-3.487612186978251
 30
0.0
 11
-3.296191565311882
 21
-3.471093997587389
 31
0.0
  0
LINE
  5
D2
330
1F
100
AcDbEntity
  8
0
100
AcDbLine
 10
-1.644427738566455
 20
-4.312357075331859
 30
0.0
 11
-1.71659652308241
 21
-4.283257077482669
 31
0.0
  0
LINE
  5
D3
330
1F
100
AcDbEntity
  8
0
100
AcDbLine
 10
-1.572258955785002
 20
-4.28325707318105
 30
0.0
 11
-1.644427738566455
 21
-4.312357075331859
 31
0.0
  0
LINE
  5
D4
330
1F
100
AcDbEntity
  8
0
100
AcDbLine
 10
-3.420449835405575
 20
-4.028269586400338
 30
0.0
 11
-3.435707218174228
 21
-4.026260914314786
 31
0.0
  0
LINE
  5
D5
330
1F
100
AcDbEntity
  8
0
100
AcDbLine
 10
-1.355891485339232
 20
-4.283257066732761
 30
0.0
 11
-1.572258955785002
 21
-4.28325707318105
 31
0.0
  0
LINE
  5
D6
330
1F
100
AcDbEntity
  8
0
100
AcDbLine
 10
-1.230891484403434
 20
-4.314657063007448
 30
0.0
 11
-1.293391484403434
 21
-4.314657064870103
 31
0.0
  0
LINE
  5
D7
330
1F
100
AcDbEntity
  8
0
100
AcDbLine
 10
-1.355891485339232
 20
-4.283257066732761
 30
0.0
 11
-1.293391484403434
 21
-4.314657064870103
 31
0.0
  0
LINE
  5
D8
330
1F
100
AcDbEntity
  8
0
100
AcDbLine
 10
-1.230891485339231
 20
-4.283257063007451
 30
0.0
 11
-1.230891484403434
 21
-4.314657063007448
 31
0.0
  0
LINE
  5
D9
330
1F
100
AcDbEntity
  8
0
100
AcDbLine
 10
-1.671101322822092
 20
-4.251319301324013
 30
0.0
 11
-1.6701924427464
 21
-4.244415670161232
 31
0.0
  0
LINE
  5
DA
330
1F
100
AcDbEntity
  8
0
100
AcDbLine
 10
-1.6701924427464
 20
-4.244415670161232
 30
0.0
 11
-1.667527740783001
 21
-4.237982509999231
 31
0.0
  0
LINE
  5
DB
330
1F
100
AcDbEntity
  8
0
100
AcDbLine
 10
-1.667527740783001
 20
-4.237982509999231
 30
0.0
 11
-1.663288811967068
 21
-4.23245823007175
 31
0.0
  0
LINE
  5
DC
330
1F
100
AcDbEntity
  8
0
100
AcDbLine
 10
-1.663288811967068
 20
-4.23245823007175
 30
0.0
 11
-1.657764532292248
 21
-4.228219300926543
 31
0.0
  0
LINE
  5
DD
330
1F
100
AcDbEntity
  8
0
100
AcDbLine
 10
-1.657764532292248
 20
-4.228219300926543
 30
0.0
 11
-1.651331372289077
 21
-4.225554598579695
 31
0.0
  0
LINE
  5
DE
330
1F
100
AcDbEntity
  8
0
100
AcDbLine
 10
-1.64442774118047
 20
-4.224645718092513
 30
0.0
 11
-1.637524110017689
 21
-4.225554598168204
 31
0.0
  0
LINE
  5
DF
330
1F
100
AcDbEntity
  8
0
100
AcDbLine
 10
-1.651331372289077
 20
-4.225554598579695
 30
0.0
 11
-1.64442774118047
 21
-4.224645718092513
 31
0.0
  0
LINE
  5
E0
330
1F
100
AcDbEntity
  8
0
100
AcDbLine
 10
-1.637524110017689
 20
-4.225554598168204
 30
0.0
 11
-1.631090949855688
 21
-4.228219300131604
 31
0.0
  0
LINE
  5
E1
330
1F
100
AcDbEntity
  8
0
100
AcDbLine
 10
-1.618663038436153
 20
-4.244415668625528
 30
0.0
 11
-1.61775415794897
 21
-4.251319299734135
 31
0.0
  0
LINE
  5
E2
330
1F
100
AcDbEntity
  8
0
100
AcDbLine
 10
-1.61775415794897
 20
-4.251319299734135
 30
0.0
 11
-1.618663038024662
 21
-4.258222930896915
 31
0.0
  0
LINE
  5
E3
330
1F
100
AcDbEntity
  8
0
100
AcDbLine
 10
-1.631090949855688
 20
-4.228219300131604
 30
0.0
 11
-1.625566669928206
 21
-4.232458228947537
 31
0.0
  0
LINE
  5
E4
330
1F
100
AcDbEntity
  8
0
100
AcDbLine
 10
-1.625566669928206
 20
-4.232458228947537
 30
0.0
 11
-1.621327740783002
 21
-4.237982508622355
 31
0.0
  0
LINE
  5
E5
330
1F
100
AcDbEntity
  8
0
100
AcDbLine
 10
-1.621327740783002
 20
-4.237982508622355
 30
0.0
 11
-1.618663038436153
 21
-4.244415668625528
 31
0.0
  0
LINE
  5
E6
330
1F
100
AcDbEntity
  8
0
100
AcDbLine
 10
-1.618663038024662
 20
-4.258222930896915
 30
0.0
 11
-1.621327739988063
 21
-4.264656091058917
 31
0.0
  0
LINE
  5
E7
330
1F
100
AcDbEntity
  8
0
100
AcDbLine
 10
-1.625566668803992
 20
-4.270180370986398
 30
0.0
 11
-1.631090948478813
 21
-4.274419300131604
 31
0.0
  0
LINE
  5
E8
330
1F
100
AcDbEntity
  8
0
100
AcDbLine
 10
-1.651331370753373
 20
-4.277084002889944
 30
0.0
 11
-1.657764530915373
 21
-4.274419300926543
 31
0.0
  0
LINE
  5
E9
330
1F
100
AcDbEntity
  8
0
100
AcDbLine
 10
-1.631090948478813
 20
-4.274419300131604
 30
0.0
 11
-1.637524108481985
 21
-4.277084002478453
 31
0.0
  0
LINE
  5
EA
330
1F
100
AcDbEntity
  8
0
100
AcDbLine
 10
-1.637524108481985
 20
-4.277084002478453
 30
0.0
 11
-1.644427739590592
 21
-4.277992882965635
 31
0.0
  0
LINE
  5
EB
330
1F
100
AcDbEntity
  8
0
100
AcDbLine
 10
-1.621327739988063
 20
-4.264656091058917
 30
0.0
 11
-1.625566668803992
 21
-4.270180370986398
 31
0.0
  0
LINE
  5
EC
330
1F
100
AcDbEntity
  8
0
100
AcDbLine
 10
-1.644427739590592
 20
-4.277992882965635
 30
0.0
 11
-1.651331370753373
 21
-4.277084002889944
 31
0.0
  0
LINE
  5
ED
330
1F
100
AcDbEntity
  8
0
100
AcDbLine
 10
-1.663288810842854
 20
-4.270180372110612
 30
0.0
 11
-1.667527739988062
 21
-4.264656092435792
 31
0.0
  0
LINE
  5
EE
330
1F
100
AcDbEntity
  8
0
100
AcDbLine
 10
-1.657764530915373
 20
-4.274419300926543
 30
0.0
 11
-1.663288810842854
 21
-4.270180372110612
 31
0.0
  0
LINE
  5
EF
330
1F
100
AcDbEntity
  8
0
100
AcDbLine
 10
-1.667527739988062
 20
-4.264656092435792
 30
0.0
 11
-1.670192442334909
 21
-4.25822293243262
 31
0.0
  0
LINE
  5
F0
330
1F
100
AcDbEntity
  8
0
100
AcDbLine
 10
-1.670192442334909
 20
-4.25822293243262
 30
0.0
 11
-1.671101322822092
 21
-4.251319301324013
 31
0.0
  0
LINE
  5
F1
330
1F
100
AcDbEntity
  8
0
100
AcDbLine
 10
-0.9808914856253381
 20
-4.273657055556829
 30
0.0
 11
-1.043391485029288
 21
-4.293657057419484
 31
0.0
  0
LINE
  5
F2
330
1F
100
AcDbEntity
  8
0
100
AcDbLine
 10
-0.9808914929384986
 20
-4.028269513695435
 30
0.0
 11
-0.980891491038683
 21
-4.092016399160784
 31
0.0
  0
LINE
  5
F3
330
1F
100
AcDbEntity
  8
0
100
AcDbLine
 10
-0.9808914856253381
 20
-4.273657055556829
 30
0.0
 11
-0.98089148723905
 21
-4.21951017009148
 31
0.0
  0
LINE
  5
F4
330
1F
100
AcDbEntity
  8
0
100
AcDbLine
 10
-2.810953695079633
 20
-4.166147663313243
 30
0.0
 11
-0.98089148723905
 21
-4.21951017009148
 31
0.0
  0
LINE
  5
F5
330
1F
100
AcDbEntity
  8
0
100
AcDbLine
 10
-2.810953695079633
 20
-4.166147663313243
 30
0.0
 11
-0.980891491038683
 21
-4.092016399160784
 31
0.0
  0
LINE
  5
F6
330
1F
100
AcDbEntity
  8
0
100
AcDbLine
 10
-1.105891485339233
 20
-4.283257059282139
 30
0.0
 11
-1.230891485339231
 21
-4.283257063007451
 31
0.0
  0
LINE
  5
F7
330
1F
100
AcDbEntity
  8
0
100
AcDbLine
 10
-1.043391485029288
 20
-4.293657057419484
 30
0.0
 11
-1.105891485339233
 21
-4.283257059282139
 31
0.0
  0
LINE
  5
F8
330
1F
100
AcDbEntity
  8
0
100
AcDbLine
 10
-3.673099835335906
 20
-4.030607135791326
 30
0.0
 11
-3.664490997296642
 21
-3.96521650378961
 31
0.0
  0
LINE
  5
F9
330
1F
100
AcDbEntity
  8
0
100
AcDbLine
 10
-3.639251149837242
 20
-4.156932134782552
 30
0.0
 11
-3.664490993399035
 21
-4.095997767279914
 31
0.0
  0
LINE
  5
FA
330
1F
100
AcDbEntity
  8
0
100
AcDbLine
 10
-3.664490993399035
 20
-4.095997767279914
 30
0.0
 11
-3.673099835335906
 21
-4.030607135791326
 31
0.0
  0
LINE
  5
FB
330
1F
100
AcDbEntity
  8
0
100
AcDbLine
 10
-3.599100368926916
 20
-3.851956605319177
 30
0.0
 11
-3.546774841856725
 21
-3.811805813760389
 31
0.0
  0
LINE
  5
FC
330
1F
100
AcDbEntity
  8
0
100
AcDbLine
 10
-3.63925115736684
 20
-3.904282134782552
 30
0.0
 11
-3.599100368926916
 21
-3.851956605319177
 31
0.0
  0
LINE
  5
FD
330
1F
100
AcDbEntity
  8
0
100
AcDbLine
 10
-3.546774841856725
 20
-3.811805813760389
 30
0.0
 11
-3.48584047435409
 21
-3.786565970198599
 31
0.0
  0
LINE
  5
FE
330
1F
100
AcDbEntity
  8
0
100
AcDbLine
 10
-3.664490997296642
 20
-3.96521650378961
 30
0.0
 11
-3.63925115736684
 21
-3.904282134782552
 31
0.0
  0
LINE
  5
FF
330
1F
100
AcDbEntity
  8
0
100
AcDbLine
 10
-3.413772311497026
 20
-3.777078014372548
 30
0.0
 11
-3.407549842912938
 21
-3.774500583262714
 31
0.0
  0
LINE
  5
100
330
1F
100
AcDbEntity
  8
0
100
AcDbLine
 10
-3.407549842912938
 20
-3.774500583262714
 30
0.0
 11
-3.402206488068044
 21
-3.770400482604519
 31
0.0
  0
LINE
  5
101
330
1F
100
AcDbEntity
  8
0
100
AcDbLine
 10
-3.402206488068044
 20
-3.770400482604519
 30
0.0
 11
-3.398106387768148
 21
-3.765057127484692
 31
0.0
  0
LINE
  5
102
330
1F
100
AcDbEntity
  8
0
100
AcDbLine
 10
-3.395528957075612
 20
-3.758834658727777
 30
0.0
 11
-3.394649843634335
 21
-3.75215712730044
 31
0.0
  0
LINE
  5
103
330
1F
100
AcDbEntity
  8
0
100
AcDbLine
 10
-3.398106387768148
 20
-3.765057127484692
 30
0.0
 11
-3.395528957075612
 21
-3.758834658727777
 31
0.0
  0
LINE
  5
104
330
1F
100
AcDbEntity
  8
0
100
AcDbLine
 10
-3.394649843634335
 20
-3.75215712730044
 30
0.0
 11
-3.395528957573126
 21
-3.745479595938598
 31
0.0
  0
LINE
  5
105
330
1F
100
AcDbEntity
  8
0
100
AcDbLine
 10
-3.395528957573126
 20
-3.745479595938598
 30
0.0
 11
-3.398106388729295
 21
-3.739257127373699
 31
0.0
  0
LINE
  5
106
330
1F
100
AcDbEntity
  8
0
100
AcDbLine
 10
-3.398106388729295
 20
-3.739257127373699
 30
0.0
 11
-3.402206489427299
 21
-3.733913772559358
 31
0.0
  0
LINE
  5
107
330
1F
100
AcDbEntity
  8
0
100
AcDbLine
 10
-3.402206489427299
 20
-3.733913772559358
 30
0.0
 11
-3.407549844577671
 21
-3.72981367229927
 31
0.0
  0
LINE
  5
108
330
1F
100
AcDbEntity
  8
0
100
AcDbLine
 10
-3.407549844577671
 20
-3.72981367229927
 30
0.0
 11
-3.413772313353796
 21
-3.7272362416531
 31
0.0
  0
LINE
  5
109
330
1F
100
AcDbEntity
  8
0
100
AcDbLine
 10
-3.413772313353796
 20
-3.7272362416531
 30
0.0
 11
-3.420449844787689
 21
-3.726357128261578
 31
0.0
  0
LINE
  5
10A
330
1F
100
AcDbEntity
  8
0
100
AcDbLine
 10
-3.420449844787689
 20
-3.726357128261578
 30
0.0
 11
-3.457083020257419
 21
-3.715148940895824
 31
0.0
  0
LINE
  5
10B
330
1F
100
AcDbEntity
  8
0
100
AcDbLine
 10
-3.457083020257419
 20
-3.715148940895824
 30
0.0
 11
-3.489567058165928
 21
-3.69484129971877
 31
0.0
  0
LINE
  5
10C
330
1F
100
AcDbEntity
  8
0
100
AcDbLine
 10
-3.489567058165928
 20
-3.69484129971877
 30
0.0
 11
-3.515688224991381
 21
-3.666818136929825
 31
0.0
  0
LINE
  5
10D
330
1F
100
AcDbEntity
  8
0
100
AcDbLine
 10
-3.515688224991381
 20
-3.666818136929825
 30
0.0
 11
-3.533666406365089
 21
-3.632989184780653
 31
0.0
  0
LINE
  5
10E
330
1F
100
AcDbEntity
  8
0
100
AcDbLine
 10
-3.533666406365089
 20
-3.632989184780653
 30
0.0
 11
-3.542276418925237
 21
-3.595659830476936
 31
0.0
  0
LINE
  5
10F
330
1F
100
AcDbEntity
  8
0
100
AcDbLine
 10
-3.542276418925237
 20
-3.595659830476936
 30
0.0
 11
-3.540931504539048
 21
-3.557374007848817
 31
0.0
  0
LINE
  5
110
330
1F
100
AcDbEntity
  8
0
100
AcDbLine
 10
-3.529723316900216
 20
-3.520740832462689
 30
0.0
 11
-3.509415675481119
 21
-3.488256794705493
 31
0.0
  0
LINE
  5
111
330
1F
100
AcDbEntity
  8
0
100
AcDbLine
 10
-3.509415675481119
 20
-3.488256794705493
 30
0.0
 11
-3.481392512497569
 21
-3.462135628088827
 31
0.0
  0
LINE
  5
112
330
1F
100
AcDbEntity
  8
0
100
AcDbLine
 10
-3.540931504539048
 20
-3.557374007848817
 30
0.0
 11
-3.529723316900216
 21
-3.520740832462689
 31
0.0
  0
LINE
  5
113
330
1F
100
AcDbEntity
  8
0
100
AcDbLine
 10
-3.283349663647379
 20
-3.450552132387247
 30
0.0
 11
-3.276261965106705
 21
-3.427386485544163
 31
0.0
  0
LINE
  5
114
330
1F
100
AcDbEntity
  8
0
100
AcDbLine
 10
-3.352450708769639
 20
-3.320526973384212
 30
0.0
 11
-3.38706778305081
 21
-3.325011865457175
 31
0.0
  0
LINE
  5
115
330
1F
100
AcDbEntity
  8
0
100
AcDbLine
 10
-3.275411484632429
 20
-3.403175757607474
 30
0.0
 11
-3.280856181063363
 21
-3.379569869675946
 31
0.0
  0
LINE
  5
116
330
1F
100
AcDbEntity
  8
0
100
AcDbLine
 10
-3.280856181063363
 20
-3.379569869675946
 30
0.0
 11
-3.292225007335556
 21
-3.358177524001511
 31
0.0
  0
LINE
  5
117
330
1F
100
AcDbEntity
  8
0
100
AcDbLine
 10
-3.308743196726421
 20
-3.340456573589392
 30
0.0
 11
-3.329285061926559
 21
-3.327614671924881
 31
0.0
  0
LINE
  5
118
330
1F
100
AcDbEntity
  8
0
100
AcDbLine
 10
-3.292225007335556
 20
-3.358177524001511
 30
0.0
 11
-3.308743196726421
 21
-3.340456573589392
 31
0.0
  0
LINE
  5
119
330
1F
100
AcDbEntity
  8
0
100
AcDbLine
 10
-3.329285061926559
 20
-3.327614671924881
 30
0.0
 11
-3.352450708769639
 21
-3.320526973384212
 31
0.0
  0
LINE
  5
11A
330
1F
100
AcDbEntity
  8
0
100
AcDbLine
 10
-3.276261965106705
 20
-3.427386485544163
 30
0.0
 11
-3.275411484632429
 21
-3.403175757607474
 31
0.0
  0
LINE
  5
11B
330
1F
100
AcDbEntity
  8
0
100
AcDbLine
 10
-3.333351913387307
 20
-3.416063212975017
 30
0.0
 11
-3.327849412320339
 21
-3.406161768095073
 31
0.0
  0
LINE
  5
11C
330
1F
100
AcDbEntity
  8
0
100
AcDbLine
 10
-3.324129762285891
 20
-3.383962275757792
 30
0.0
 11
-3.326104261615323
 21
-3.372808017328802
 31
0.0
  0
LINE
  5
11D
330
1F
100
AcDbEntity
  8
0
100
AcDbLine
 10
-3.345785574221358
 20
-3.345823500003739
 30
0.0
 11
-3.355803265154343
 21
-3.340535589539888
 31
0.0
  0
LINE
  5
11E
330
1F
100
AcDbEntity
  8
0
100
AcDbLine
 10
-3.337218487870385
 20
-3.353234381203557
 30
0.0
 11
-3.345785574221358
 21
-3.345823500003739
 31
0.0
  0
LINE
  5
11F
330
1F
100
AcDbEntity
  8
0
100
AcDbLine
 10
-3.326104261615323
 20
-3.372808017328802
 30
0.0
 11
-3.330543409860756
 21
-3.362386400776757
 31
0.0
  0
LINE
  5
120
330
1F
100
AcDbEntity
  8
0
100
AcDbLine
 10
-3.330543409860756
 20
-3.362386400776757
 30
0.0
 11
-3.337218487870385
 21
-3.353234381203557
 31
0.0
  0
LINE
  5
121
330
1F
100
AcDbEntity
  8
0
100
AcDbLine
 10
-3.327849412320339
 20
-3.406161768095073
 30
0.0
 11
-3.324721644409182
 21
-3.395274472903119
 31
0.0
  0
LINE
  5
122
330
1F
100
AcDbEntity
  8
0
100
AcDbLine
 10
-3.324721644409182
 20
-3.395274472903119
 30
0.0
 11
-3.324129762285891
 21
-3.383962275757792
 31
0.0
  0
LINE
  5
123
330
1F
100
AcDbEntity
  8
0
100
AcDbLine
 10
-3.38706778305081
 20
-3.325011865457175
 30
0.0
 11
-3.355803265154343
 21
-3.340535589539888
 31
0.0
  0
LINE
  5
124
330
1F
100
AcDbEntity
  8
0
100
AcDbLine
 10
-3.371948383228462
 20
-3.436892349356574
 30
0.0
 11
-3.360754175639515
 21
-3.435158612018341
 31
0.0
  0
LINE
  5
125
330
1F
100
AcDbEntity
  8
0
100
AcDbLine
 10
-3.410234205846569
 20
-3.435547434685136
 30
0.0
 11
-3.371948383228462
 21
-3.436892349356574
 31
0.0
  0
LINE
  5
126
330
1F
100
AcDbEntity
  8
0
100
AcDbLine
 10
-3.340945641111242
 20
-3.424468653353578
 30
0.0
 11
-3.333351913387307
 21
-3.416063212975017
 31
0.0
  0
LINE
  5
127
330
1F
100
AcDbEntity
  8
0
100
AcDbLine
 10
-3.360754175639515
 20
-3.435158612018341
 30
0.0
 11
-3.350239342290374
 21
-3.430945013990221
 31
0.0
  0
LINE
  5
128
330
1F
100
AcDbEntity
  8
0
100
AcDbLine
 10
-3.481392512497569
 20
-3.462135628088827
 30
0.0
 11
-3.447563560214431
 21
-3.44415744696717
 31
0.0
  0
LINE
  5
129
330
1F
100
AcDbEntity
  8
0
100
AcDbLine
 10
-3.447563560214431
 20
-3.44415744696717
 30
0.0
 11
-3.410234205846569
 21
-3.435547434685136
 31
0.0
  0
LINE
  5
12A
330
1F
100
AcDbEntity
  8
0
100
AcDbLine
 10
-3.350239342290374
 20
-3.430945013990221
 30
0.0
 11
-3.340945641111242
 21
-3.424468653353578
 31
0.0
  0
LINE
  5
12B
330
1F
100
AcDbEntity
  8
0
100
AcDbLine
 10
-3.599100358278456
 20
-4.209257661852742
 30
0.0
 11
-3.639251149837242
 21
-4.156932134782552
 31
0.0
  0
LINE
  5
12C
330
1F
100
AcDbEntity
  8
0
100
AcDbLine
 10
-3.420449827806309
 20
-4.283257128261732
 30
0.0
 11
-3.48584045980802
 21
-4.274648290222468
 31
0.0
  0
LINE
  5
12D
330
1F
100
AcDbEntity
  8
0
100
AcDbLine
 10
-3.546774828815082
 20
-4.249408450292669
 30
0.0
 11
-3.599100358278456
 21
-4.209257661852742
 31
0.0
  0
LINE
  5
12E
330
1F
100
AcDbEntity
  8
0
100
AcDbLine
 10
-3.48584045980802
 20
-4.274648290222468
 30
0.0
 11
-3.546774828815082
 21
-4.249408450292669
 31
0.0
  0
LINE
  5
12F
330
1F
100
AcDbEntity
  8
0
100
AcDbLine
 10
-0.603328429703319
 20
-4.494466227523624
 30
0.0
 11
-0.568711355288483
 21
-4.489981336482336
 31
0.0
  0
LINE
  5
130
330
1F
100
AcDbEntity
  8
0
100
AcDbLine
 10
-0.6264940763351681
 20
-4.487378528292561
 30
0.0
 11
-0.603328429703319
 21
-4.494466227523624
 31
0.0
  0
LINE
  5
131
330
1F
100
AcDbEntity
  8
0
100
AcDbLine
 10
-0.62242722223843
 20
-4.398929987363628
 30
0.0
 11
-0.6279297236004857
 21
-4.408831432079584
 31
0.0
  0
LINE
  5
132
330
1F
100
AcDbEntity
  8
0
100
AcDbLine
 10
-0.6749229556499663
 20
-4.435423329098197
 30
0.0
 11
-0.6635541300153185
 21
-4.45681567511145
 31
0.0
  0
LINE
  5
133
330
1F
100
AcDbEntity
  8
0
100
AcDbLine
 10
-0.6635541300153185
 20
-4.45681567511145
 30
0.0
 11
-0.647035941152589
 21
-4.474536626015852
 31
0.0
  0
LINE
  5
134
330
1F
100
AcDbEntity
  8
0
100
AcDbLine
 10
-0.5838307517765116
 20
-4.378100852132341
 30
0.0
 11
-0.5950249594171395
 21
-4.37983458913696
 31
0.0
  0
LINE
  5
135
330
1F
100
AcDbEntity
  8
0
100
AcDbLine
 10
-0.647035941152589
 20
-4.474536626015852
 30
0.0
 11
-0.6264940763351681
 21
-4.487378528292561
 31
0.0
  0
LINE
  5
136
330
1F
100
AcDbEntity
  8
0
100
AcDbLine
 10
-0.6316493742965377
 20
-4.43103092430601
 30
0.0
 11
-0.6296748752995298
 21
-4.442185182793845
 31
0.0
  0
LINE
  5
137
330
1F
100
AcDbEntity
  8
0
100
AcDbLine
 10
-0.6185606496278111
 20
-4.461758819250321
 30
0.0
 11
-0.6099935634976972
 21
-4.46916970070546
 31
0.0
  0
LINE
  5
138
330
1F
100
AcDbEntity
  8
0
100
AcDbLine
 10
-0.6310574918361112
 20
-4.419718727178322
 30
0.0
 11
-0.6316493742965377
 21
-4.43103092430601
 31
0.0
  0
LINE
  5
139
330
1F
100
AcDbEntity
  8
0
100
AcDbLine
 10
-0.605539792891848
 20
-4.384048186851712
 30
0.0
 11
-0.6148334942639884
 21
-4.390524547211379
 31
0.0
  0
LINE
  5
13A
330
1F
100
AcDbEntity
  8
0
100
AcDbLine
 10
-0.6148334942639884
 20
-4.390524547211379
 30
0.0
 11
-0.62242722223843
 21
-4.398929987363628
 31
0.0
  0
LINE
  5
13B
330
1F
100
AcDbEntity
  8
0
100
AcDbLine
 10
-0.568711355288483
 20
-4.489981336482336
 30
0.0
 11
-0.5999758727223052
 21
-4.474457611467863
 31
0.0
  0
LINE
  5
13C
330
1F
100
AcDbEntity
  8
0
100
AcDbLine
 10
-0.6252357273646836
 20
-4.452606799478188
 30
0.0
 11
-0.6185606496278111
 21
-4.461758819250321
 31
0.0
  0
LINE
  5
13D
330
1F
100
AcDbEntity
  8
0
100
AcDbLine
 10
-0.6099935634976972
 20
-4.46916970070546
 30
0.0
 11
-0.5999758727223052
 21
-4.474457611467863
 31
0.0
  0
LINE
  5
13E
330
1F
100
AcDbEntity
  8
0
100
AcDbLine
 10
-0.5950249594171395
 20
-4.37983458913696
 30
0.0
 11
-0.605539792891848
 21
-4.384048186851712
 31
0.0
  0
LINE
  5
13F
330
1F
100
AcDbEntity
  8
0
100
AcDbLine
 10
-0.6279297236004857
 20
-4.408831432079584
 30
0.0
 11
-0.6310574918361112
 21
-4.419718727178322
 31
0.0
  0
LINE
  5
140
330
1F
100
AcDbEntity
  8
0
100
AcDbLine
 10
-0.6296748752995298
 20
-4.442185182793845
 30
0.0
 11
-0.6252357273646836
 21
-4.452606799478188
 31
0.0
  0
LINE
  5
141
330
1F
100
AcDbEntity
  8
0
100
AcDbLine
 10
-2.974887624441969
 20
-3.541336074672648
 30
0.0
 11
-2.912387624441972
 21
-3.521336074672648
 31
0.0
  0
LINE
  5
142
330
1F
100
AcDbEntity
  8
0
100
AcDbLine
 10
-2.304447739211805
 20
-3.589438551630558
 30
0.0
 11
-2.311351370347496
 21
-3.590347431911994
 31
0.0
  0
LINE
  5
143
330
1F
100
AcDbEntity
  8
0
100
AcDbLine
 10
-2.912387624441972
 20
-3.521336074672648
 30
0.0
 11
-2.849887624441971
 21
-3.531736074672648
 31
0.0
  0
LINE
  5
144
330
1F
100
AcDbEntity
  8
0
100
AcDbLine
 10
-2.29801457912922
 20
-3.586773849475433
 30
0.0
 11
-2.304447739211805
 21
-3.589438551630558
 31
0.0
  0
LINE
  5
145
330
1F
100
AcDbEntity
  8
0
100
AcDbLine
 10
-2.288251370347499
 20
-3.577010640693714
 30
0.0
 11
-2.292490299328068
 21
-3.582534920494864
 31
0.0
  0
LINE
  5
146
330
1F
100
AcDbEntity
  8
0
100
AcDbLine
 10
-2.311351370347496
 20
-3.590347431911994
 30
0.0
 11
-2.318255001483192
 21
-3.589438551630558
 31
0.0
  0
LINE
  5
147
330
1F
100
AcDbEntity
  8
0
100
AcDbLine
 10
-2.974887624441969
 20
-3.722976731068694
 30
0.0
 11
-2.974887624441969
 21
-3.786723616534043
 31
0.0
  0
LINE
  5
148
330
1F
100
AcDbEntity
  8
0
100
AcDbLine
 10
-2.724887624441971
 20
-3.531736074672648
 30
0.0
 11
-2.724887624441971
 21
-3.500336074672651
 31
0.0
  0
LINE
  5
149
330
1F
100
AcDbEntity
  8
0
100
AcDbLine
 10
-2.292490299328068
 20
-3.582534920494864
 30
0.0
 11
-2.29801457912922
 21
-3.586773849475433
 31
0.0
  0
LINE
  5
14A
330
1F
100
AcDbEntity
  8
0
100
AcDbLine
 10
-2.285586668192375
 20
-3.570577480611127
 30
0.0
 11
-2.288251370347499
 21
-3.577010640693714
 31
0.0
  0
LINE
  5
14B
330
1F
100
AcDbEntity
  8
0
100
AcDbLine
 10
-2.974887624441969
 20
-3.595482960137997
 30
0.0
 11
-1.898083338566742
 21
-3.658914258874094
 31
0.0
  0
LINE
  5
14C
330
1F
100
AcDbEntity
  8
0
100
AcDbLine
 10
-2.849887624441971
 20
-3.531736074672648
 30
0.0
 11
-2.724887624441971
 21
-3.531736074672648
 31
0.0
  0
LINE
  5
14D
330
1F
100
AcDbEntity
  8
0
100
AcDbLine
 10
-2.724887624441971
 20
-3.500336074672651
 30
0.0
 11
-2.662387624441973
 21
-3.500336074672651
 31
0.0
  0
LINE
  5
14E
330
1F
100
AcDbEntity
  8
0
100
AcDbLine
 10
-2.974887624441969
 20
-3.722976731068694
 30
0.0
 11
-1.898083338566742
 21
-3.658914258874094
 31
0.0
  0
LINE
  5
14F
330
1F
100
AcDbEntity
  8
0
100
AcDbLine
 10
-2.599887624441974
 20
-3.531736074672648
 30
0.0
 11
-2.662387624441973
 21
-3.500336074672651
 31
0.0
  0
LINE
  5
150
330
1F
100
AcDbEntity
  8
0
100
AcDbLine
 10
-2.974887624441969
 20
-3.595482960137997
 30
0.0
 11
-2.974887624441969
 21
-3.541336074672648
 31
0.0
  0
LINE
  5
151
330
1F
100
AcDbEntity
  8
0
100
AcDbLine
 10
-2.334451370347499
 20
-3.550337058257153
 30
0.0
 11
-2.330212441366931
 21
-3.544812778456003
 31
0.0
  0
LINE
  5
152
330
1F
100
AcDbEntity
  8
0
100
AcDbLine
 10
-2.318255001483192
 20
-3.537909147320309
 30
0.0
 11
-2.311351370347496
 21
-3.537000267038872
 31
0.0
  0
LINE
  5
153
330
1F
100
AcDbEntity
  8
0
100
AcDbLine
 10
-2.334451370347499
 20
-3.577010640693714
 30
0.0
 11
-2.337116072502624
 21
-3.570577480611127
 31
0.0
  0
LINE
  5
154
330
1F
100
AcDbEntity
  8
0
100
AcDbLine
 10
-2.330212441366931
 20
-3.582534920494864
 30
0.0
 11
-2.334451370347499
 21
-3.577010640693714
 31
0.0
  0
LINE
  5
155
330
1F
100
AcDbEntity
  8
0
100
AcDbLine
 10
-2.292490299328068
 20
-3.544812778456003
 30
0.0
 11
-2.288251370347499
 21
-3.550337058257153
 31
0.0
  0
LINE
  5
156
330
1F
100
AcDbEntity
  8
0
100
AcDbLine
 10
-2.29801457912922
 20
-3.540573849475433
 30
0.0
 11
-2.292490299328068
 21
-3.544812778456003
 31
0.0
  0
LINE
  5
157
330
1F
100
AcDbEntity
  8
0
100
AcDbLine
 10
-2.337116072502624
 20
-3.556770218339739
 30
0.0
 11
-2.334451370347499
 21
-3.550337058257153
 31
0.0
  0
LINE
  5
158
330
1F
100
AcDbEntity
  8
0
100
AcDbLine
 10
-2.338024952784061
 20
-3.563673849475433
 30
0.0
 11
-2.337116072502624
 21
-3.556770218339739
 31
0.0
  0
LINE
  5
159
330
1F
100
AcDbEntity
  8
0
100
AcDbLine
 10
-2.324688161565781
 20
-3.586773849475433
 30
0.0
 11
-2.330212441366931
 21
-3.582534920494864
 31
0.0
  0
LINE
  5
15A
330
1F
100
AcDbEntity
  8
0
100
AcDbLine
 10
-2.318255001483192
 20
-3.589438551630558
 30
0.0
 11
-2.324688161565781
 21
-3.586773849475433
 31
0.0
  0
LINE
  5
15B
330
1F
100
AcDbEntity
  8
0
100
AcDbLine
 10
-2.599887624441974
 20
-3.531736074672648
 30
0.0
 11
-2.383520153996204
 21
-3.531736074672648
 31
0.0
  0
LINE
  5
15C
330
1F
100
AcDbEntity
  8
0
100
AcDbLine
 10
-2.304447739211805
 20
-3.537909147320309
 30
0.0
 11
-2.29801457912922
 21
-3.540573849475433
 31
0.0
  0
LINE
  5
15D
330
1F
100
AcDbEntity
  8
0
100
AcDbLine
 10
-2.337116072502624
 20
-3.570577480611127
 30
0.0
 11
-2.338024952784061
 21
-3.563673849475433
 31
0.0
  0
LINE
  5
15E
330
1F
100
AcDbEntity
  8
0
100
AcDbLine
 10
-2.284677787910937
 20
-3.563673849475433
 30
0.0
 11
-2.285586668192375
 21
-3.570577480611127
 31
0.0
  0
LINE
  5
15F
330
1F
100
AcDbEntity
  8
0
100
AcDbLine
 10
-2.285586668192375
 20
-3.556770218339739
 30
0.0
 11
-2.284677787910937
 21
-3.563673849475433
 31
0.0
  0
LINE
  5
160
330
1F
100
AcDbEntity
  8
0
100
AcDbLine
 10
-2.288251370347499
 20
-3.550337058257153
 30
0.0
 11
-2.285586668192375
 21
-3.556770218339739
 31
0.0
  0
LINE
  5
161
330
1F
100
AcDbEntity
  8
0
100
AcDbLine
 10
-2.324688161565781
 20
-3.540573849475433
 30
0.0
 11
-2.318255001483192
 21
-3.537909147320309
 31
0.0
  0
LINE
  5
162
330
1F
100
AcDbEntity
  8
0
100
AcDbLine
 10
-2.311351370347496
 20
-3.537000267038872
 30
0.0
 11
-2.304447739211805
 21
-3.537909147320309
 31
0.0
  0
LINE
  5
163
330
1F
100
AcDbEntity
  8
0
100
AcDbLine
 10
-2.330212441366931
 20
-3.544812778456003
 30
0.0
 11
-2.324688161565781
 21
-3.540573849475433
 31
0.0
  0
LINE
  5
164
330
1F
100
AcDbEntity
  8
0
100
AcDbLine
 10
-2.311351370347496
 20
-3.502636074672648
 30
0.0
 11
-2.239182586698796
 21
-3.531736074672648
 31
0.0
  0
LINE
  5
165
330
1F
100
AcDbEntity
  8
0
100
AcDbLine
 10
-0.5353292819749007
 20
-3.786723616534043
 30
0.0
 11
-0.5200718992661009
 21
-3.788732289074302
 31
0.0
  0
LINE
  5
166
330
1F
100
AcDbEntity
  8
0
100
AcDbLine
 10
-0.5200718992661009
 20
-3.788732289074302
 30
0.0
 11
-0.5058542819748992
 21
-3.79462141898095
 31
0.0
  0
LINE
  5
167
330
1F
100
AcDbEntity
  8
0
100
AcDbLine
 10
-0.5058542819748992
 20
-3.79462141898095
 30
0.0
 11
-0.493645337223954
 21
-3.803989671783096
 31
0.0
  0
LINE
  5
168
330
1F
100
AcDbEntity
  8
0
100
AcDbLine
 10
-0.493645337223954
 20
-3.803989671783096
 30
0.0
 11
-0.4842770844218065
 21
-3.816198616534043
 31
0.0
  0
LINE
  5
169
330
1F
100
AcDbEntity
  8
0
100
AcDbLine
 10
-0.4842770844218065
 20
-3.816198616534043
 30
0.0
 11
-0.4783879545151577
 21
-3.830416233825249
 31
0.0
  0
LINE
  5
16A
330
1F
100
AcDbEntity
  8
0
100
AcDbLine
 10
-0.4783879545151577
 20
-3.830416233825249
 30
0.0
 11
-0.4763792819748942
 21
-3.845673616534043
 31
0.0
  0
LINE
  5
16B
330
1F
100
AcDbEntity
  8
0
100
AcDbLine
 10
-0.4763792819748942
 20
-3.845673616534043
 30
0.0
 11
-0.4783879545151577
 21
-3.860930999242836
 31
0.0
  0
LINE
  5
16C
330
1F
100
AcDbEntity
  8
0
100
AcDbLine
 10
-0.4783879545151577
 20
-3.860930999242836
 30
0.0
 11
-0.4842770844218065
 21
-3.875148616534043
 31
0.0
  0
LINE
  5
16D
330
1F
100
AcDbEntity
  8
0
100
AcDbLine
 10
-0.4842770844218065
 20
-3.875148616534043
 30
0.0
 11
-0.493645337223954
 21
-3.88735756128499
 31
0.0
  0
LINE
  5
16E
330
1F
100
AcDbEntity
  8
0
100
AcDbLine
 10
-0.493645337223954
 20
-3.88735756128499
 30
0.0
 11
-0.5058542819748992
 21
-3.896725814087135
 31
0.0
  0
LINE
  5
16F
330
1F
100
AcDbEntity
  8
0
100
AcDbLine
 10
-0.5058542819748992
 20
-3.896725814087135
 30
0.0
 11
-0.5200718992661009
 21
-3.902614943993783
 31
0.0
  0
LINE
  5
170
330
1F
100
AcDbEntity
  8
0
100
AcDbLine
 10
-0.5732850949391817
 20
-3.909620594108751
 30
0.0
 11
-0.6086542819748977
 21
-3.924270991069055
 31
0.0
  0
LINE
  5
171
330
1F
100
AcDbEntity
  8
0
100
AcDbLine
 10
-0.6086542819748977
 20
-3.924270991069055
 30
0.0
 11
-0.6390264914359007
 21
-3.947576407073036
 31
0.0
  0
LINE
  5
172
330
1F
100
AcDbEntity
  8
0
100
AcDbLine
 10
-0.6390264914359007
 20
-3.947576407073036
 30
0.0
 11
-0.6623319074398863
 21
-3.977948616534043
 31
0.0
  0
LINE
  5
173
330
1F
100
AcDbEntity
  8
0
100
AcDbLine
 10
-0.6623319074398863
 20
-3.977948616534043
 30
0.0
 11
-0.6769823044001924
 21
-4.013317803569758
 31
0.0
  0
LINE
  5
174
330
1F
100
AcDbEntity
  8
0
100
AcDbLine
 10
-0.6769823044001924
 20
-4.013317803569758
 30
0.0
 11
-0.6819792819749124
 21
-4.051273616534096
 31
0.0
  0
LINE
  5
175
330
1F
100
AcDbEntity
  8
0
100
AcDbLine
 10
-0.6819792819749124
 20
-4.051273616534096
 30
0.0
 11
-0.6794582826331328
 21
-4.086979940872763
 31
0.0
  0
LINE
  5
176
330
1F
100
AcDbEntity
  8
0
100
AcDbLine
 10
-0.6794582826331328
 20
-4.086979940872763
 30
0.0
 11
-0.6677817074913839
 21
-4.120817119070986
 31
0.0
  0
LINE
  5
177
330
1F
100
AcDbEntity
  8
0
100
AcDbLine
 10
-0.6677817074913839
 20
-4.120817119070986
 30
0.0
 11
-0.6477452958491354
 21
-4.150479203353156
 31
0.0
  0
LINE
  5
178
330
1F
100
AcDbEntity
  8
0
100
AcDbLine
 10
-0.6477452958491354
 20
-4.150479203353156
 30
0.0
 11
-0.6207144960480675
 21
-4.173944771694336
 31
0.0
  0
LINE
  5
179
330
1F
100
AcDbEntity
  8
0
100
AcDbLine
 10
-0.6207144960480675
 20
-4.173944771694336
 30
0.0
 11
-0.588531412424119
 21
-4.189614684390762
 31
0.0
  0
LINE
  5
17A
330
1F
100
AcDbEntity
  8
0
100
AcDbLine
 10
-0.588531412424119
 20
-4.189614684390762
 30
0.0
 11
-0.5533892689412077
 21
-4.196421062787922
 31
0.0
  0
LINE
  5
17B
330
1F
100
AcDbEntity
  8
0
100
AcDbLine
 10
-0.5533892689412077
 20
-4.196421062787922
 30
0.0
 11
-0.5388358509252718
 21
-4.200873787866066
 31
0.0
  0
LINE
  5
17C
330
1F
100
AcDbEntity
  8
0
100
AcDbLine
 10
-0.5388358509252718
 20
-4.200873787866066
 30
0.0
 11
-0.5259307786557641
 21
-4.208941491770346
 31
0.0
  0
LINE
  5
17D
330
1F
100
AcDbEntity
  8
0
100
AcDbLine
 10
-0.5259307786557641
 20
-4.208941491770346
 30
0.0
 11
-0.5155535114811705
 21
-4.220074373812125
 31
0.0
  0
LINE
  5
17E
330
1F
100
AcDbEntity
  8
0
100
AcDbLine
 10
-0.5155535114811705
 20
-4.220074373812125
 30
0.0
 11
-0.5084112430102237
 21
-4.233513746478192
 31
0.0
  0
LINE
  5
17F
330
1F
100
AcDbEntity
  8
0
100
AcDbLine
 10
-0.5084112430102237
 20
-4.233513746478192
 30
0.0
 11
-0.504990707036066
 21
-4.248343738731
 31
0.0
  0
LINE
  5
180
330
1F
100
AcDbEntity
  8
0
100
AcDbLine
 10
-0.504990707036066
 20
-4.248343738731
 30
0.0
 11
-0.5055250074326181
 21
-4.263553711106217
 31
0.0
  0
LINE
  5
181
330
1F
100
AcDbEntity
  8
0
100
AcDbLine
 10
-0.5055250074326181
 20
-4.263553711106217
 30
0.0
 11
-0.5099777325108383
 21
-4.278107129122157
 31
0.0
  0
LINE
  5
182
330
1F
100
AcDbEntity
  8
0
100
AcDbLine
 10
-0.5099777325108383
 20
-4.278107129122157
 30
0.0
 11
-0.5180454364151124
 21
-4.291012201391674
 31
0.0
  0
LINE
  5
183
330
1F
100
AcDbEntity
  8
0
100
AcDbLine
 10
-0.5180454364151124
 20
-4.291012201391674
 30
0.0
 11
-0.5291783184568906
 21
-4.301389468566257
 31
0.0
  0
LINE
  5
184
330
1F
100
AcDbEntity
  8
0
100
AcDbLine
 10
-0.5291783184568906
 20
-4.301389468566257
 30
0.0
 11
-0.5426176911229681
 21
-4.308531737037199
 31
0.0
  0
LINE
  5
185
330
1F
100
AcDbEntity
  8
0
100
AcDbLine
 10
-0.5426176911229681
 20
-4.308531737037199
 30
0.0
 11
-0.5574476833757713
 21
-4.311952273011358
 31
0.0
  0
LINE
  5
186
330
1F
100
AcDbEntity
  8
0
100
AcDbLine
 10
-0.5968683836623412
 20
-4.310567491418987
 30
0.0
 11
-0.6204742717561458
 21
-4.316012187146422
 31
0.0
  0
LINE
  5
187
330
1F
100
AcDbEntity
  8
0
100
AcDbLine
 10
-0.6204742717561458
 20
-4.316012187146422
 30
0.0
 11
-0.6418666177693892
 21
-4.327381012781052
 31
0.0
  0
LINE
  5
188
330
1F
100
AcDbEntity
  8
0
100
AcDbLine
 10
-0.6418666177693892
 20
-4.327381012781052
 30
0.0
 11
-0.6595875686738011
 21
-4.343899201643785
 31
0.0
  0
LINE
  5
189
330
1F
100
AcDbEntity
  8
0
100
AcDbLine
 10
-0.6595875686738011
 20
-4.343899201643785
 30
0.0
 11
-0.6724294709505059
 21
-4.364441066461207
 31
0.0
  0
LINE
  5
18A
330
1F
100
AcDbEntity
  8
0
100
AcDbLine
 10
-0.6724294709505059
 20
-4.364441066461207
 30
0.0
 11
-0.6795171701815739
 21
-4.387606713093059
 31
0.0
  0
LINE
  5
18B
330
1F
100
AcDbEntity
  8
0
100
AcDbLine
 10
-0.6795171701815739
 20
-4.387606713093059
 30
0.0
 11
-0.6803676513773929
 21
-4.411817441004403
 31
0.0
  0
LINE
  5
18C
330
1F
100
AcDbEntity
  8
0
100
AcDbLine
 10
-0.6803676513773929
 20
-4.411817441004403
 30
0.0
 11
-0.6749229556499663
 21
-4.435423329098197
 31
0.0
  0
LINE
  5
18D
330
1F
100
AcDbEntity
  8
0
100
AcDbLine
 10
-0.5455449291984968
 20
-4.379445767944793
 30
0.0
 11
-0.5838307517765116
 21
-4.378100852132341
 31
0.0
  0
LINE
  5
18E
330
1F
100
AcDbEntity
  8
0
100
AcDbLine
 10
-0.5082155745740287
 20
-4.370835756775266
 30
0.0
 11
-0.5455449291984968
 21
-4.379445767944793
 31
0.0
  0
LINE
  5
18F
330
1F
100
AcDbEntity
  8
0
100
AcDbLine
 10
-0.4743866217550994
 20
-4.352857576661793
 30
0.0
 11
-0.5082155745740287
 21
-4.370835756775266
 31
0.0
  0
LINE
  5
190
330
1F
100
AcDbEntity
  8
0
100
AcDbLine
 10
-0.446363457993074
 20
-4.326736410880287
 30
0.0
 11
-0.4743866217550994
 21
-4.352857576661793
 31
0.0
  0
LINE
  5
191
330
1F
100
AcDbEntity
  8
0
100
AcDbLine
 10
-0.426055815605872
 20
-4.294252373728309
 30
0.0
 11
-0.446363457993074
 21
-4.326736410880287
 31
0.0
  0
LINE
  5
192
330
1F
100
AcDbEntity
  8
0
100
AcDbLine
 10
-0.414847626875273
 20
-4.257619198676213
 30
0.0
 11
-0.426055815605872
 21
-4.294252373728309
 31
0.0
  0
LINE
  5
193
330
1F
100
AcDbEntity
  8
0
100
AcDbLine
 10
-0.4135027113480709
 20
-4.219333376088175
 30
0.0
 11
-0.414847626875273
 21
-4.257619198676213
 31
0.0
  0
LINE
  5
194
330
1F
100
AcDbEntity
  8
0
100
AcDbLine
 10
-0.4221127227957147
 20
-4.18200402152786
 30
0.0
 11
-0.4135027113480709
 21
-4.219333376088175
 31
0.0
  0
LINE
  5
195
330
1F
100
AcDbEntity
  8
0
100
AcDbLine
 10
-0.4400909031612392
 20
-4.148175068842892
 30
0.0
 11
-0.4221127227957147
 21
-4.18200402152786
 31
0.0
  0
LINE
  5
196
330
1F
100
AcDbEntity
  8
0
100
AcDbLine
 10
-0.4662120691515361
 20
-4.120151905275471
 30
0.0
 11
-0.4400909031612392
 21
-4.148175068842892
 31
0.0
  0
LINE
  5
197
330
1F
100
AcDbEntity
  8
0
100
AcDbLine
 10
-0.4986961064548239
 20
-4.099844263130312
 30
0.0
 11
-0.4662120691515361
 21
-4.120151905275471
 31
0.0
  0
LINE
  5
198
330
1F
100
AcDbEntity
  8
0
100
AcDbLine
 10
-0.535329281590522
 20
-4.088636074672799
 30
0.0
 11
-0.4986961064548239
 21
-4.099844263130312
 31
0.0
  0
LINE
  5
199
330
1F
100
AcDbEntity
  8
0
100
AcDbLine
 10
-0.5420068129982112
 20
-4.08775696108227
 30
0.0
 11
-0.535329281590522
 21
-4.088636074672799
 31
0.0
  0
LINE
  5
19A
330
1F
100
AcDbEntity
  8
0
100
AcDbLine
 10
-0.5482292816975245
 20
-4.085179530250657
 30
0.0
 11
-0.5420068129982112
 21
-4.08775696108227
 31
0.0
  0
LINE
  5
19B
330
1F
100
AcDbEntity
  8
0
100
AcDbLine
 10
-0.5535726367257019
 20
-4.081079429831326
 30
0.0
 11
-0.5482292816975245
 21
-4.085179530250657
 31
0.0
  0
LINE
  5
19C
330
1F
100
AcDbEntity
  8
0
100
AcDbLine
 10
-0.5576727372644625
 20
-4.075736074894791
 30
0.0
 11
-0.5535726367257019
 21
-4.081079429831326
 31
0.0
  0
LINE
  5
19D
330
1F
100
AcDbEntity
  8
0
100
AcDbLine
 10
-0.5602501682351835
 20
-4.069513606253078
 30
0.0
 11
-0.5576727372644625
 21
-4.075736074894791
 31
0.0
  0
LINE
  5
19E
330
1F
100
AcDbEntity
  8
0
100
AcDbLine
 10
-0.561129281974972
 20
-4.062836074865037
 30
0.0
 11
-0.5602501682351835
 21
-4.069513606253078
 31
0.0
  0
LINE
  5
19F
330
1F
100
AcDbEntity
  8
0
100
AcDbLine
 10
-0.5602501683346843
 20
-4.056158543463896
 30
0.0
 11
-0.561129281974972
 21
-4.062836074865037
 31
0.0
  0
LINE
  5
1A0
330
1F
100
AcDbEntity
  8
0
100
AcDbLine
 10
-0.557672737456707
 20
-4.049936074783795
 30
0.0
 11
-0.5602501683346843
 21
-4.056158543463896
 31
0.0
  0
LINE
  5
1A1
330
1F
100
AcDbEntity
  8
0
100
AcDbLine
 10
-0.5535726369975627
 20
-4.044592719786162
 30
0.0
 11
-0.557672737456707
 21
-4.049936074783795
 31
0.0
  0
LINE
  5
1A2
330
1F
100
AcDbEntity
  8
0
100
AcDbLine
 10
-0.5482292820304777
 20
-4.040492619287216
 30
0.0
 11
-0.5535726369975627
 21
-4.044592719786162
 31
0.0
  0
LINE
  5
1A3
330
1F
100
AcDbEntity
  8
0
100
AcDbLine
 10
-0.5420068133695728
 20
-4.037915188362822
 30
0.0
 11
-0.5482292820304777
 21
-4.040492619287216
 31
0.0
  0
LINE
  5
1A4
330
1F
100
AcDbEntity
  8
0
100
AcDbLine
 10
-0.4090042819748958
 20
-4.003187392938787
 30
0.0
 11
-0.4699386502297442
 21
-4.028427234684582
 31
0.0
  0
LINE
  5
1A5
330
1F
100
AcDbEntity
  8
0
100
AcDbLine
 10
-0.3566787537081146
 20
-3.96303660293943
 30
0.0
 11
-0.4090042819748958
 21
-4.003187392938787
 31
0.0
  0
LINE
  5
1A6
330
1F
100
AcDbEntity
  8
0
100
AcDbLine
 10
-0.3165279637087592
 20
-3.910711074672649
 30
0.0
 11
-0.3566787537081146
 21
-3.96303660293943
 31
0.0
  0
LINE
  5
1A7
330
1F
100
AcDbEntity
  8
0
100
AcDbLine
 10
-0.2912881219629653
 20
-3.849776706417801
 30
0.0
 11
-0.3165279637087592
 21
-3.910711074672649
 31
0.0
  0
LINE
  5
1A8
330
1F
100
AcDbEntity
  8
0
100
AcDbLine
 10
-0.282679281974898
 20
-3.784386074672649
 30
0.0
 11
-0.2912881219629653
 21
-3.849776706417801
 31
0.0
  0
LINE
  5
1A9
330
1F
100
AcDbEntity
  8
0
100
AcDbLine
 10
-0.2912881219629653
 20
-3.718995442927497
 30
0.0
 11
-0.282679281974898
 21
-3.784386074672649
 31
0.0
  0
LINE
  5
1AA
330
1F
100
AcDbEntity
  8
0
100
AcDbLine
 10
-0.3165279637087592
 20
-3.658061074672649
 30
0.0
 11
-0.2912881219629653
 21
-3.718995442927497
 31
0.0
  0
LINE
  5
1AB
330
1F
100
AcDbEntity
  8
0
100
AcDbLine
 10
-0.3566787537081146
 20
-3.605735546405867
 30
0.0
 11
-0.3165279637087592
 21
-3.658061074672649
 31
0.0
  0
LINE
  5
1AC
330
1F
100
AcDbEntity
  8
0
100
AcDbLine
 10
-0.4090042819748994
 20
-3.56558475640651
 30
0.0
 11
-0.3566787537081146
 21
-3.605735546405867
 31
0.0
  0
LINE
  5
1AD
330
1F
100
AcDbEntity
  8
0
100
AcDbLine
 10
-0.4699386502297442
 20
-3.540344914660715
 30
0.0
 11
-0.4090042819748994
 21
-3.56558475640651
 31
0.0
  0
LINE
  5
1AE
330
1F
100
AcDbEntity
  8
0
100
AcDbLine
 10
-0.5353292819749007
 20
-3.531736074672648
 30
0.0
 11
-0.4699386502297442
 21
-3.540344914660715
 31
0.0
  0
LINE
  5
1AF
330
1F
100
AcDbEntity
  8
0
100
AcDbLine
 10
-2.383520153996204
 20
-3.531736074672648
 30
0.0
 11
-2.311351370347496
 21
-3.502636074672648
 31
0.0
  0
LINE
  5
1B0
330
1F
100
AcDbEntity
  8
0
100
AcDbLine
 10
-0.8579291213321965
 20
0.1009401855033474
 30
0.0
 11
0.5314977355939572
 21
0.100940185503347
 31
0.0
  0
LINE
  5
1B1
330
1F
100
AcDbEntity
  8
0
100
AcDbLine
 10
0.4232445601209025
 20
0.9134401855033489
 30
0.0
 11
0.1072055396817811
 21
0.913440185503352
 31
0.0
  0
LINE
  5
1B2
330
1F
100
AcDbEntity
  8
0
100
AcDbLine
 10
-0.7562291213321962
 20
0.913440185503349
 30
0.0
 11
-0.7562291213321964
 21
0.7103151855033486
 31
0.0
  0
LINE
  5
1B3
330
1F
100
AcDbEntity
  8
0
100
AcDbLine
 10
0.4232445601209023
 20
0.7103151855033489
 30
0.0
 11
0.4232445601209025
 21
0.9134401855033489
 31
0.0
  0
LINE
  5
1B4
330
1F
100
AcDbEntity
  8
0
100
AcDbLine
 10
0.4232445601209016
 20
0.3040651855033476
 30
0.0
 11
0.4232445601209023
 21
0.5071901855033476
 31
0.0
  0
LINE
  5
1B5
330
1F
100
AcDbEntity
  8
0
100
AcDbLine
 10
-0.7562291213321967
 20
0.5071901855033483
 30
0.0
 11
-0.7562291213321966
 21
0.3040651855033478
 31
0.0
  0
LINE
  5
1B6
330
1F
100
AcDbEntity
  8
0
100
AcDbLine
 10
0.5314977355939572
 20
0.100940185503347
 30
0.0
 11
0.5314977355939567
 21
0.3040651855033479
 31
0.0
  0
LINE
  5
1B7
330
1F
100
AcDbEntity
  8
0
100
AcDbLine
 10
0.4232445601209016
 20
0.3040651855033476
 30
0.0
 11
0.5314977355939567
 21
0.3040651855033479
 31
0.0
  0
LINE
  5
1B8
330
1F
100
AcDbEntity
  8
0
100
AcDbLine
 10
0.5314977355939572
 20
0.5071901855033479
 30
0.0
 11
0.5314977355939574
 21
0.7103151855033488
 31
0.0
  0
LINE
  5
1B9
330
1F
100
AcDbEntity
  8
0
100
AcDbLine
 10
0.4232445601209023
 20
0.7103151855033489
 30
0.0
 11
0.5314977355939574
 21
0.7103151855033488
 31
0.0
  0
LINE
  5
1BA
330
1F
100
AcDbEntity
  8
0
100
AcDbLine
 10
0.4232445601209023
 20
0.5071901855033476
 30
0.0
 11
0.5314977355939572
 21
0.5071901855033479
 31
0.0
  0
LINE
  5
1BB
330
1F
100
AcDbEntity
  8
0
100
AcDbLine
 10
-0.8644822968052523
 20
0.7103151855033488
 30
0.0
 11
-0.8644822968052526
 21
0.5071901855033483
 31
0.0
  0
LINE
  5
1BC
330
1F
100
AcDbEntity
  8
0
100
AcDbLine
 10
-0.7562291213321964
 20
0.7103151855033486
 30
0.0
 11
-0.8644822968052523
 21
0.7103151855033488
 31
0.0
  0
LINE
  5
1BD
330
1F
100
AcDbEntity
  8
0
100
AcDbLine
 10
-0.7562291213321967
 20
0.5071901855033483
 30
0.0
 11
-0.8644822968052526
 21
0.5071901855033483
 31
0.0
  0
LINE
  5
1BE
330
1F
100
AcDbEntity
  8
0
100
AcDbLine
 10
-0.8579291213321966
 20
0.3040651855033479
 30
0.0
 11
-0.8579291213321965
 21
0.1009401855033474
 31
0.0
  0
LINE
  5
1BF
330
1F
100
AcDbEntity
  8
0
100
AcDbLine
 10
-0.7562291213321966
 20
0.3040651855033478
 30
0.0
 11
-0.8579291213321966
 21
0.3040651855033479
 31
0.0
  0
LINE
  5
1C0
330
1F
100
AcDbEntity
  8
0
100
AcDbLine
 10
0.1072055396817811
 20
0.913440185503352
 30
0.0
 11
0.107205539681781
 21
0.788440185503352
 31
0.0
  0
LINE
  5
1C1
330
1F
100
AcDbEntity
  8
0
100
AcDbLine
 10
0.107205539681781
 20
0.788440185503352
 30
0.0
 11
-0.4401901008930756
 21
0.7884401855033532
 31
0.0
  0
LINE
  5
1C2
330
1F
100
AcDbEntity
  8
0
100
AcDbLine
 10
-0.4401901008930756
 20
0.7884401855033532
 30
0.0
 11
-0.4401901008930754
 21
0.9134401855033532
 31
0.0
  0
LINE
  5
1C3
330
1F
100
AcDbEntity
  8
0
100
AcDbLine
 10
-0.4401901008930754
 20
0.9134401855033532
 30
0.0
 11
-0.7562291213321962
 21
0.913440185503349
 31
0.0
  0
LINE
  5
1C4
330
1F
100
AcDbEntity
  8
0
100
AcDbLine
 10
-2.624968194248504
 20
5.237459079535509
 30
0.0
 11
-3.660104308404196
 21
5.237459079535514
 31
0.0
  0
LINE
  5
1C5
330
1F
100
AcDbEntity
  8
0
100
AcDbLine
 10
-3.768357483877263
 20
2.487459079535514
 30
0.0
 11
-3.3827404225599
 21
2.487459079535511
 31
0.0
  0
LINE
  5
1C6
330
1F
100
AcDbEntity
  8
0
100
AcDbLine
 10
-3.660104308404201
 20
3.862459079535514
 30
0.0
 11
-3.660104308404204
 21
3.174959079535514
 31
0.0
  0
LINE
  5
1C7
330
1F
100
AcDbEntity
  8
0
100
AcDbLine
 10
-2.624968194248511
 20
3.17495907953551
 30
0.0
 11
-2.624968194248508
 21
3.86245907953551
 31
0.0
  0
LINE
  5
1C8
330
1F
100
AcDbEntity
  8
0
100
AcDbLine
 10
-2.624968194248506
 20
4.549959079535509
 30
0.0
 11
-2.624968194248504
 21
5.237459079535509
 31
0.0
  0
LINE
  5
1C9
330
1F
100
AcDbEntity
  8
0
100
AcDbLine
 10
-3.660104308404196
 20
5.237459079535514
 30
0.0
 11
-3.660104308404199
 21
4.549959079535514
 31
0.0
  0
LINE
  5
1CA
330
1F
100
AcDbEntity
  8
0
100
AcDbLine
 10
-3.76835748387726
 20
3.174959079535514
 30
0.0
 11
-3.768357483877263
 21
2.487459079535514
 31
0.0
  0
LINE
  5
1CB
330
1F
100
AcDbEntity
  8
0
100
AcDbLine
 10
-3.660104308404204
 20
3.174959079535514
 30
0.0
 11
-3.76835748387726
 21
3.174959079535514
 31
0.0
  0
LINE
  5
1CC
330
1F
100
AcDbEntity
  8
0
100
AcDbLine
 10
-2.516715018775461
 20
2.487459079535509
 30
0.0
 11
-2.516715018775458
 21
3.174959079535509
 31
0.0
  0
LINE
  5
1CD
330
1F
100
AcDbEntity
  8
0
100
AcDbLine
 10
-2.624968194248511
 20
3.17495907953551
 30
0.0
 11
-2.516715018775458
 21
3.174959079535509
 31
0.0
  0
LINE
  5
1CE
330
1F
100
AcDbEntity
  8
0
100
AcDbLine
 10
-2.516715018775455
 20
3.86245907953551
 30
0.0
 11
-2.516715018775452
 21
4.549959079535509
 31
0.0
  0
LINE
  5
1CF
330
1F
100
AcDbEntity
  8
0
100
AcDbLine
 10
-2.624968194248506
 20
4.549959079535509
 30
0.0
 11
-2.516715018775452
 21
4.549959079535509
 31
0.0
  0
LINE
  5
1D0
330
1F
100
AcDbEntity
  8
0
100
AcDbLine
 10
-2.624968194248508
 20
3.86245907953551
 30
0.0
 11
-2.516715018775455
 21
3.86245907953551
 31
0.0
  0
LINE
  5
1D1
330
1F
100
AcDbEntity
  8
0
100
AcDbLine
 10
-3.768357483877252
 20
4.549959079535514
 30
0.0
 11
-3.768357483877254
 21
3.862459079535514
 31
0.0
  0
LINE
  5
1D2
330
1F
100
AcDbEntity
  8
0
100
AcDbLine
 10
-3.660104308404199
 20
4.549959079535514
 30
0.0
 11
-3.768357483877252
 21
4.549959079535514
 31
0.0
  0
LINE
  5
1D3
330
1F
100
AcDbEntity
  8
0
100
AcDbLine
 10
-3.660104308404201
 20
3.862459079535514
 30
0.0
 11
-3.768357483877254
 21
3.862459079535514
 31
0.0
  0
LINE
  5
1D4
330
1F
100
AcDbEntity
  8
0
100
AcDbLine
 10
-3.3827404225599
 20
2.487459079535511
 30
0.0
 11
-3.3827404225599
 21
2.607459079535511
 31
0.0
  0
LINE
  5
1D5
330
1F
100
AcDbEntity
  8
0
100
AcDbLine
 10
-3.3827404225599
 20
2.607459079535511
 30
0.0
 11
-2.902332080092826
 21
2.607459079535509
 31
0.0
  0
LINE
  5
1D6
330
1F
100
AcDbEntity
  8
0
100
AcDbLine
 10
-2.902332080092826
 20
2.607459079535509
 30
0.0
 11
-2.902332080092827
 21
2.487459079535509
 31
0.0
  0
LINE
  5
1D7
330
1F
100
AcDbEntity
  8
0
100
AcDbLine
 10
-2.902332080092827
 20
2.487459079535509
 30
0.0
 11
-2.516715018775461
 21
2.487459079535509
 31
0.0
  0
LINE
  5
1D8
330
1F
100
AcDbEntity
  8
0
100
AcDbLine
 10
-3.66799482295521
 20
-4.708003723332912
 30
0.0
 11
-3.66799482295521
 21
-4.644256837867562
 31
0.0
  0
LINE
  5
1D9
330
1F
100
AcDbEntity
  8
0
100
AcDbLine
 10
-3.667994822955213
 20
-4.462616181471517
 30
0.0
 11
-3.667994822955213
 21
-4.516763066936866
 31
0.0
  0
LINE
  5
1DA
330
1F
100
AcDbEntity
  8
0
100
AcDbLine
 10
-3.667994822955213
 20
-4.462616181471517
 30
0.0
 11
-3.605494822955211
 21
-4.442616181471517
 31
0.0
  0
LINE
  5
1DB
330
1F
100
AcDbEntity
  8
0
100
AcDbLine
 10
-3.54299482295521
 20
-4.453016181471517
 30
0.0
 11
-3.417994822955214
 21
-4.453016181471517
 31
0.0
  0
LINE
  5
1DC
330
1F
100
AcDbEntity
  8
0
100
AcDbLine
 10
-3.001017737338445
 20
-4.580509952402214
 30
0.0
 11
-3.667994822955213
 21
-4.516763066936866
 31
0.0
  0
LINE
  5
1DD
330
1F
100
AcDbEntity
  8
0
100
AcDbLine
 10
-3.001017737338445
 20
-4.580509952402214
 30
0.0
 11
-3.66799482295521
 21
-4.644256837867562
 31
0.0
  0
LINE
  5
1DE
330
1F
100
AcDbEntity
  8
0
100
AcDbLine
 10
-3.292994822955215
 20
-4.453016181471517
 30
0.0
 11
-3.076627352509447
 21
-4.453016181471517
 31
0.0
  0
LINE
  5
1DF
330
1F
100
AcDbEntity
  8
0
100
AcDbLine
 10
-3.605494822955211
 20
-4.442616181471517
 30
0.0
 11
-3.54299482295521
 21
-4.453016181471517
 31
0.0
  0
LINE
  5
1E0
330
1F
100
AcDbEntity
  8
0
100
AcDbLine
 10
-3.417994822955214
 20
-4.42161618147152
 30
0.0
 11
-3.355494822955216
 21
-4.42161618147152
 31
0.0
  0
LINE
  5
1E1
330
1F
100
AcDbEntity
  8
0
100
AcDbLine
 10
-3.292994822955215
 20
-4.453016181471517
 30
0.0
 11
-3.355494822955216
 21
-4.42161618147152
 31
0.0
  0
LINE
  5
1E2
330
1F
100
AcDbEntity
  8
0
100
AcDbLine
 10
-3.417994822955214
 20
-4.453016181471517
 30
0.0
 11
-3.417994822955214
 21
-4.42161618147152
 31
0.0
  0
LINE
  5
1E3
330
1F
100
AcDbEntity
  8
0
100
AcDbLine
 10
-2.977784986424179
 20
-4.484953956274301
 30
0.0
 11
-2.978693866705619
 21
-4.491857587409996
 31
0.0
  0
LINE
  5
1E4
330
1F
100
AcDbEntity
  8
0
100
AcDbLine
 10
-2.978693866705619
 20
-4.491857587409996
 30
0.0
 11
-2.981358568860738
 21
-4.498290747492582
 31
0.0
  0
LINE
  5
1E5
330
1F
100
AcDbEntity
  8
0
100
AcDbLine
 10
-2.981358568860738
 20
-4.498290747492582
 30
0.0
 11
-2.985597497841312
 21
-4.503815027293732
 31
0.0
  0
LINE
  5
1E6
330
1F
100
AcDbEntity
  8
0
100
AcDbLine
 10
-2.985597497841312
 20
-4.503815027293732
 30
0.0
 11
-2.991121777642461
 21
-4.508053956274302
 31
0.0
  0
LINE
  5
1E7
330
1F
100
AcDbEntity
  8
0
100
AcDbLine
 10
-2.991121777642461
 20
-4.508053956274302
 30
0.0
 11
-2.997554937725048
 21
-4.510718658429426
 31
0.0
  0
LINE
  5
1E8
330
1F
100
AcDbEntity
  8
0
100
AcDbLine
 10
-2.997554937725048
 20
-4.510718658429426
 30
0.0
 11
-3.004458568860739
 21
-4.511627538710862
 31
0.0
  0
LINE
  5
1E9
330
1F
100
AcDbEntity
  8
0
100
AcDbLine
 10
-3.004458568860739
 20
-4.511627538710862
 30
0.0
 11
-3.011362199996438
 21
-4.510718658429426
 31
0.0
  0
LINE
  5
1EA
330
1F
100
AcDbEntity
  8
0
100
AcDbLine
 10
-3.011362199996438
 20
-4.510718658429426
 30
0.0
 11
-3.017795360079021
 21
-4.508053956274302
 31
0.0
  0
LINE
  5
1EB
330
1F
100
AcDbEntity
  8
0
100
AcDbLine
 10
-3.017795360079021
 20
-4.508053956274302
 30
0.0
 11
-3.023319639880173
 21
-4.503815027293732
 31
0.0
  0
LINE
  5
1EC
330
1F
100
AcDbEntity
  8
0
100
AcDbLine
 10
-3.023319639880173
 20
-4.503815027293732
 30
0.0
 11
-3.027558568860741
 21
-4.498290747492582
 31
0.0
  0
LINE
  5
1ED
330
1F
100
AcDbEntity
  8
0
100
AcDbLine
 10
-3.027558568860741
 20
-4.498290747492582
 30
0.0
 11
-3.030223271015866
 21
-4.491857587409996
 31
0.0
  0
LINE
  5
1EE
330
1F
100
AcDbEntity
  8
0
100
AcDbLine
 10
-3.030223271015866
 20
-4.491857587409996
 30
0.0
 11
-3.031132151297302
 21
-4.484953956274301
 31
0.0
  0
LINE
  5
1EF
330
1F
100
AcDbEntity
  8
0
100
AcDbLine
 10
-3.031132151297302
 20
-4.484953956274301
 30
0.0
 11
-3.030223271015866
 21
-4.478050325138608
 31
0.0
  0
LINE
  5
1F0
330
1F
100
AcDbEntity
  8
0
100
AcDbLine
 10
-3.030223271015866
 20
-4.478050325138608
 30
0.0
 11
-3.027558568860741
 21
-4.471617165056021
 31
0.0
  0
LINE
  5
1F1
330
1F
100
AcDbEntity
  8
0
100
AcDbLine
 10
-3.027558568860741
 20
-4.471617165056021
 30
0.0
 11
-3.023319639880173
 21
-4.466092885254871
 31
0.0
  0
LINE
  5
1F2
330
1F
100
AcDbEntity
  8
0
100
AcDbLine
 10
-3.023319639880173
 20
-4.466092885254871
 30
0.0
 11
-3.017795360079021
 21
-4.461853956274302
 31
0.0
  0
LINE
  5
1F3
330
1F
100
AcDbEntity
  8
0
100
AcDbLine
 10
-3.017795360079021
 20
-4.461853956274302
 30
0.0
 11
-3.011362199996438
 21
-4.459189254119178
 31
0.0
  0
LINE
  5
1F4
330
1F
100
AcDbEntity
  8
0
100
AcDbLine
 10
-3.011362199996438
 20
-4.459189254119178
 30
0.0
 11
-3.004458568860739
 21
-4.458280373837741
 31
0.0
  0
LINE
  5
1F5
330
1F
100
AcDbEntity
  8
0
100
AcDbLine
 10
-3.004458568860739
 20
-4.458280373837741
 30
0.0
 11
-2.997554937725048
 21
-4.459189254119178
 31
0.0
  0
LINE
  5
1F6
330
1F
100
AcDbEntity
  8
0
100
AcDbLine
 10
-2.997554937725048
 20
-4.459189254119178
 30
0.0
 11
-2.991121777642461
 21
-4.461853956274302
 31
0.0
  0
LINE
  5
1F7
330
1F
100
AcDbEntity
  8
0
100
AcDbLine
 10
-2.991121777642461
 20
-4.461853956274302
 30
0.0
 11
-2.985597497841312
 21
-4.466092885254871
 31
0.0
  0
LINE
  5
1F8
330
1F
100
AcDbEntity
  8
0
100
AcDbLine
 10
-2.985597497841312
 20
-4.466092885254871
 30
0.0
 11
-2.981358568860738
 21
-4.471617165056021
 31
0.0
  0
LINE
  5
1F9
330
1F
100
AcDbEntity
  8
0
100
AcDbLine
 10
-2.981358568860738
 20
-4.471617165056021
 30
0.0
 11
-2.978693866705619
 21
-4.478050325138607
 31
0.0
  0
LINE
  5
1FA
330
1F
100
AcDbEntity
  8
0
100
AcDbLine
 10
-2.978693866705619
 20
-4.478050325138607
 30
0.0
 11
-2.977784986424179
 21
-4.484953956274301
 31
0.0
  0
LINE
  5
1FB
330
1F
100
AcDbEntity
  8
0
100
AcDbLine
 10
-3.004458568860739
 20
-4.423916181471517
 30
0.0
 11
-2.932289785212039
 21
-4.453016181471517
 31
0.0
  0
LINE
  5
1FC
330
1F
100
AcDbEntity
  8
0
100
AcDbLine
 10
-3.076627352509447
 20
-4.453016181471517
 30
0.0
 11
-3.004458568860739
 21
-4.423916181471517
 31
0.0
  0
LINE
  5
1FD
330
1F
100
AcDbEntity
  8
0
100
AcDbLine
 10
-1.228436480488138
 20
-4.45301618147152
 30
0.0
 11
-1.163045848742986
 21
-4.461625021459584
 31
0.0
  0
LINE
  5
1FE
330
1F
100
AcDbEntity
  8
0
100
AcDbLine
 10
-1.163045848742986
 20
-4.461625021459584
 30
0.0
 11
-1.10211148048814
 21
-4.486864863205379
 31
0.0
  0
LINE
  5
1FF
330
1F
100
AcDbEntity
  8
0
100
AcDbLine
 10
-1.10211148048814
 20
-4.486864863205379
 30
0.0
 11
-1.04978595222135
 21
-4.527015653204736
 31
0.0
  0
LINE
  5
200
330
1F
100
AcDbEntity
  8
0
100
AcDbLine
 10
-1.04978595222135
 20
-4.527015653204736
 30
0.0
 11
-1.009635162222
 21
-4.579341181471517
 31
0.0
  0
LINE
  5
201
330
1F
100
AcDbEntity
  8
0
100
AcDbLine
 10
-1.009635162222
 20
-4.579341181471517
 30
0.0
 11
-0.9843953204762075
 21
-4.640275549726365
 31
0.0
  0
LINE
  5
202
330
1F
100
AcDbEntity
  8
0
100
AcDbLine
 10
-0.9843953204762075
 20
-4.640275549726365
 30
0.0
 11
-0.9757864804881313
 21
-4.705666181471517
 31
0.0
  0
LINE
  5
203
330
1F
100
AcDbEntity
  8
0
100
AcDbLine
 10
-0.9757864804881313
 20
-4.705666181471517
 30
0.0
 11
-0.9843953204762075
 21
-4.771056813216669
 31
0.0
  0
LINE
  5
204
330
1F
100
AcDbEntity
  8
0
100
AcDbLine
 10
-0.9843953204762075
 20
-4.771056813216669
 30
0.0
 11
-1.009635162221998
 21
-4.831991181471517
 31
0.0
  0
LINE
  5
205
330
1F
100
AcDbEntity
  8
0
100
AcDbLine
 10
-1.009635162221998
 20
-4.831991181471517
 30
0.0
 11
-1.04978595222135
 21
-4.884316709738298
 31
0.0
  0
LINE
  5
206
330
1F
100
AcDbEntity
  8
0
100
AcDbLine
 10
-1.04978595222135
 20
-4.884316709738298
 30
0.0
 11
-1.102111480488138
 21
-4.924467499737656
 31
0.0
  0
LINE
  5
207
330
1F
100
AcDbEntity
  8
0
100
AcDbLine
 10
-1.102111480488138
 20
-4.924467499737656
 30
0.0
 11
-1.163045848742988
 21
-4.94970734148345
 31
0.0
  0
LINE
  5
208
330
1F
100
AcDbEntity
  8
0
100
AcDbLine
 10
-1.228436480488134
 20
-4.708003723332912
 30
0.0
 11
-1.21317909777934
 21
-4.710012395873171
 31
0.0
  0
LINE
  5
209
330
1F
100
AcDbEntity
  8
0
100
AcDbLine
 10
-1.21317909777934
 20
-4.710012395873171
 30
0.0
 11
-1.198961480488136
 21
-4.715901525779818
 31
0.0
  0
LINE
  5
20A
330
1F
100
AcDbEntity
  8
0
100
AcDbLine
 10
-1.198961480488136
 20
-4.715901525779818
 30
0.0
 11
-1.186752535737184
 21
-4.725269778581964
 31
0.0
  0
LINE
  5
20B
330
1F
100
AcDbEntity
  8
0
100
AcDbLine
 10
-1.186752535737184
 20
-4.725269778581964
 30
0.0
 11
-1.17738428293504
 21
-4.737478723332911
 31
0.0
  0
LINE
  5
20C
330
1F
100
AcDbEntity
  8
0
100
AcDbLine
 10
-1.17738428293504
 20
-4.737478723332911
 30
0.0
 11
-1.171495153028391
 21
-4.751696340624117
 31
0.0
  0
LINE
  5
20D
330
1F
100
AcDbEntity
  8
0
100
AcDbLine
 10
-1.171495153028391
 20
-4.751696340624117
 30
0.0
 11
-1.169486480488144
 21
-4.766953723332911
 31
0.0
  0
LINE
  5
20E
330
1F
100
AcDbEntity
  8
0
100
AcDbLine
 10
-1.169486480488144
 20
-4.766953723332911
 30
0.0
 11
-1.171495153028391
 21
-4.782211106041705
 31
0.0
  0
LINE
  5
20F
330
1F
100
AcDbEntity
  8
0
100
AcDbLine
 10
-1.171495153028391
 20
-4.782211106041705
 30
0.0
 11
-1.17738428293504
 21
-4.796428723332911
 31
0.0
  0
LINE
  5
210
330
1F
100
AcDbEntity
  8
0
100
AcDbLine
 10
-1.17738428293504
 20
-4.796428723332911
 30
0.0
 11
-1.186752535737184
 21
-4.808637668083859
 31
0.0
  0
LINE
  5
211
330
1F
100
AcDbEntity
  8
0
100
AcDbLine
 10
-1.186752535737184
 20
-4.808637668083859
 30
0.0
 11
-1.198961480488136
 21
-4.818005920886004
 31
0.0
  0
LINE
  5
212
330
1F
100
AcDbEntity
  8
0
100
AcDbLine
 10
-1.198961480488136
 20
-4.818005920886004
 30
0.0
 11
-1.21317909777934
 21
-4.823895050792652
 31
0.0
  0
LINE
  5
213
330
1F
100
AcDbEntity
  8
0
100
AcDbLine
 10
-1.266392293452419
 20
-4.83090070090762
 30
0.0
 11
-1.301761480488133
 21
-4.845551097867924
 31
0.0
  0
LINE
  5
214
330
1F
100
AcDbEntity
  8
0
100
AcDbLine
 10
-1.301761480488133
 20
-4.845551097867924
 30
0.0
 11
-1.332133689949146
 21
-4.868856513871904
 31
0.0
  0
LINE
  5
215
330
1F
100
AcDbEntity
  8
0
100
AcDbLine
 10
-1.332133689949146
 20
-4.868856513871904
 30
0.0
 11
-1.35543910595313
 21
-4.899228723332912
 31
0.0
  0
LINE
  5
216
330
1F
100
AcDbEntity
  8
0
100
AcDbLine
 10
-1.35543910595313
 20
-4.899228723332912
 30
0.0
 11
-1.370089502913435
 21
-4.934597910368627
 31
0.0
  0
LINE
  5
217
330
1F
100
AcDbEntity
  8
0
100
AcDbLine
 10
-1.370089502913435
 20
-4.934597910368627
 30
0.0
 11
-1.375086480488153
 21
-4.972553723332965
 31
0.0
  0
LINE
  5
218
330
1F
100
AcDbEntity
  8
0
100
AcDbLine
 10
-1.375086480488153
 20
-4.972553723332965
 30
0.0
 11
-1.372565481146371
 21
-5.008260047671632
 31
0.0
  0
LINE
  5
219
330
1F
100
AcDbEntity
  8
0
100
AcDbLine
 10
-1.372565481146371
 20
-5.008260047671632
 30
0.0
 11
-1.360888906004626
 21
-5.042097225869854
 31
0.0
  0
LINE
  5
21A
330
1F
100
AcDbEntity
  8
0
100
AcDbLine
 10
-1.360888906004626
 20
-5.042097225869854
 30
0.0
 11
-1.340852494362371
 21
-5.071759310152025
 31
0.0
  0
LINE
  5
21B
330
1F
100
AcDbEntity
  8
0
100
AcDbLine
 10
-1.340852494362371
 20
-5.071759310152025
 30
0.0
 11
-1.31382169456131
 21
-5.095224878493204
 31
0.0
  0
LINE
  5
21C
330
1F
100
AcDbEntity
  8
0
100
AcDbLine
 10
-1.31382169456131
 20
-5.095224878493204
 30
0.0
 11
-1.281638610937359
 21
-5.11089479118963
 31
0.0
  0
LINE
  5
21D
330
1F
100
AcDbEntity
  8
0
100
AcDbLine
 10
-1.281638610937359
 20
-5.11089479118963
 30
0.0
 11
-1.246496467454448
 21
-5.117701169586791
 31
0.0
  0
LINE
  5
21E
330
1F
100
AcDbEntity
  8
0
100
AcDbLine
 10
-1.23511401188282
 20
-4.959195295161691
 30
0.0
 11
-1.241336480543718
 21
-4.961772726086084
 31
0.0
  0
LINE
  5
21F
330
1F
100
AcDbEntity
  8
0
100
AcDbLine
 10
-1.241336480543718
 20
-4.961772726086084
 30
0.0
 11
-1.246679835510805
 21
-4.965872826585031
 31
0.0
  0
LINE
  5
220
330
1F
100
AcDbEntity
  8
0
100
AcDbLine
 10
-1.246679835510805
 20
-4.965872826585031
 30
0.0
 11
-1.250779935969947
 21
-4.971216181582664
 31
0.0
  0
LINE
  5
221
330
1F
100
AcDbEntity
  8
0
100
AcDbLine
 10
-1.250779935969947
 20
-4.971216181582664
 30
0.0
 11
-1.253357366847927
 21
-4.977438650262765
 31
0.0
  0
LINE
  5
222
330
1F
100
AcDbEntity
  8
0
100
AcDbLine
 10
-1.253357366847927
 20
-4.977438650262765
 30
0.0
 11
-1.254236480488209
 21
-4.984116181663905
 31
0.0
  0
LINE
  5
223
330
1F
100
AcDbEntity
  8
0
100
AcDbLine
 10
-1.254236480488209
 20
-4.984116181663905
 30
0.0
 11
-1.253357366748424
 21
-4.990793713051946
 31
0.0
  0
LINE
  5
224
330
1F
100
AcDbEntity
  8
0
100
AcDbLine
 10
-1.253357366748424
 20
-4.990793713051946
 30
0.0
 11
-1.250779935777707
 21
-4.99701618169366
 31
0.0
  0
LINE
  5
225
330
1F
100
AcDbEntity
  8
0
100
AcDbLine
 10
-1.250779935777707
 20
-4.99701618169366
 30
0.0
 11
-1.246679835238948
 21
-5.002359536630195
 31
0.0
  0
LINE
  5
226
330
1F
100
AcDbEntity
  8
0
100
AcDbLine
 10
-1.246679835238948
 20
-5.002359536630195
 30
0.0
 11
-1.241336480210758
 21
-5.006459637049526
 31
0.0
  0
LINE
  5
227
330
1F
100
AcDbEntity
  8
0
100
AcDbLine
 10
-1.241336480210758
 20
-5.006459637049526
 30
0.0
 11
-1.235114011511453
 21
-5.009037067881139
 31
0.0
  0
LINE
  5
228
330
1F
100
AcDbEntity
  8
0
100
AcDbLine
 10
-1.235114011511453
 20
-5.009037067881139
 30
0.0
 11
-1.228436480103769
 21
-5.009916181471668
 31
0.0
  0
LINE
  5
229
330
1F
100
AcDbEntity
  8
0
100
AcDbLine
 10
-1.228436480103769
 20
-5.009916181471668
 30
0.0
 11
-1.191803304968064
 21
-5.021124369929181
 31
0.0
  0
LINE
  5
22A
330
1F
100
AcDbEntity
  8
0
100
AcDbLine
 10
-1.191803304968064
 20
-5.021124369929181
 30
0.0
 11
-1.159319267664773
 21
-5.04143201207434
 31
0.0
  0
LINE
  5
22B
330
1F
100
AcDbEntity
  8
0
100
AcDbLine
 10
-1.159319267664773
 20
-5.04143201207434
 30
0.0
 11
-1.13319810167448
 21
-5.069455175641761
 31
0.0
  0
LINE
  5
22C
330
1F
100
AcDbEntity
  8
0
100
AcDbLine
 10
-1.13319810167448
 20
-5.069455175641761
 30
0.0
 11
-1.115219921308959
 21
-5.103284128326728
 31
0.0
  0
LINE
  5
22D
330
1F
100
AcDbEntity
  8
0
100
AcDbLine
 10
-1.115219921308959
 20
-5.103284128326728
 30
0.0
 11
-1.106609909861311
 21
-5.140613482887044
 31
0.0
  0
LINE
  5
22E
330
1F
100
AcDbEntity
  8
0
100
AcDbLine
 10
-1.106609909861311
 20
-5.140613482887044
 30
0.0
 11
-1.107954825388515
 21
-5.178899305475082
 31
0.0
  0
LINE
  5
22F
330
1F
100
AcDbEntity
  8
0
100
AcDbLine
 10
-1.107954825388515
 20
-5.178899305475082
 30
0.0
 11
-1.119163014119116
 21
-5.215532480527178
 31
0.0
  0
LINE
  5
230
330
1F
100
AcDbEntity
  8
0
100
AcDbLine
 10
-1.119163014119116
 20
-5.215532480527178
 30
0.0
 11
-1.139470656506313
 21
-5.248016517679155
 31
0.0
  0
LINE
  5
231
330
1F
100
AcDbEntity
  8
0
100
AcDbLine
 10
-1.139470656506313
 20
-5.248016517679155
 30
0.0
 11
-1.167493820268334
 21
-5.274137683460662
 31
0.0
  0
LINE
  5
232
330
1F
100
AcDbEntity
  8
0
100
AcDbLine
 10
-1.167493820268334
 20
-5.274137683460662
 30
0.0
 11
-1.201322773087267
 21
-5.292115863574135
 31
0.0
  0
LINE
  5
233
330
1F
100
AcDbEntity
  8
0
100
AcDbLine
 10
-1.201322773087267
 20
-5.292115863574135
 30
0.0
 11
-1.238652127711735
 21
-5.300725874743661
 31
0.0
  0
LINE
  5
234
330
1F
100
AcDbEntity
  8
0
100
AcDbLine
 10
-1.238652127711735
 20
-5.300725874743661
 30
0.0
 11
-1.276937950289754
 21
-5.29938095893121
 31
0.0
  0
LINE
  5
235
330
1F
100
AcDbEntity
  8
0
100
AcDbLine
 10
-1.246496467454448
 20
-5.117701169586791
 30
0.0
 11
-1.231943049438512
 21
-5.122153894664935
 31
0.0
  0
LINE
  5
236
330
1F
100
AcDbEntity
  8
0
100
AcDbLine
 10
-1.231943049438512
 20
-5.122153894664935
 30
0.0
 11
-1.219037977168994
 21
-5.130221598569215
 31
0.0
  0
LINE
  5
237
330
1F
100
AcDbEntity
  8
0
100
AcDbLine
 10
-1.219037977168994
 20
-5.130221598569215
 30
0.0
 11
-1.208660709994404
 21
-5.141354480610993
 31
0.0
  0
LINE
  5
238
330
1F
100
AcDbEntity
  8
0
100
AcDbLine
 10
-1.208660709994404
 20
-5.141354480610993
 30
0.0
 11
-1.201518441523466
 21
-5.154793853277061
 31
0.0
  0
LINE
  5
239
330
1F
100
AcDbEntity
  8
0
100
AcDbLine
 10
-1.201518441523466
 20
-5.154793853277061
 30
0.0
 11
-1.198097905549314
 21
-5.169623845529869
 31
0.0
  0
LINE
  5
23A
330
1F
100
AcDbEntity
  8
0
100
AcDbLine
 10
-1.198097905549314
 20
-5.169623845529869
 30
0.0
 11
-1.198632205945864
 21
-5.184833817905086
 31
0.0
  0
LINE
  5
23B
330
1F
100
AcDbEntity
  8
0
100
AcDbLine
 10
-1.198632205945864
 20
-5.184833817905086
 30
0.0
 11
-1.203084931024075
 21
-5.199387235921026
 31
0.0
  0
LINE
  5
23C
330
1F
100
AcDbEntity
  8
0
100
AcDbLine
 10
-1.203084931024075
 20
-5.199387235921026
 30
0.0
 11
-1.211152634928356
 21
-5.212292308190543
 31
0.0
  0
LINE
  5
23D
330
1F
100
AcDbEntity
  8
0
100
AcDbLine
 10
-1.222285516970135
 20
-5.222669575365126
 30
0.0
 11
-1.235724889636212
 21
-5.229811843836067
 31
0.0
  0
LINE
  5
23E
330
1F
100
AcDbEntity
  8
0
100
AcDbLine
 10
-1.235724889636212
 20
-5.229811843836067
 30
0.0
 11
-1.250554881889015
 21
-5.233232379810227
 31
0.0
  0
LINE
  5
23F
330
1F
100
AcDbEntity
  8
0
100
AcDbLine
 10
-1.289975582175583
 20
-5.231847598217856
 30
0.0
 11
-1.313581470269381
 21
-5.23729229394529
 31
0.0
  0
LINE
  5
240
330
1F
100
AcDbEntity
  8
0
100
AcDbLine
 10
-1.313581470269381
 20
-5.23729229394529
 30
0.0
 11
-1.33497381628263
 21
-5.24866111957992
 31
0.0
  0
LINE
  5
241
330
1F
100
AcDbEntity
  8
0
100
AcDbLine
 10
-1.33497381628263
 20
-5.24866111957992
 30
0.0
 11
-1.352694767187042
 21
-5.265179308442653
 31
0.0
  0
LINE
  5
242
330
1F
100
AcDbEntity
  8
0
100
AcDbLine
 10
-1.352694767187042
 20
-5.265179308442653
 30
0.0
 11
-1.365536669463739
 21
-5.285721173260075
 31
0.0
  0
LINE
  5
243
330
1F
100
AcDbEntity
  8
0
100
AcDbLine
 10
-1.365536669463739
 20
-5.285721173260075
 30
0.0
 11
-1.372624368694816
 21
-5.308886819891928
 31
0.0
  0
LINE
  5
244
330
1F
100
AcDbEntity
  8
0
100
AcDbLine
 10
-1.37347484989063
 20
-5.333097547803272
 30
0.0
 11
-1.368030154163207
 21
-5.356703435897066
 31
0.0
  0
LINE
  5
245
330
1F
100
AcDbEntity
  8
0
100
AcDbLine
 10
-1.368030154163207
 20
-5.356703435897066
 30
0.0
 11
-1.356661328528559
 21
-5.378095781910319
 31
0.0
  0
LINE
  5
246
330
1F
100
AcDbEntity
  8
0
100
AcDbLine
 10
-1.356661328528559
 20
-5.378095781910319
 30
0.0
 11
-1.340143139665821
 21
-5.395816732814721
 31
0.0
  0
LINE
  5
247
330
1F
100
AcDbEntity
  8
0
100
AcDbLine
 10
-1.340143139665821
 20
-5.395816732814721
 30
0.0
 11
-1.319601274848405
 21
-5.40865863509143
 31
0.0
  0
LINE
  5
248
330
1F
100
AcDbEntity
  8
0
100
AcDbLine
 10
-1.319601274848405
 20
-5.40865863509143
 30
0.0
 11
-1.296435628216565
 21
-5.415746334322493
 31
0.0
  0
LINE
  5
249
330
1F
100
AcDbEntity
  8
0
100
AcDbLine
 10
-1.276937950289754
 20
-5.29938095893121
 30
0.0
 11
-1.288132157930373
 21
-5.301114695935829
 31
0.0
  0
LINE
  5
24A
330
1F
100
AcDbEntity
  8
0
100
AcDbLine
 10
-1.288132157930373
 20
-5.301114695935829
 30
0.0
 11
-1.298646991405085
 21
-5.305328293650581
 31
0.0
  0
LINE
  5
24B
330
1F
100
AcDbEntity
  8
0
100
AcDbLine
 10
-1.298646991405085
 20
-5.305328293650581
 30
0.0
 11
-1.307940692777231
 21
-5.311804654010247
 31
0.0
  0
LINE
  5
24C
330
1F
100
AcDbEntity
  8
0
100
AcDbLine
 10
-1.307940692777231
 20
-5.311804654010247
 30
0.0
 11
-1.315534420751674
 21
-5.320210094162497
 31
0.0
  0
LINE
  5
24D
330
1F
100
AcDbEntity
  8
0
100
AcDbLine
 10
-1.315534420751674
 20
-5.320210094162497
 30
0.0
 11
-1.321036922113728
 21
-5.330111538878453
 31
0.0
  0
LINE
  5
24E
330
1F
100
AcDbEntity
  8
0
100
AcDbLine
 10
-1.321036922113728
 20
-5.330111538878453
 30
0.0
 11
-1.324164690349352
 21
-5.340998833977191
 31
0.0
  0
LINE
  5
24F
330
1F
100
AcDbEntity
  8
0
100
AcDbLine
 10
-1.324164690349352
 20
-5.340998833977191
 30
0.0
 11
-1.324756572809776
 21
-5.352311031104879
 31
0.0
  0
LINE
  5
250
330
1F
100
AcDbEntity
  8
0
100
AcDbLine
 10
-1.324756572809776
 20
-5.352311031104879
 30
0.0
 11
-1.322782073812765
 21
-5.363465289592714
 31
0.0
  0
LINE
  5
251
330
1F
100
AcDbEntity
  8
0
100
AcDbLine
 10
-1.322782073812765
 20
-5.363465289592714
 30
0.0
 11
-1.318342925877922
 21
-5.373886906277057
 31
0.0
  0
LINE
  5
252
330
1F
100
AcDbEntity
  8
0
100
AcDbLine
 10
-1.318342925877922
 20
-5.373886906277057
 30
0.0
 11
-1.311667848141053
 21
-5.38303892604919
 31
0.0
  0
LINE
  5
253
330
1F
100
AcDbEntity
  8
0
100
AcDbLine
 10
-1.311667848141053
 20
-5.38303892604919
 30
0.0
 11
-1.303100762010938
 21
-5.390449807504329
 31
0.0
  0
LINE
  5
254
330
1F
100
AcDbEntity
  8
0
100
AcDbLine
 10
-1.303100762010938
 20
-5.390449807504329
 30
0.0
 11
-1.293083071235551
 21
-5.395737718266732
 31
0.0
  0
LINE
  5
255
330
1F
100
AcDbEntity
  8
0
100
AcDbLine
 10
-1.261818553801725
 20
-5.411261443281205
 30
0.0
 11
-1.293083071235551
 21
-5.395737718266732
 31
0.0
  0
LINE
  5
256
330
1F
100
AcDbEntity
  8
0
100
AcDbLine
 10
-1.296435628216565
 20
-5.415746334322493
 30
0.0
 11
-1.261818553801725
 21
-5.411261443281205
 31
0.0
  0
LINE
  5
257
330
1F
100
AcDbEntity
  8
0
100
AcDbLine
 10
-1.372624368694816
 20
-5.308886819891928
 30
0.0
 11
-1.37347484989063
 21
-5.333097547803272
 31
0.0
  0
LINE
  5
258
330
1F
100
AcDbEntity
  8
0
100
AcDbLine
 10
-1.211152634928356
 20
-5.212292308190543
 30
0.0
 11
-1.222285516970135
 21
-5.222669575365126
 31
0.0
  0
LINE
  5
259
330
1F
100
AcDbEntity
  8
0
100
AcDbLine
 10
0.3998340035365587
 20
-0.4642149048047285
 30
0.0
 11
0.3998340035365586
 21
-0.6673399048047289
 31
0.0
  0
LINE
  5
25A
330
1F
100
AcDbEntity
  8
0
100
AcDbLine
 10
-0.77963967791654
 20
-0.667339904804728
 30
0.0
 11
-0.7796396779165403
 21
-0.4642149048047281
 31
0.0
  0
LINE
  5
25B
330
1F
100
AcDbEntity
  8
0
100
AcDbLine
 10
-0.77963967791654
 20
-0.667339904804728
 30
0.0
 11
-0.8878928533895944
 21
-0.6673399048047286
 31
0.0
  0
LINE
  5
25C
330
1F
100
AcDbEntity
  8
0
100
AcDbLine
 10
-0.8878928533895953
 20
-0.8704649048047292
 30
0.0
 11
-0.8878928533895944
 21
-0.6673399048047286
 31
0.0
  0
LINE
  5
25D
330
1F
100
AcDbEntity
  8
0
100
AcDbLine
 10
0.5015340035365581
 20
-0.8704649048047292
 30
0.0
 11
-0.8878928533895953
 21
-0.8704649048047292
 31
0.0
  0
LINE
  5
25E
330
1F
100
AcDbEntity
  8
0
100
AcDbLine
 10
-0.7796396779165403
 20
-0.4642149048047281
 30
0.0
 11
-0.8878928533895953
 21
-0.4642149048047277
 31
0.0
  0
LINE
  5
25F
330
1F
100
AcDbEntity
  8
0
100
AcDbLine
 10
-0.8878928533895953
 20
-0.4642149048047277
 30
0.0
 11
-0.8878928533895953
 21
-0.2610899048047268
 31
0.0
  0
LINE
  5
260
330
1F
100
AcDbEntity
  8
0
100
AcDbLine
 10
-0.7796396779165403
 20
-0.2610899048047267
 30
0.0
 11
-0.7796396779165402
 21
-0.0579649048047267
 31
0.0
  0
LINE
  5
261
330
1F
100
AcDbEntity
  8
0
100
AcDbLine
 10
0.3998340035365585
 20
-0.0579649048047275
 30
0.0
 11
0.3998340035365585
 21
-0.2610899048047279
 31
0.0
  0
LINE
  5
262
330
1F
100
AcDbEntity
  8
0
100
AcDbLine
 10
0.3998340035365585
 20
-0.2610899048047279
 30
0.0
 11
0.5080871790096144
 21
-0.2610899048047278
 31
0.0
  0
LINE
  5
263
330
1F
100
AcDbEntity
  8
0
100
AcDbLine
 10
0.5080871790096144
 20
-0.2610899048047278
 30
0.0
 11
0.5080871790096144
 21
-0.4642149048047283
 31
0.0
  0
LINE
  5
264
330
1F
100
AcDbEntity
  8
0
100
AcDbLine
 10
0.3998340035365586
 20
-0.6673399048047289
 30
0.0
 11
0.5015340035365583
 21
-0.6673399048047288
 31
0.0
  0
LINE
  5
265
330
1F
100
AcDbEntity
  8
0
100
AcDbLine
 10
0.5015340035365583
 20
-0.6673399048047288
 30
0.0
 11
0.5015340035365581
 21
-0.8704649048047292
 31
0.0
  0
LINE
  5
266
330
1F
100
AcDbEntity
  8
0
100
AcDbLine
 10
-0.7796396779165403
 20
-0.2610899048047267
 30
0.0
 11
-0.8878928533895953
 21
-0.2610899048047268
 31
0.0
  0
LINE
  5
267
330
1F
100
AcDbEntity
  8
0
100
AcDbLine
 10
0.3998340035365587
 20
-0.4642149048047285
 30
0.0
 11
0.5080871790096144
 21
-0.4642149048047283
 31
0.0
  0
LINE
  5
268
330
1F
100
AcDbEntity
  8
0
100
AcDbLine
 10
-1.723341010725125
 20
-2.86754925311386
 30
0.0
 11
-2.039380031164246
 21
-2.86754925311386
 31
0.0
  0
LINE
  5
269
330
1F
100
AcDbEntity
  8
0
100
AcDbLine
 10
-2.902814692178223
 20
-2.86754925311386
 30
0.0
 11
-3.060834202397784
 21
-2.593851432826432
 31
0.0
  0
LINE
  5
26A
330
1F
100
AcDbEntity
  8
0
100
AcDbLine
 10
-3.492551532904772
 20
-1.846095081880323
 30
0.0
 11
-3.334532022685213
 21
-1.572397261592895
 31
0.0
  0
LINE
  5
26B
330
1F
100
AcDbEntity
  8
0
100
AcDbLine
 10
-1.723341010725126
 20
-0.8246409106467842
 30
0.0
 11
-1.565321500505565
 21
-1.098338730934213
 31
0.0
  0
LINE
  5
26C
330
1F
100
AcDbEntity
  8
0
100
AcDbLine
 10
-1.133604169998577
 20
-1.846095081880321
 30
0.0
 11
-1.291623680218137
 21
-2.11979290216775
 31
0.0
  0
LINE
  5
26D
330
1F
100
AcDbEntity
  8
0
100
AcDbLine
 10
-2.902814692178224
 20
-0.8246409106467851
 30
0.0
 11
-2.586775671739103
 21
-0.8246409106467851
 31
0.0
  0
LINE
  5
26E
330
1F
100
AcDbEntity
  8
0
100
AcDbLine
 10
-1.565321500505565
 20
-2.593851432826431
 30
0.0
 11
-1.723341010725125
 21
-2.86754925311386
 31
0.0
  0
LINE
  5
26F
330
1F
100
AcDbEntity
  8
0
100
AcDbLine
 10
-3.334532022685211
 20
-2.119792902167752
 30
0.0
 11
-3.492551532904772
 21
-1.846095081880323
 31
0.0
  0
LINE
  5
270
330
1F
100
AcDbEntity
  8
0
100
AcDbLine
 10
-3.060834202397784
 20
-1.098338730934213
 30
0.0
 11
-2.902814692178224
 21
-0.8246409106467851
 31
0.0
  0
LINE
  5
271
330
1F
100
AcDbEntity
  8
0
100
AcDbLine
 10
-1.291623680218137
 20
-1.572397261592893
 30
0.0
 11
-1.133604169998577
 21
-1.846095081880321
 31
0.0
  0
LINE
  5
272
330
1F
100
AcDbEntity
  8
0
100
AcDbLine
 10
-2.039380031164247
 20
-0.8246409106467847
 30
0.0
 11
-1.723341010725126
 21
-0.8246409106467842
 31
0.0
  0
LINE
  5
273
330
1F
100
AcDbEntity
  8
0
100
AcDbLine
 10
-2.586775671739102
 20
-2.86754925311386
 30
0.0
 11
-2.902814692178223
 21
-2.86754925311386
 31
0.0
  0
LINE
  5
274
330
1F
100
AcDbEntity
  8
0
100
AcDbLine
 10
-3.334532022685213
 20
-1.572397261592895
 30
0.0
 11
-3.44278519815827
 21
-1.509897261592894
 31
0.0
  0
LINE
  5
275
330
1F
100
AcDbEntity
  8
0
100
AcDbLine
 10
-3.060834202397784
 20
-1.098338730934213
 30
0.0
 11
-3.169087377870841
 21
-1.035838730934212
 31
0.0
  0
LINE
  5
276
330
1F
100
AcDbEntity
  8
0
100
AcDbLine
 10
-2.039380031164246
 20
-2.86754925311386
 30
0.0
 11
-2.039380031164246
 21
-2.992549253113859
 31
0.0
  0
LINE
  5
277
330
1F
100
AcDbEntity
  8
0
100
AcDbLine
 10
-2.586775671739102
 20
-2.86754925311386
 30
0.0
 11
-2.586775671739102
 21
-2.992549253113859
 31
0.0
  0
LINE
  5
278
330
1F
100
AcDbEntity
  8
0
100
AcDbLine
 10
-1.291623680218137
 20
-2.11979290216775
 30
0.0
 11
-1.18337050474508
 21
-2.182292902167751
 31
0.0
  0
LINE
  5
279
330
1F
100
AcDbEntity
  8
0
100
AcDbLine
 10
-1.565321500505565
 20
-2.593851432826431
 30
0.0
 11
-1.457068325032507
 21
-2.656351432826432
 31
0.0
  0
LINE
  5
27A
330
1F
100
AcDbEntity
  8
0
100
AcDbLine
 10
-2.586775671739103
 20
-0.8246409106467851
 30
0.0
 11
-2.586775671739103
 21
-0.6996409106467869
 31
0.0
  0
LINE
  5
27B
330
1F
100
AcDbEntity
  8
0
100
AcDbLine
 10
-2.039380031164247
 20
-0.8246409106467847
 30
0.0
 11
-2.039380031164247
 21
-0.6996409106467869
 31
0.0
  0
LINE
  5
27C
330
1F
100
AcDbEntity
  8
0
100
AcDbLine
 10
-1.565321500505565
 20
-1.098338730934213
 30
0.0
 11
-1.673574675978621
 21
-1.160838730934219
 31
0.0
  0
LINE
  5
27D
330
1F
100
AcDbEntity
  8
0
100
AcDbLine
 10
-1.291623680218137
 20
-1.572397261592893
 30
0.0
 11
-1.399876855691193
 21
-1.634897261592894
 31
0.0
  0
LINE
  5
27E
330
1F
100
AcDbEntity
  8
0
100
AcDbLine
 10
-3.060834202397784
 20
-2.593851432826432
 30
0.0
 11
-2.952581026924729
 21
-2.531351432826433
 31
0.0
  0
LINE
  5
27F
330
1F
100
AcDbEntity
  8
0
100
AcDbLine
 10
-3.334532022685211
 20
-2.119792902167752
 30
0.0
 11
-3.226278847212158
 21
-2.057292902167753
 31
0.0
  0
LINE
  5
280
330
1F
100
AcDbEntity
  8
0
100
AcDbLine
 10
0.8309801440925847
 20
-0.9979770418191815
 30
0.0
 11
2.220407001018738
 21
-0.9979770418191819
 31
0.0
  0
LINE
  5
281
330
1F
100
AcDbEntity
  8
0
100
AcDbLine
 10
2.112153825545684
 20
-0.18547704181918
 30
0.0
 11
1.796114805106563
 21
-0.1854770418191769
 31
0.0
  0
LINE
  5
282
330
1F
100
AcDbEntity
  8
0
100
AcDbLine
 10
0.9326801440925849
 20
-0.1854770418191799
 30
0.0
 11
0.9326801440925847
 21
-0.3886020418191803
 31
0.0
  0
LINE
  5
283
330
1F
100
AcDbEntity
  8
0
100
AcDbLine
 10
2.112153825545684
 20
-0.38860204181918
 30
0.0
 11
2.112153825545684
 21
-0.18547704181918
 31
0.0
  0
LINE
  5
284
330
1F
100
AcDbEntity
  8
0
100
AcDbLine
 10
2.112153825545683
 20
-0.7948520418191813
 30
0.0
 11
2.112153825545684
 21
-0.5917270418191813
 31
0.0
  0
LINE
  5
285
330
1F
100
AcDbEntity
  8
0
100
AcDbLine
 10
0.9326801440925845
 20
-0.5917270418191807
 30
0.0
 11
0.9326801440925847
 21
-0.7948520418191811
 31
0.0
  0
LINE
  5
286
330
1F
100
AcDbEntity
  8
0
100
AcDbLine
 10
2.220407001018738
 20
-0.9979770418191819
 30
0.0
 11
2.220407001018738
 21
-0.794852041819181
 31
0.0
  0
LINE
  5
287
330
1F
100
AcDbEntity
  8
0
100
AcDbLine
 10
2.112153825545683
 20
-0.7948520418191813
 30
0.0
 11
2.220407001018738
 21
-0.794852041819181
 31
0.0
  0
LINE
  5
288
330
1F
100
AcDbEntity
  8
0
100
AcDbLine
 10
2.220407001018738
 20
-0.591727041819181
 30
0.0
 11
2.220407001018739
 21
-0.3886020418191801
 31
0.0
  0
LINE
  5
289
330
1F
100
AcDbEntity
  8
0
100
AcDbLine
 10
2.112153825545684
 20
-0.38860204181918
 30
0.0
 11
2.220407001018739
 21
-0.3886020418191801
 31
0.0
  0
LINE
  5
28A
330
1F
100
AcDbEntity
  8
0
100
AcDbLine
 10
2.112153825545684
 20
-0.5917270418191813
 30
0.0
 11
2.220407001018738
 21
-0.591727041819181
 31
0.0
  0
LINE
  5
28B
330
1F
100
AcDbEntity
  8
0
100
AcDbLine
 10
0.8244269686195288
 20
-0.3886020418191801
 30
0.0
 11
0.8244269686195287
 21
-0.5917270418191807
 31
0.0
  0
LINE
  5
28C
330
1F
100
AcDbEntity
  8
0
100
AcDbLine
 10
0.9326801440925847
 20
-0.3886020418191803
 30
0.0
 11
0.8244269686195288
 21
-0.3886020418191801
 31
0.0
  0
LINE
  5
28D
330
1F
100
AcDbEntity
  8
0
100
AcDbLine
 10
0.9326801440925845
 20
-0.5917270418191807
 30
0.0
 11
0.8244269686195287
 21
-0.5917270418191807
 31
0.0
  0
LINE
  5
28E
330
1F
100
AcDbEntity
  8
0
100
AcDbLine
 10
0.8309801440925847
 20
-0.794852041819181
 30
0.0
 11
0.8309801440925847
 21
-0.9979770418191815
 31
0.0
  0
LINE
  5
28F
330
1F
100
AcDbEntity
  8
0
100
AcDbLine
 10
0.9326801440925847
 20
-0.7948520418191811
 30
0.0
 11
0.8309801440925847
 21
-0.794852041819181
 31
0.0
  0
LINE
  5
290
330
1F
100
AcDbEntity
  8
0
100
AcDbLine
 10
1.796114805106563
 20
-0.1854770418191769
 30
0.0
 11
1.796114805106562
 21
-0.3104770418191769
 31
0.0
  0
LINE
  5
291
330
1F
100
AcDbEntity
  8
0
100
AcDbLine
 10
1.796114805106562
 20
-0.3104770418191769
 30
0.0
 11
1.248719164531706
 21
-0.3104770418191758
 31
0.0
  0
LINE
  5
292
330
1F
100
AcDbEntity
  8
0
100
AcDbLine
 10
1.248719164531706
 20
-0.3104770418191758
 30
0.0
 11
1.248719164531706
 21
-0.1854770418191758
 31
0.0
  0
LINE
  5
293
330
1F
100
AcDbEntity
  8
0
100
AcDbLine
 10
1.248719164531706
 20
-0.1854770418191758
 30
0.0
 11
0.9326801440925849
 21
-0.1854770418191799
 31
0.0
  0
LINE
  5
294
330
1F
100
AcDbEntity
  8
0
100
AcDbLine
 10
-2.234165907627398
 20
2.340338049497021
 30
0.0
 11
-1.199029793471706
 21
2.340338049497021
 31
0.0
  0
LINE
  5
295
330
1F
100
AcDbEntity
  8
0
100
AcDbLine
 10
-1.09077661799865
 20
-0.4096619505029793
 30
0.0
 11
-1.476393679316013
 21
-0.4096619505029806
 31
0.0
  0
LINE
  5
296
330
1F
100
AcDbEntity
  8
0
100
AcDbLine
 10
-1.199029793471706
 20
0.9653380494970214
 30
0.0
 11
-1.199029793471706
 21
0.277838049497021
 31
0.0
  0
LINE
  5
297
330
1F
100
AcDbEntity
  8
0
100
AcDbLine
 10
-2.234165907627399
 20
0.2778380494970207
 30
0.0
 11
-2.234165907627399
 21
0.9653380494970216
 31
0.0
  0
LINE
  5
298
330
1F
100
AcDbEntity
  8
0
100
AcDbLine
 10
-2.234165907627399
 20
1.652838049497021
 30
0.0
 11
-2.234165907627398
 21
2.340338049497021
 31
0.0
  0
LINE
  5
299
330
1F
100
AcDbEntity
  8
0
100
AcDbLine
 10
-1.199029793471706
 20
2.340338049497021
 30
0.0
 11
-1.199029793471706
 21
1.652838049497021
 31
0.0
  0
LINE
  5
29A
330
1F
100
AcDbEntity
  8
0
100
AcDbLine
 10
-1.09077661799865
 20
0.2778380494970207
 30
0.0
 11
-1.09077661799865
 21
-0.4096619505029793
 31
0.0
  0
LINE
  5
29B
330
1F
100
AcDbEntity
  8
0
100
AcDbLine
 10
-1.199029793471706
 20
0.277838049497021
 30
0.0
 11
-1.09077661799865
 21
0.2778380494970207
 31
0.0
  0
LINE
  5
29C
330
1F
100
AcDbEntity
  8
0
100
AcDbLine
 10
-2.342419083100452
 20
-0.4096619505029793
 30
0.0
 11
-2.342419083100452
 21
0.2778380494970207
 31
0.0
  0
LINE
  5
29D
330
1F
100
AcDbEntity
  8
0
100
AcDbLine
 10
-2.234165907627399
 20
0.2778380494970207
 30
0.0
 11
-2.342419083100452
 21
0.2778380494970207
 31
0.0
  0
LINE
  5
29E
330
1F
100
AcDbEntity
  8
0
100
AcDbLine
 10
-2.342419083100453
 20
0.9653380494970216
 30
0.0
 11
-2.342419083100452
 21
1.652838049497021
 31
0.0
  0
LINE
  5
29F
330
1F
100
AcDbEntity
  8
0
100
AcDbLine
 10
-2.234165907627399
 20
1.652838049497021
 30
0.0
 11
-2.342419083100452
 21
1.652838049497021
 31
0.0
  0
LINE
  5
2A0
330
1F
100
AcDbEntity
  8
0
100
AcDbLine
 10
-2.234165907627399
 20
0.9653380494970216
 30
0.0
 11
-2.342419083100453
 21
0.9653380494970216
 31
0.0
  0
LINE
  5
2A1
330
1F
100
AcDbEntity
  8
0
100
AcDbLine
 10
-1.090776617998653
 20
1.652838049497021
 30
0.0
 11
-1.090776617998653
 21
0.9653380494970214
 31
0.0
  0
LINE
  5
2A2
330
1F
100
AcDbEntity
  8
0
100
AcDbLine
 10
-1.199029793471706
 20
1.652838049497021
 30
0.0
 11
-1.090776617998653
 21
1.652838049497021
 31
0.0
  0
LINE
  5
2A3
330
1F
100
AcDbEntity
  8
0
100
AcDbLine
 10
-1.199029793471706
 20
0.9653380494970214
 30
0.0
 11
-1.090776617998653
 21
0.9653380494970214
 31
0.0
  0
LINE
  5
2A4
330
1F
100
AcDbEntity
  8
0
100
AcDbLine
 10
-1.956802021783087
 20
-0.28966195050298
 30
0.0
 11
-1.956802021783087
 21
-0.4096619505029797
 31
0.0
  0
LINE
  5
2A5
330
1F
100
AcDbEntity
  8
0
100
AcDbLine
 10
-1.476393679316013
 20
-0.4096619505029806
 30
0.0
 11
-1.476393679316013
 21
-0.28966195050298
 31
0.0
  0
LINE
  5
2A6
330
1F
100
AcDbEntity
  8
0
100
AcDbLine
 10
-1.476393679316013
 20
-0.28966195050298
 30
0.0
 11
-1.956802021783087
 21
-0.28966195050298
 31
0.0
  0
LINE
  5
2A7
330
1F
100
AcDbEntity
  8
0
100
AcDbLine
 10
-1.956802021783087
 20
-0.4096619505029797
 30
0.0
 11
-2.342419083100452
 21
-0.4096619505029793
 31
0.0
  0
LINE
  5
2A8
330
1F
100
AcDbEntity
  8
0
100
AcDbLine
 10
0.2305521512170168
 20
4.812204605803847
 30
0.0
 11
0.2305521512170167
 21
4.124704605803847
 31
0.0
  0
LINE
  5
2A9
330
1F
100
AcDbEntity
  8
0
100
AcDbLine
 10
-0.0133180855734018
 20
4.812204605803847
 30
0.0
 11
0.2305521512170168
 21
4.812204605803847
 31
0.0
  0
LINE
  5
2AA
330
1F
100
AcDbEntity
  8
0
100
AcDbLine
 10
-0.8045839629386771
 20
4.812204605803847
 30
0.0
 11
-0.5607137261482585
 21
4.812204605803847
 31
0.0
  0
LINE
  5
2AB
330
1F
100
AcDbEntity
  8
0
100
AcDbLine
 10
-0.8045839629386764
 20
4.124704605803847
 30
0.0
 11
-0.8045839629386771
 21
4.812204605803847
 31
0.0
  0
LINE
  5
2AC
330
1F
100
AcDbEntity
  8
0
100
AcDbLine
 10
-0.8045839629386764
 20
4.124704605803847
 30
0.0
 11
-0.7504573752021528
 21
4.124704605803847
 31
0.0
  0
LINE
  5
2AD
330
1F
100
AcDbEntity
  8
0
100
AcDbLine
 10
-0.7504573752021527
 20
3.437204605803847
 30
0.0
 11
-0.7504573752021528
 21
4.124704605803847
 31
0.0
  0
LINE
  5
2AE
330
1F
100
AcDbEntity
  8
0
100
AcDbLine
 10
-0.7504573752021527
 20
3.437204605803847
 30
0.0
 11
-0.9128371384117342
 21
3.437204605803847
 31
0.0
  0
LINE
  5
2AF
330
1F
100
AcDbEntity
  8
0
100
AcDbLine
 10
-0.9128371384117349
 20
2.749704605803847
 30
0.0
 11
-0.9128371384117342
 21
3.437204605803847
 31
0.0
  0
LINE
  5
2B0
330
1F
100
AcDbEntity
  8
0
100
AcDbLine
 10
-0.7504573752021501
 20
2.749704605803847
 30
0.0
 11
-0.9128371384117349
 21
2.749704605803847
 31
0.0
  0
LINE
  5
2B1
330
1F
100
AcDbEntity
  8
0
100
AcDbLine
 10
-0.7504573752021502
 20
2.062204605803847
 30
0.0
 11
-0.7504573752021501
 21
2.749704605803847
 31
0.0
  0
LINE
  5
2B2
330
1F
100
AcDbEntity
  8
0
100
AcDbLine
 10
-0.5272200770943729
 20
2.062204605803846
 30
0.0
 11
-0.7504573752021502
 21
2.062204605803847
 31
0.0
  0
LINE
  5
2B3
330
1F
100
AcDbEntity
  8
0
100
AcDbLine
 10
-0.5272200770943729
 20
2.062204605803846
 30
0.0
 11
-0.5272200770943731
 21
2.182204605803846
 31
0.0
  0
LINE
  5
2B4
330
1F
100
AcDbEntity
  8
0
100
AcDbLine
 10
-0.5272200770943731
 20
2.182204605803846
 30
0.0
 11
-0.0468117346272975
 21
2.182204605803846
 31
0.0
  0
LINE
  5
2B5
330
1F
100
AcDbEntity
  8
0
100
AcDbLine
 10
-0.0468117346272975
 20
2.182204605803846
 30
0.0
 11
-0.0468117346272975
 21
2.062204605803846
 31
0.0
  0
LINE
  5
2B6
330
1F
100
AcDbEntity
  8
0
100
AcDbLine
 10
0.1764255634804864
 20
2.062204605803846
 30
0.0
 11
-0.0468117346272975
 21
2.062204605803846
 31
0.0
  0
LINE
  5
2B7
330
1F
100
AcDbEntity
  8
0
100
AcDbLine
 10
0.176425563480487
 20
2.749704605803847
 30
0.0
 11
0.1764255634804864
 21
2.062204605803846
 31
0.0
  0
LINE
  5
2B8
330
1F
100
AcDbEntity
  8
0
100
AcDbLine
 10
0.176425563480487
 20
2.749704605803847
 30
0.0
 11
0.3388053266900664
 21
2.749704605803846
 31
0.0
  0
LINE
  5
2B9
330
1F
100
AcDbEntity
  8
0
100
AcDbLine
 10
0.3388053266900667
 20
3.437204605803846
 30
0.0
 11
0.3388053266900664
 21
2.749704605803846
 31
0.0
  0
LINE
  5
2BA
330
1F
100
AcDbEntity
  8
0
100
AcDbLine
 10
0.1764255634804827
 20
3.437204605803846
 30
0.0
 11
0.3388053266900667
 21
3.437204605803846
 31
0.0
  0
LINE
  5
2BB
330
1F
100
AcDbEntity
  8
0
100
AcDbLine
 10
0.1764255634804832
 20
4.124704605803847
 30
0.0
 11
0.1764255634804827
 21
3.437204605803846
 31
0.0
  0
LINE
  5
2BC
330
1F
100
AcDbEntity
  8
0
100
AcDbLine
 10
0.2305521512170167
 20
4.124704605803847
 30
0.0
 11
0.1764255634804832
 21
4.124704605803847
 31
0.0
  0
LINE
  5
2BD
330
1F
100
AcDbEntity
  8
0
100
AcDbLine
 10
-0.022644112646179
 20
5.126181446014961
 30
0.0
 11
-0.0133180855734017
 21
5.055343237521527
 31
0.0
  0
LINE
  5
2BE
330
1F
100
AcDbEntity
  8
0
100
AcDbLine
 10
-0.0499866405314891
 20
5.192192147665241
 30
0.0
 11
-0.022644112646179
 21
5.126181446014961
 31
0.0
  0
LINE
  5
2BF
330
1F
100
AcDbEntity
  8
0
100
AcDbLine
 10
-0.5607137261482575
 20
5.055343237521527
 30
0.0
 11
-0.5513876990754802
 21
5.126181446014961
 31
0.0
  0
LINE
  5
2C0
330
1F
100
AcDbEntity
  8
0
100
AcDbLine
 10
-0.5607137261482585
 20
4.812204605803847
 30
0.0
 11
-0.5607137261482575
 21
5.055343237521527
 31
0.0
  0
LINE
  5
2C1
330
1F
100
AcDbEntity
  8
0
100
AcDbLine
 10
-0.0133180855734018
 20
4.812204605803847
 30
0.0
 11
-0.0133180855734017
 21
5.055343237521527
 31
0.0
  0
LINE
  5
2C2
330
1F
100
AcDbEntity
  8
0
100
AcDbLine
 10
-0.0934823211396124
 20
5.248876822242744
 30
0.0
 11
-0.0499866405314891
 21
5.192192147665241
 31
0.0
  0
LINE
  5
2C3
330
1F
100
AcDbEntity
  8
0
100
AcDbLine
 10
-0.1501669957171157
 20
5.292372502850868
 30
0.0
 11
-0.0934823211396124
 21
5.248876822242744
 31
0.0
  0
LINE
  5
2C4
330
1F
100
AcDbEntity
  8
0
100
AcDbLine
 10
-0.2161776973673963
 20
5.319715030736178
 30
0.0
 11
-0.1501669957171157
 21
5.292372502850868
 31
0.0
  0
LINE
  5
2C5
330
1F
100
AcDbEntity
  8
0
100
AcDbLine
 10
-0.2870159058608296
 20
5.329041057808956
 30
0.0
 11
-0.2161776973673963
 21
5.319715030736178
 31
0.0
  0
LINE
  5
2C6
330
1F
100
AcDbEntity
  8
0
100
AcDbLine
 10
-0.3578541143542631
 20
5.319715030736178
 30
0.0
 11
-0.2870159058608296
 21
5.329041057808956
 31
0.0
  0
LINE
  5
2C7
330
1F
100
AcDbEntity
  8
0
100
AcDbLine
 10
-0.4238648160045435
 20
5.292372502850868
 30
0.0
 11
-0.3578541143542631
 21
5.319715030736178
 31
0.0
  0
LINE
  5
2C8
330
1F
100
AcDbEntity
  8
0
100
AcDbLine
 10
-0.4805494905820469
 20
5.248876822242744
 30
0.0
 11
-0.4238648160045435
 21
5.292372502850868
 31
0.0
  0
LINE
  5
2C9
330
1F
100
AcDbEntity
  8
0
100
AcDbLine
 10
-0.52404517119017
 20
5.192192147665241
 30
0.0
 11
-0.4805494905820469
 21
5.248876822242744
 31
0.0
  0
LINE
  5
2CA
330
1F
100
AcDbEntity
  8
0
100
AcDbLine
 10
-0.5513876990754802
 20
5.126181446014961
 30
0.0
 11
-0.52404517119017
 21
5.192192147665241
 31
0.0
  0
LINE
  5
2CB
330
1F
100
AcDbEntity
  8
0
100
AcDbLine
 10
-0.3495159058608298
 20
4.937204605803847
 30
0.0
 11
-0.2245159058608296
 21
4.937204605803847
 31
0.0
  0
LINE
  5
2CC
330
1F
100
AcDbEntity
  8
0
100
AcDbLine
 10
1.62128474545354
 20
4.771107391037689
 30
0.0
 11
1.377414508663122
 21
4.771107391037688
 31
0.0
  0
LINE
  5
2CD
330
1F
100
AcDbEntity
  8
0
100
AcDbLine
 10
0.5861486312978524
 20
3.396107391037686
 30
0.0
 11
0.5861486312978545
 21
2.708607391037685
 31
0.0
  0
LINE
  5
2CE
330
1F
100
AcDbEntity
  8
0
100
AcDbLine
 10
0.8300188680882654
 20
4.771107391037686
 30
0.0
 11
0.5861486312978474
 21
4.771107391037685
 31
0.0
  0
LINE
  5
2CF
330
1F
100
AcDbEntity
  8
0
100
AcDbLine
 10
1.7295379209266
 20
3.39610739103769
 30
0.0
 11
1.729537920926596
 21
4.08360739103769
 31
0.0
  0
LINE
  5
2D0
330
1F
100
AcDbEntity
  8
0
100
AcDbLine
 10
1.621284745453548
 20
2.708607391037689
 30
0.0
 11
1.621284745453546
 21
3.39610739103769
 31
0.0
  0
LINE
  5
2D1
330
1F
100
AcDbEntity
  8
0
100
AcDbLine
 10
1.621284745453542
 20
4.083607391037689
 30
0.0
 11
1.729537920926596
 21
4.08360739103769
 31
0.0
  0
LINE
  5
2D2
330
1F
100
AcDbEntity
  8
0
100
AcDbLine
 10
0.4778954558247988
 20
2.708607391037685
 30
0.0
 11
0.4778954558248008
 21
2.021107391037685
 31
0.0
  0
LINE
  5
2D3
330
1F
100
AcDbEntity
  8
0
100
AcDbLine
 10
1.621284745453546
 20
3.39610739103769
 30
0.0
 11
1.7295379209266
 21
3.39610739103769
 31
0.0
  0
LINE
  5
2D4
330
1F
100
AcDbEntity
  8
0
100
AcDbLine
 10
1.729537920926604
 20
2.02110739103769
 30
0.0
 11
1.729537920926601
 21
2.70860739103769
 31
0.0
  0
LINE
  5
2D5
330
1F
100
AcDbEntity
  8
0
100
AcDbLine
 10
0.4778954558248008
 20
2.021107391037685
 30
0.0
 11
0.8635125171421638
 21
2.021107391037685
 31
0.0
  0
LINE
  5
2D6
330
1F
100
AcDbEntity
  8
0
100
AcDbLine
 10
0.8635125171421638
 20
2.021107391037685
 30
0.0
 11
0.8635125171421631
 21
2.141107391037685
 31
0.0
  0
LINE
  5
2D7
330
1F
100
AcDbEntity
  8
0
100
AcDbLine
 10
0.8635125171421631
 20
2.141107391037685
 30
0.0
 11
1.343920859609237
 21
2.141107391037687
 31
0.0
  0
LINE
  5
2D8
330
1F
100
AcDbEntity
  8
0
100
AcDbLine
 10
1.343920859609237
 20
2.141107391037687
 30
0.0
 11
1.343920859609237
 21
2.021107391037686
 31
0.0
  0
LINE
  5
2D9
330
1F
100
AcDbEntity
  8
0
100
AcDbLine
 10
1.343920859609237
 20
2.021107391037686
 30
0.0
 11
1.729537920926604
 21
2.02110739103769
 31
0.0
  0
LINE
  5
2DA
330
1F
100
AcDbEntity
  8
0
100
AcDbLine
 10
1.621284745453548
 20
2.708607391037689
 30
0.0
 11
1.729537920926601
 21
2.70860739103769
 31
0.0
  0
LINE
  5
2DB
330
1F
100
AcDbEntity
  8
0
100
AcDbLine
 10
1.621284745453542
 20
4.083607391037689
 30
0.0
 11
1.62128474545354
 21
4.771107391037689
 31
0.0
  0
LINE
  5
2DC
330
1F
100
AcDbEntity
  8
0
100
AcDbLine
 10
0.5861486312978474
 20
4.771107391037685
 30
0.0
 11
0.58614863129785
 21
4.083607391037685
 31
0.0
  0
LINE
  5
2DD
330
1F
100
AcDbEntity
  8
0
100
AcDbLine
 10
0.58614863129785
 20
4.083607391037685
 30
0.0
 11
0.477895455824797
 21
4.083607391037685
 31
0.0
  0
LINE
  5
2DE
330
1F
100
AcDbEntity
  8
0
100
AcDbLine
 10
0.477895455824797
 20
4.083607391037685
 30
0.0
 11
0.4778954558247992
 21
3.396107391037686
 31
0.0
  0
LINE
  5
2DF
330
1F
100
AcDbEntity
  8
0
100
AcDbLine
 10
0.5861486312978524
 20
3.396107391037686
 30
0.0
 11
0.4778954558247992
 21
3.396107391037686
 31
0.0
  0
LINE
  5
2E0
330
1F
100
AcDbEntity
  8
0
100
AcDbLine
 10
0.5861486312978545
 20
2.708607391037685
 30
0.0
 11
0.4778954558247988
 21
2.708607391037685
 31
0.0
  0
LINE
  5
2E1
330
1F
100
AcDbEntity
  8
0
100
AcDbLine
 10
0.8300188680882654
 20
5.014246022755367
 30
0.0
 11
0.8393448951610425
 21
5.0850842312488
 31
0.0
  0
LINE
  5
2E2
330
1F
100
AcDbEntity
  8
0
100
AcDbLine
 10
1.174554896869126
 20
5.278617815970019
 30
0.0
 11
1.240565598519406
 21
5.25127528808471
 31
0.0
  0
LINE
  5
2E3
330
1F
100
AcDbEntity
  8
0
100
AcDbLine
 10
1.368088481590344
 20
5.085084231248802
 30
0.0
 11
1.377414508663121
 21
5.014246022755369
 31
0.0
  0
LINE
  5
2E4
330
1F
100
AcDbEntity
  8
0
100
AcDbLine
 10
1.032878479882259
 20
5.278617815970018
 30
0.0
 11
1.103716688375692
 21
5.287943843042796
 31
0.0
  0
LINE
  5
2E5
330
1F
100
AcDbEntity
  8
0
100
AcDbLine
 10
1.103716688375692
 20
5.287943843042796
 30
0.0
 11
1.174554896869126
 21
5.278617815970019
 31
0.0
  0
LINE
  5
2E6
330
1F
100
AcDbEntity
  8
0
100
AcDbLine
 10
1.340745953705033
 20
5.151094932899083
 30
0.0
 11
1.368088481590344
 21
5.085084231248802
 31
0.0
  0
LINE
  5
2E7
330
1F
100
AcDbEntity
  8
0
100
AcDbLine
 10
0.9668677782319786
 20
5.251275288084708
 30
0.0
 11
1.032878479882259
 21
5.278617815970018
 31
0.0
  0
LINE
  5
2E8
330
1F
100
AcDbEntity
  8
0
100
AcDbLine
 10
0.8393448951610425
 20
5.0850842312488
 30
0.0
 11
0.8666874230463524
 21
5.151094932899081
 31
0.0
  0
LINE
  5
2E9
330
1F
100
AcDbEntity
  8
0
100
AcDbLine
 10
0.9101831036544753
 20
5.207779607476585
 30
0.0
 11
0.9668677782319786
 21
5.251275288084708
 31
0.0
  0
LINE
  5
2EA
330
1F
100
AcDbEntity
  8
0
100
AcDbLine
 10
1.240565598519406
 20
5.25127528808471
 30
0.0
 11
1.29725027309691
 21
5.207779607476586
 31
0.0
  0
LINE
  5
2EB
330
1F
100
AcDbEntity
  8
0
100
AcDbLine
 10
1.29725027309691
 20
5.207779607476586
 30
0.0
 11
1.340745953705033
 21
5.151094932899083
 31
0.0
  0
LINE
  5
2EC
330
1F
100
AcDbEntity
  8
0
100
AcDbLine
 10
0.8666874230463524
 20
5.151094932899081
 30
0.0
 11
0.9101831036544753
 21
5.207779607476585
 31
0.0
  0
LINE
  5
2ED
330
1F
100
AcDbEntity
  8
0
100
AcDbLine
 10
1.041216688375693
 20
4.896107391037688
 30
0.0
 11
1.166216688375694
 21
4.896107391037688
 31
0.0
  0
LINE
  5
2EE
330
1F
100
AcDbEntity
  8
0
100
AcDbLine
 10
1.377414508663122
 20
4.771107391037688
 30
0.0
 11
1.377414508663121
 21
5.014246022755369
 31
0.0
  0
LINE
  5
2EF
330
1F
100
AcDbEntity
  8
0
100
AcDbLine
 10
0.8300188680882654
 20
4.771107391037686
 30
0.0
 11
0.8300188680882654
 21
5.014246022755367
 31
0.0
  0
LINE
  5
2F0
330
1F
100
AcDbEntity
  8
0
100
AcDbLine
 10
1.041216688375693
 20
5.192794932899078
 30
0.0
 11
1.166216688375693
 21
5.192794932899079
 31
0.0
  0
LINE
  5
2F1
330
1F
100
AcDbEntity
  8
0
100
AcDbLine
 10
-0.8249855031385779
 20
1.652490445360806
 30
0.0
 11
-0.7708589154020487
 21
1.652490445360806
 31
0.0
  0
LINE
  5
2F2
330
1F
100
AcDbEntity
  8
0
100
AcDbLine
 10
0.300361590577993
 20
1.652490445360806
 30
0.0
 11
0.3003615905779933
 21
1.449365445360806
 31
0.0
  0
LINE
  5
2F3
330
1F
100
AcDbEntity
  8
0
100
AcDbLine
 10
0.3544881783145194
 20
1.652490445360806
 30
0.0
 11
0.300361590577993
 21
1.652490445360806
 31
0.0
  0
LINE
  5
2F4
330
1F
100
AcDbEntity
  8
0
100
AcDbLine
 10
-0.7708589154020483
 20
1.449365445360805
 30
0.0
 11
-0.7708589154020487
 21
1.652490445360806
 31
0.0
  0
LINE
  5
2F5
330
1F
100
AcDbEntity
  8
0
100
AcDbLine
 10
0.3003615905779943
 20
1.043115445360805
 30
0.0
 11
-0.7708589154020477
 21
1.043115445360804
 31
0.0
  0
LINE
  5
2F6
330
1F
100
AcDbEntity
  8
0
100
AcDbLine
 10
0.354488178314518
 20
1.855615445360806
 30
0.0
 11
0.3544881783145194
 21
1.652490445360806
 31
0.0
  0
LINE
  5
2F7
330
1F
100
AcDbEntity
  8
0
100
AcDbLine
 10
-0.7708589154020477
 20
1.043115445360804
 30
0.0
 11
-0.7708589154020479
 21
1.246240445360805
 31
0.0
  0
LINE
  5
2F8
330
1F
100
AcDbEntity
  8
0
100
AcDbLine
 10
0.3003615905779933
 20
1.449365445360806
 30
0.0
 11
0.4627413537875742
 21
1.449365445360805
 31
0.0
  0
LINE
  5
2F9
330
1F
100
AcDbEntity
  8
0
100
AcDbLine
 10
0.3003615905779926
 20
1.246240445360805
 30
0.0
 11
0.3003615905779943
 21
1.043115445360805
 31
0.0
  0
LINE
  5
2FA
330
1F
100
AcDbEntity
  8
0
100
AcDbLine
 10
-0.8249855031385779
 20
1.652490445360806
 30
0.0
 11
-0.8249855031385778
 21
1.855615445360806
 31
0.0
  0
LINE
  5
2FB
330
1F
100
AcDbEntity
  8
0
100
AcDbLine
 10
-0.9332386786116325
 20
1.246240445360805
 30
0.0
 11
-0.9332386786116327
 21
1.449365445360805
 31
0.0
  0
LINE
  5
2FC
330
1F
100
AcDbEntity
  8
0
100
AcDbLine
 10
-0.7708589154020479
 20
1.246240445360805
 30
0.0
 11
-0.9332386786116325
 21
1.246240445360805
 31
0.0
  0
LINE
  5
2FD
330
1F
100
AcDbEntity
  8
0
100
AcDbLine
 10
0.4627413537875742
 20
1.449365445360805
 30
0.0
 11
0.4627413537875739
 21
1.246240445360805
 31
0.0
  0
LINE
  5
2FE
330
1F
100
AcDbEntity
  8
0
100
AcDbLine
 10
0.3003615905779926
 20
1.246240445360805
 30
0.0
 11
0.4627413537875739
 21
1.246240445360805
 31
0.0
  0
LINE
  5
2FF
330
1F
100
AcDbEntity
  8
0
100
AcDbLine
 10
-0.7708589154020483
 20
1.449365445360805
 30
0.0
 11
-0.9332386786116327
 21
1.449365445360805
 31
0.0
  0
LINE
  5
300
330
1F
100
AcDbEntity
  8
0
100
AcDbLine
 10
-3.607401401118637
 20
-0.5163703541295134
 30
0.0
 11
-3.384164103010854
 21
-0.5163703541295142
 31
0.0
  0
LINE
  5
301
330
1F
100
AcDbEntity
  8
0
100
AcDbLine
 10
-3.661527988855168
 20
2.233629645870487
 30
0.0
 11
-3.661527988855168
 21
1.546129645870487
 31
0.0
  0
LINE
  5
302
330
1F
100
AcDbEntity
  8
0
100
AcDbLine
 10
-2.680518462436001
 20
-0.5163703541295133
 30
0.0
 11
-2.680518462436001
 21
0.1711296458704867
 31
0.0
  0
LINE
  5
303
330
1F
100
AcDbEntity
  8
0
100
AcDbLine
 10
-3.607401401118638
 20
0.1711296458704865
 30
0.0
 11
-3.607401401118637
 21
-0.5163703541295134
 31
0.0
  0
LINE
  5
304
330
1F
100
AcDbEntity
  8
0
100
AcDbLine
 10
-2.626391874699475
 20
1.546129645870487
 30
0.0
 11
-2.626391874699474
 21
2.233629645870487
 31
0.0
  0
LINE
  5
305
330
1F
100
AcDbEntity
  8
0
100
AcDbLine
 10
-2.626391874699474
 20
2.233629645870487
 30
0.0
 11
-3.661527988855168
 21
2.233629645870487
 31
0.0
  0
LINE
  5
306
330
1F
100
AcDbEntity
  8
0
100
AcDbLine
 10
-3.769781164328219
 20
0.8586296458704863
 30
0.0
 11
-3.769781164328218
 21
0.1711296458704865
 31
0.0
  0
LINE
  5
307
330
1F
100
AcDbEntity
  8
0
100
AcDbLine
 10
-3.607401401118638
 20
0.1711296458704865
 30
0.0
 11
-3.769781164328218
 21
0.1711296458704865
 31
0.0
  0
LINE
  5
308
330
1F
100
AcDbEntity
  8
0
100
AcDbLine
 10
-3.607401401118634
 20
0.8586296458704863
 30
0.0
 11
-3.769781164328219
 21
0.8586296458704863
 31
0.0
  0
LINE
  5
309
330
1F
100
AcDbEntity
  8
0
100
AcDbLine
 10
-2.518138699226416
 20
0.1711296458704867
 30
0.0
 11
-2.518138699226417
 21
0.8586296458704872
 31
0.0
  0
LINE
  5
30A
330
1F
100
AcDbEntity
  8
0
100
AcDbLine
 10
-2.680518462436001
 20
0.1711296458704867
 30
0.0
 11
-2.518138699226416
 21
0.1711296458704867
 31
0.0
  0
LINE
  5
30B
330
1F
100
AcDbEntity
  8
0
100
AcDbLine
 10
-2.680518462435999
 20
0.8586296458704872
 30
0.0
 11
-2.518138699226417
 21
0.8586296458704872
 31
0.0
  0
LINE
  5
30C
330
1F
100
AcDbEntity
  8
0
100
AcDbLine
 10
-3.607401401118635
 20
1.546129645870487
 30
0.0
 11
-3.607401401118634
 21
0.8586296458704863
 31
0.0
  0
LINE
  5
30D
330
1F
100
AcDbEntity
  8
0
100
AcDbLine
 10
-3.661527988855168
 20
1.546129645870487
 30
0.0
 11
-3.607401401118635
 21
1.546129645870487
 31
0.0
  0
LINE
  5
30E
330
1F
100
AcDbEntity
  8
0
100
AcDbLine
 10
-2.680518462435999
 20
0.8586296458704872
 30
0.0
 11
-2.680518462435999
 21
1.546129645870487
 31
0.0
  0
LINE
  5
30F
330
1F
100
AcDbEntity
  8
0
100
AcDbLine
 10
-2.626391874699475
 20
1.546129645870487
 30
0.0
 11
-2.680518462435999
 21
1.546129645870487
 31
0.0
  0
LINE
  5
310
330
1F
100
AcDbEntity
  8
0
100
AcDbLine
 10
-3.384164103010854
 20
-0.3963703541295141
 30
0.0
 11
-3.384164103010854
 21
-0.5163703541295142
 31
0.0
  0
LINE
  5
311
330
1F
100
AcDbEntity
  8
0
100
AcDbLine
 10
-2.903755760543778
 20
-0.516370354129514
 30
0.0
 11
-2.903755760543778
 21
-0.396370354129514
 31
0.0
  0
LINE
  5
312
330
1F
100
AcDbEntity
  8
0
100
AcDbLine
 10
-2.903755760543778
 20
-0.396370354129514
 30
0.0
 11
-3.384164103010854
 21
-0.3963703541295141
 31
0.0
  0
LINE
  5
313
330
1F
100
AcDbEntity
  8
0
100
AcDbLine
 10
-2.903755760543778
 20
-0.516370354129514
 30
0.0
 11
-2.680518462436001
 21
-0.5163703541295133
 31
0.0
  0
LINE
  5
314
330
1F
100
AcDbEntity
  8
0
100
AcDbLine
 10
0.6417662182299302
 20
-2.981840117545341
 30
0.0
 11
0.7804481611520848
 21
-2.741635946311802
 31
0.0
  0
LINE
  5
315
330
1F
100
AcDbEntity
  8
0
100
AcDbLine
 10
0.6417662182299293
 20
-1.188931775078265
 30
0.0
 11
0.3644023323856209
 21
-1.188931775078265
 31
0.0
  0
LINE
  5
316
330
1F
100
AcDbEntity
  8
0
100
AcDbLine
 10
-0.3933698959257623
 20
-1.188931775078265
 30
0.0
 11
-0.532051838847917
 21
-1.429135946311803
 31
0.0
  0
LINE
  5
317
330
1F
100
AcDbEntity
  8
0
100
AcDbLine
 10
1.159334275307776
 20
-2.085385946311803
 30
0.0
 11
1.020652332385621
 21
-1.845181775078264
 31
0.0
  0
LINE
  5
318
330
1F
100
AcDbEntity
  8
0
100
AcDbLine
 10
-0.9109379530036077
 20
-2.085385946311803
 30
0.0
 11
-0.772256010081454
 21
-2.325590117545342
 31
0.0
  0
LINE
  5
319
330
1F
100
AcDbEntity
  8
0
100
AcDbLine
 10
-0.3933698959257614
 20
-2.981840117545341
 30
0.0
 11
-0.5320518388479152
 21
-2.741635946311804
 31
0.0
  0
LINE
  5
31A
330
1F
100
AcDbEntity
  8
0
100
AcDbLine
 10
-0.3933698959257614
 20
-2.981840117545341
 30
0.0
 11
-0.1160060100814531
 21
-2.981840117545341
 31
0.0
  0
LINE
  5
31B
330
1F
100
AcDbEntity
  8
0
100
AcDbLine
 10
1.020652332385622
 20
-2.32559011754534
 30
0.0
 11
1.159334275307776
 21
-2.085385946311803
 31
0.0
  0
LINE
  5
31C
330
1F
100
AcDbEntity
  8
0
100
AcDbLine
 10
-0.1160060100814548
 20
-1.188931775078265
 30
0.0
 11
-0.3933698959257623
 21
-1.188931775078265
 31
0.0
  0
LINE
  5
31D
330
1F
100
AcDbEntity
  8
0
100
AcDbLine
 10
-0.7722560100814548
 20
-1.845181775078266
 30
0.0
 11
-0.9109379530036077
 21
-2.085385946311803
 31
0.0
  0
LINE
  5
31E
330
1F
100
AcDbEntity
  8
0
100
AcDbLine
 10
0.3644023323856227
 20
-2.981840117545341
 30
0.0
 11
0.6417662182299302
 21
-2.981840117545341
 31
0.0
  0
LINE
  5
31F
330
1F
100
AcDbEntity
  8
0
100
AcDbLine
 10
0.780448161152083
 20
-1.429135946311803
 30
0.0
 11
0.6417662182299293
 21
-1.188931775078265
 31
0.0
  0
LINE
  5
320
330
1F
100
AcDbEntity
  8
0
100
AcDbLine
 10
0.780448161152083
 20
-1.429135946311803
 30
0.0
 11
0.8887013366251382
 21
-1.366635946311803
 31
0.0
  0
LINE
  5
321
330
1F
100
AcDbEntity
  8
0
100
AcDbLine
 10
1.020652332385621
 20
-1.845181775078264
 30
0.0
 11
1.128905507858677
 21
-1.782681775078264
 31
0.0
  0
LINE
  5
322
330
1F
100
AcDbEntity
  8
0
100
AcDbLine
 10
1.020652332385622
 20
-2.32559011754534
 30
0.0
 11
1.128905507858679
 21
-2.388090117545341
 31
0.0
  0
LINE
  5
323
330
1F
100
AcDbEntity
  8
0
100
AcDbLine
 10
0.7804481611520848
 20
-2.741635946311802
 30
0.0
 11
0.8887013366251417
 21
-2.804135946311803
 31
0.0
  0
LINE
  5
324
330
1F
100
AcDbEntity
  8
0
100
AcDbLine
 10
0.3644023323856227
 20
-2.981840117545341
 30
0.0
 11
0.3644023323856227
 21
-3.10684011754534
 31
0.0
  0
LINE
  5
325
330
1F
100
AcDbEntity
  8
0
100
AcDbLine
 10
-0.1160060100814531
 20
-2.981840117545341
 30
0.0
 11
-0.1160060100814531
 21
-3.106840117545341
 31
0.0
  0
LINE
  5
326
330
1F
100
AcDbEntity
  8
0
100
AcDbLine
 10
-0.5320518388479152
 20
-2.741635946311804
 30
0.0
 11
-0.6403050143209676
 21
-2.804135946311802
 31
0.0
  0
LINE
  5
327
330
1F
100
AcDbEntity
  8
0
100
AcDbLine
 10
-0.772256010081454
 20
-2.325590117545342
 30
0.0
 11
-0.8805091855545064
 21
-2.38809011754534
 31
0.0
  0
LINE
  5
328
330
1F
100
AcDbEntity
  8
0
100
AcDbLine
 10
-0.7722560100814548
 20
-1.845181775078266
 30
0.0
 11
-0.8805091855545064
 21
-1.782681775078269
 31
0.0
  0
LINE
  5
329
330
1F
100
AcDbEntity
  8
0
100
AcDbLine
 10
-0.532051838847917
 20
-1.429135946311803
 30
0.0
 11
-0.6403050143209685
 21
-1.366635946311806
 31
0.0
  0
LINE
  5
32A
330
1F
100
AcDbEntity
  8
0
100
AcDbLine
 10
-0.1160060100814548
 20
-1.188931775078265
 30
0.0
 11
-0.1160060100814548
 21
-1.06393177507826
 31
0.0
  0
LINE
  5
32B
330
1F
100
AcDbEntity
  8
0
100
AcDbLine
 10
0.3644023323856209
 20
-1.188931775078265
 30
0.0
 11
0.3644023323856209
 21
-1.06393177507826
 31
0.0
  0
LINE
  5
32C
330
1F
100
AcDbEntity
  8
0
100
AcDbLine
 10
0.8013209740607594
 20
1.112835160183106
 30
0.0
 11
0.8013209740607588
 21
1.315960160183107
 31
0.0
  0
LINE
  5
32D
330
1F
100
AcDbEntity
  8
0
100
AcDbLine
 10
1.872541480040801
 20
1.11283516018311
 30
0.0
 11
0.8013209740607594
 21
1.112835160183106
 31
0.0
  0
LINE
  5
32E
330
1F
100
AcDbEntity
  8
0
100
AcDbLine
 10
0.7471943863242267
 20
1.925335160183108
 30
0.0
 11
1.063233406763349
 21
1.925335160183107
 31
0.0
  0
LINE
  5
32F
330
1F
100
AcDbEntity
  8
0
100
AcDbLine
 10
1.926668067777324
 20
1.925335160183112
 30
0.0
 11
1.926668067777324
 21
1.722210160183112
 31
0.0
  0
LINE
  5
330
330
1F
100
AcDbEntity
  8
0
100
AcDbLine
 10
1.872541480040801
 20
1.31596016018311
 30
0.0
 11
1.872541480040801
 21
1.11283516018311
 31
0.0
  0
LINE
  5
331
330
1F
100
AcDbEntity
  8
0
100
AcDbLine
 10
0.747194386324227
 20
1.722210160183108
 30
0.0
 11
0.7471943863242267
 21
1.925335160183108
 31
0.0
  0
LINE
  5
332
330
1F
100
AcDbEntity
  8
0
100
AcDbLine
 10
2.034921243250381
 20
1.519085160183112
 30
0.0
 11
2.034921243250381
 21
1.315960160183111
 31
0.0
  0
LINE
  5
333
330
1F
100
AcDbEntity
  8
0
100
AcDbLine
 10
1.872541480040801
 20
1.31596016018311
 30
0.0
 11
2.034921243250381
 21
1.315960160183111
 31
0.0
  0
LINE
  5
334
330
1F
100
AcDbEntity
  8
0
100
AcDbLine
 10
1.872541480040799
 20
1.519085160183111
 30
0.0
 11
2.034921243250381
 21
1.519085160183112
 31
0.0
  0
LINE
  5
335
330
1F
100
AcDbEntity
  8
0
100
AcDbLine
 10
0.6389412108511758
 20
1.315960160183106
 30
0.0
 11
0.638941210851175
 21
1.519085160183107
 31
0.0
  0
LINE
  5
336
330
1F
100
AcDbEntity
  8
0
100
AcDbLine
 10
0.8013209740607588
 20
1.315960160183107
 30
0.0
 11
0.6389412108511758
 21
1.315960160183106
 31
0.0
  0
LINE
  5
337
330
1F
100
AcDbEntity
  8
0
100
AcDbLine
 10
0.8013209740607574
 20
1.519085160183107
 30
0.0
 11
0.638941210851175
 21
1.519085160183107
 31
0.0
  0
LINE
  5
338
330
1F
100
AcDbEntity
  8
0
100
AcDbLine
 10
0.8013209740607574
 20
1.519085160183107
 30
0.0
 11
0.8013209740607565
 21
1.722210160183108
 31
0.0
  0
LINE
  5
339
330
1F
100
AcDbEntity
  8
0
100
AcDbLine
 10
0.747194386324227
 20
1.722210160183108
 30
0.0
 11
0.8013209740607565
 21
1.722210160183108
 31
0.0
  0
LINE
  5
33A
330
1F
100
AcDbEntity
  8
0
100
AcDbLine
 10
1.872541480040798
 20
1.722210160183111
 30
0.0
 11
1.872541480040799
 21
1.519085160183111
 31
0.0
  0
LINE
  5
33B
330
1F
100
AcDbEntity
  8
0
100
AcDbLine
 10
1.926668067777324
 20
1.722210160183112
 30
0.0
 11
1.872541480040798
 21
1.722210160183111
 31
0.0
  0
LINE
  5
33C
330
1F
100
AcDbEntity
  8
0
100
AcDbLine
 10
1.063233406763349
 20
1.925335160183107
 30
0.0
 11
1.063233406763349
 21
1.800335160183107
 31
0.0
  0
LINE
  5
33D
330
1F
100
AcDbEntity
  8
0
100
AcDbLine
 10
1.063233406763349
 20
1.800335160183107
 30
0.0
 11
1.610629047338205
 21
1.800335160183109
 31
0.0
  0
LINE
  5
33E
330
1F
100
AcDbEntity
  8
0
100
AcDbLine
 10
1.610629047338205
 20
1.800335160183109
 30
0.0
 11
1.610629047338205
 21
1.925335160183109
 31
0.0
  0
LINE
  5
33F
330
1F
100
AcDbEntity
  8
0
100
AcDbLine
 10
1.610629047338205
 20
1.925335160183109
 30
0.0
 11
1.926668067777324
 21
1.925335160183112
 31
0.0
  0
LINE
  5
340
330
1F
100
AcDbEntity
  8
0
100
AcDbLine
 10
-2.144946585035992
 20
2.509798191345
 30
0.0
 11
-1.921709286928209
 21
2.509798191344999
 31
0.0
  0
LINE
  5
341
330
1F
100
AcDbEntity
  8
0
100
AcDbLine
 10
-2.199073172772523
 20
5.259798191345
 30
0.0
 11
-2.199073172772523
 21
4.572298191345
 31
0.0
  0
LINE
  5
342
330
1F
100
AcDbEntity
  8
0
100
AcDbLine
 10
-1.218063646353356
 20
2.509798191345
 30
0.0
 11
-1.218063646353356
 21
3.197298191345
 31
0.0
  0
LINE
  5
343
330
1F
100
AcDbEntity
  8
0
100
AcDbLine
 10
-2.144946585035993
 20
3.197298191345
 30
0.0
 11
-2.144946585035992
 21
2.509798191345
 31
0.0
  0
LINE
  5
344
330
1F
100
AcDbEntity
  8
0
100
AcDbLine
 10
-1.163937058616829
 20
4.572298191345
 30
0.0
 11
-1.163937058616829
 21
5.259798191345
 31
0.0
  0
LINE
  5
345
330
1F
100
AcDbEntity
  8
0
100
AcDbLine
 10
-1.163937058616829
 20
5.259798191345
 30
0.0
 11
-2.199073172772523
 21
5.259798191345
 31
0.0
  0
LINE
  5
346
330
1F
100
AcDbEntity
  8
0
100
AcDbLine
 10
-2.307326348245573
 20
3.884798191345
 30
0.0
 11
-2.307326348245573
 21
3.197298191345
 31
0.0
  0
LINE
  5
347
330
1F
100
AcDbEntity
  8
0
100
AcDbLine
 10
-2.144946585035993
 20
3.197298191345
 30
0.0
 11
-2.307326348245573
 21
3.197298191345
 31
0.0
  0
LINE
  5
348
330
1F
100
AcDbEntity
  8
0
100
AcDbLine
 10
-2.144946585035989
 20
3.884798191345
 30
0.0
 11
-2.307326348245573
 21
3.884798191345
 31
0.0
  0
LINE
  5
349
330
1F
100
AcDbEntity
  8
0
100
AcDbLine
 10
-1.055683883143771
 20
3.197298191345
 30
0.0
 11
-1.055683883143772
 21
3.884798191345001
 31
0.0
  0
LINE
  5
34A
330
1F
100
AcDbEntity
  8
0
100
AcDbLine
 10
-1.218063646353356
 20
3.197298191345
 30
0.0
 11
-1.055683883143771
 21
3.197298191345
 31
0.0
  0
LINE
  5
34B
330
1F
100
AcDbEntity
  8
0
100
AcDbLine
 10
-1.218063646353354
 20
3.884798191345001
 30
0.0
 11
-1.055683883143772
 21
3.884798191345001
 31
0.0
  0
LINE
  5
34C
330
1F
100
AcDbEntity
  8
0
100
AcDbLine
 10
-2.144946585035989
 20
4.572298191345
 30
0.0
 11
-2.144946585035989
 21
3.884798191345
 31
0.0
  0
LINE
  5
34D
330
1F
100
AcDbEntity
  8
0
100
AcDbLine
 10
-2.199073172772523
 20
4.572298191345
 30
0.0
 11
-2.144946585035989
 21
4.572298191345
 31
0.0
  0
LINE
  5
34E
330
1F
100
AcDbEntity
  8
0
100
AcDbLine
 10
-1.218063646353354
 20
3.884798191345001
 30
0.0
 11
-1.218063646353354
 21
4.572298191345
 31
0.0
  0
LINE
  5
34F
330
1F
100
AcDbEntity
  8
0
100
AcDbLine
 10
-1.163937058616829
 20
4.572298191345
 30
0.0
 11
-1.218063646353354
 21
4.572298191345
 31
0.0
  0
LINE
  5
350
330
1F
100
AcDbEntity
  8
0
100
AcDbLine
 10
-1.921709286928209
 20
2.629798191344999
 30
0.0
 11
-1.921709286928209
 21
2.509798191344999
 31
0.0
  0
LINE
  5
351
330
1F
100
AcDbEntity
  8
0
100
AcDbLine
 10
-1.441300944461133
 20
2.509798191344999
 30
0.0
 11
-1.441300944461133
 21
2.629798191344999
 31
0.0
  0
LINE
  5
352
330
1F
100
AcDbEntity
  8
0
100
AcDbLine
 10
-1.441300944461133
 20
2.629798191344999
 30
0.0
 11
-1.921709286928209
 21
2.629798191344999
 31
0.0
  0
LINE
  5
353
330
1F
100
AcDbEntity
  8
0
100
AcDbLine
 10
-1.441300944461133
 20
2.509798191344999
 30
0.0
 11
-1.218063646353356
 21
2.509798191345
 31
0.0
  0
LINE
  5
354
330
1F
100
AcDbEntity
  8
0
100
AcDbLine
 10
1.99424703181396
 20
0.8917141444799164
 30
0.0
 11
1.678208011374838
 21
0.8917141444799146
 31
0.0
  0
LINE
  5
355
330
1F
100
AcDbEntity
  8
0
100
AcDbLine
 10
1.94012044407743
 20
0.0792141444799146
 30
0.0
 11
1.94012044407743
 21
0.282339144479915
 31
0.0
  0
LINE
  5
356
330
1F
100
AcDbEntity
  8
0
100
AcDbLine
 10
0.814773350360863
 20
0.8917141444799164
 30
0.0
 11
0.814773350360863
 21
0.6885891444799159
 31
0.0
  0
LINE
  5
357
330
1F
100
AcDbEntity
  8
0
100
AcDbLine
 10
0.8688999380973879
 20
0.0792141444799146
 30
0.0
 11
1.94012044407743
 21
0.0792141444799146
 31
0.0
  0
LINE
  5
358
330
1F
100
AcDbEntity
  8
0
100
AcDbLine
 10
0.8688999380973883
 20
0.282339144479915
 30
0.0
 11
0.8688999380973879
 21
0.0792141444799146
 31
0.0
  0
LINE
  5
359
330
1F
100
AcDbEntity
  8
0
100
AcDbLine
 10
1.99424703181396
 20
0.6885891444799159
 30
0.0
 11
1.99424703181396
 21
0.8917141444799164
 31
0.0
  0
LINE
  5
35A
330
1F
100
AcDbEntity
  8
0
100
AcDbLine
 10
0.7065201748878069
 20
0.4854641444799155
 30
0.0
 11
0.7065201748878072
 21
0.282339144479915
 31
0.0
  0
LINE
  5
35B
330
1F
100
AcDbEntity
  8
0
100
AcDbLine
 10
0.8688999380973883
 20
0.282339144479915
 30
0.0
 11
0.7065201748878072
 21
0.282339144479915
 31
0.0
  0
LINE
  5
35C
330
1F
100
AcDbEntity
  8
0
100
AcDbLine
 10
0.8688999380973892
 20
0.4854641444799155
 30
0.0
 11
0.7065201748878069
 21
0.4854641444799155
 31
0.0
  0
LINE
  5
35D
330
1F
100
AcDbEntity
  8
0
100
AcDbLine
 10
2.102500207287013
 20
0.282339144479915
 30
0.0
 11
2.102500207287013
 21
0.4854641444799155
 31
0.0
  0
LINE
  5
35E
330
1F
100
AcDbEntity
  8
0
100
AcDbLine
 10
1.94012044407743
 20
0.282339144479915
 30
0.0
 11
2.102500207287013
 21
0.282339144479915
 31
0.0
  0
LINE
  5
35F
330
1F
100
AcDbEntity
  8
0
100
AcDbLine
 10
1.940120444077431
 20
0.4854641444799155
 30
0.0
 11
2.102500207287013
 21
0.4854641444799155
 31
0.0
  0
LINE
  5
360
330
1F
100
AcDbEntity
  8
0
100
AcDbLine
 10
1.940120444077431
 20
0.4854641444799155
 30
0.0
 11
1.940120444077431
 21
0.6885891444799159
 31
0.0
  0
LINE
  5
361
330
1F
100
AcDbEntity
  8
0
100
AcDbLine
 10
1.99424703181396
 20
0.6885891444799159
 30
0.0
 11
1.940120444077431
 21
0.6885891444799159
 31
0.0
  0
LINE
  5
362
330
1F
100
AcDbEntity
  8
0
100
AcDbLine
 10
0.8688999380973896
 20
0.6885891444799159
 30
0.0
 11
0.8688999380973892
 21
0.4854641444799155
 31
0.0
  0
LINE
  5
363
330
1F
100
AcDbEntity
  8
0
100
AcDbLine
 10
0.814773350360863
 20
0.6885891444799159
 30
0.0
 11
0.8688999380973896
 21
0.6885891444799159
 31
0.0
  0
LINE
  5
364
330
1F
100
AcDbEntity
  8
0
100
AcDbLine
 10
1.678208011374838
 20
0.8917141444799146
 30
0.0
 11
1.678208011374838
 21
0.7667141444799146
 31
0.0
  0
LINE
  5
365
330
1F
100
AcDbEntity
  8
0
100
AcDbLine
 10
1.678208011374838
 20
0.7667141444799146
 30
0.0
 11
1.130812370799982
 21
0.7667141444799146
 31
0.0
  0
LINE
  5
366
330
1F
100
AcDbEntity
  8
0
100
AcDbLine
 10
1.130812370799982
 20
0.7667141444799146
 30
0.0
 11
1.130812370799982
 21
0.8917141444799146
 31
0.0
  0
LINE
  5
367
330
1F
100
AcDbEntity
  8
0
100
AcDbLine
 10
1.130812370799982
 20
0.8917141444799146
 30
0.0
 11
0.814773350360863
 21
0.8917141444799164
 31
0.0
  0
LINE
  5
368
330
1F
100
AcDbEntity
  8
0
100
AcDbLine
 10
-3.966969984713198
 20
5.604899096519484
 30
0.0
 11
-3.966969984713198
 21
-5.856195232666258
 31
0.0
  0
LINE
  5
369
330
1F
100
AcDbEntity
  8
0
100
AcDbLine
 10
12.09102377778939
 20
5.604899096519484
 30
0.0
 11
-3.966969984713198
 21
5.604899096519484
 31
0.0
  0
LINE
  5
36A
330
1F
100
AcDbEntity
  8
0
100
AcDbLine
 10
-11.84110486763194
 20
-5.026668275051911
 30
0.0
 11
-11.82195862188041
 21
-5.026668275051914
 31
0.0
  0
LINE
  5
36B
330
1F
100
AcDbEntity
  8
0
100
AcDbLine
 10
-11.82195862188041
 20
-5.026668275051914
 30
0.0
 11
-11.69445486763194
 21
-5.026668275051929
 31
0.0
  0
LINE
  5
36C
330
1F
100
AcDbEntity
  8
0
100
AcDbLine
 10
-11.84110486763194
 20
-5.151668275051919
 30
0.0
 11
-11.7798516776676
 21
-5.15166827505192
 31
0.0
  0
LINE
  5
36D
330
1F
100
AcDbEntity
  8
0
100
AcDbLine
 10
-11.69445486763194
 20
-5.026668275051929
 30
0.0
 11
-11.67762105458299
 21
-5.02666827505193
 31
0.0
  0
LINE
  5
36E
330
1F
100
AcDbEntity
  8
0
100
AcDbLine
 10
-11.7798516776676
 20
-5.15166827505192
 30
0.0
 11
-11.71972799879581
 21
-5.15166827505192
 31
0.0
  0
LINE
  5
36F
330
1F
100
AcDbEntity
  8
0
100
AcDbLine
 10
-11.81458709269616
 20
-5.461831778703373
 30
0.0
 11
-12.04227293900018
 21
-5.856195232666258
 31
0.0
  0
LINE
  5
370
330
1F
100
AcDbEntity
  8
0
100
AcDbLine
 10
-12.09102377778939
 20
-4.810633754471131
 30
0.0
 11
-12.03109344364227
 21
-4.914436138128515
 31
0.0
  0
LINE
  5
371
330
1F
100
AcDbEntity
  8
0
100
AcDbLine
 10
-12.09102377778939
 20
-4.560633754471132
 30
0.0
 11
-11.92284026816921
 21
-4.851936138128515
 31
0.0
  0
LINE
  5
372
330
1F
100
AcDbEntity
  8
0
100
AcDbLine
 10
-11.69445486763194
 20
-5.151668275051922
 30
0.0
 11
-11.6054522709343
 21
-5.151668275051922
 31
0.0
  0
LINE
  5
373
330
1F
100
AcDbEntity
  8
0
100
AcDbLine
 10
-11.6054522709343
 20
-5.151668275051922
 30
0.0
 11
-11.44180486763193
 21
-5.151668275051927
 31
0.0
  0
LINE
  5
374
330
1F
100
AcDbEntity
  8
0
100
AcDbLine
 10
-11.44180486763194
 20
-5.026668275051935
 30
0.0
 11
-11.67762105458299
 21
-5.02666827505193
 31
0.0
  0
LINE
  5
375
330
1F
100
AcDbEntity
  8
0
100
AcDbLine
 10
-11.6565675824766
 20
-5.188133958415944
 30
0.0
 11
-11.81458709269616
 21
-5.461831778703373
 31
0.0
  0
LINE
  5
376
330
1F
100
AcDbEntity
  8
0
100
AcDbLine
 10
-10.69248748230163
 20
-4.283658068437369
 30
0.0
 11
-10.62031869865292
 21
-4.283658068437369
 31
0.0
  0
LINE
  5
377
330
1F
100
AcDbEntity
  8
0
100
AcDbLine
 10
-10.76465626595033
 20
-4.283658068437369
 30
0.0
 11
-10.69248748230163
 21
-4.283658068437369
 31
0.0
  0
LINE
  5
378
330
1F
100
AcDbEntity
  8
0
100
AcDbLine
 10
-10.62031869865292
 20
-4.158658068437368
 30
0.0
 11
-10.69248748230163
 21
-4.158658068437367
 31
0.0
  0
LINE
  5
379
330
1F
100
AcDbEntity
  8
0
100
AcDbLine
 10
-10.76465626595033
 20
-4.158658068437368
 30
0.0
 11
-10.69248748230163
 21
-4.158658068437367
 31
0.0
  0
LINE
  5
37A
330
1F
100
AcDbEntity
  8
0
100
AcDbLine
 10
-10.62031869865292
 20
-4.283658068437369
 30
0.0
 11
-9.063115393929028
 21
-4.283658068437375
 31
0.0
  0
LINE
  5
37B
330
1F
100
AcDbEntity
  8
0
100
AcDbLine
 10
-10.62031869865292
 20
-4.158658068437368
 30
0.0
 11
-9.06311539392902
 21
-4.158658068437359
 31
0.0
  0
LINE
  5
37C
330
1F
100
AcDbEntity
  8
0
100
AcDbLine
 10
-8.91646539392902
 20
-4.283658068437363
 30
0.0
 11
-8.663815393929024
 21
-4.283658068437367
 31
0.0
  0
LINE
  5
37D
330
1F
100
AcDbEntity
  8
0
100
AcDbLine
 10
-8.91646539392902
 20
-4.283658068437363
 30
0.0
 11
-9.063115393929028
 21
-4.283658068437375
 31
0.0
  0
LINE
  5
37E
330
1F
100
AcDbEntity
  8
0
100
AcDbLine
 10
-9.06311539392902
 20
-4.158658068437359
 30
0.0
 11
-8.916465393929027
 21
-4.158658068437371
 31
0.0
  0
LINE
  5
37F
330
1F
100
AcDbEntity
  8
0
100
AcDbLine
 10
-8.916465393929027
 20
-4.158658068437371
 30
0.0
 11
-8.663815393929024
 21
-4.158658068437378
 31
0.0
  0
LINE
  5
380
330
1F
100
AcDbEntity
  8
0
100
AcDbLine
 10
-10.32471924799267
 20
-5.250405604459309
 30
0.0
 11
-10.39688803164137
 21
-5.25040560445931
 31
0.0
  0
LINE
  5
381
330
1F
100
AcDbEntity
  8
0
100
AcDbLine
 10
-10.32471924799267
 20
-5.125405604459309
 30
0.0
 11
-8.767515943268775
 21
-5.125405604459309
 31
0.0
  0
LINE
  5
382
330
1F
100
AcDbEntity
  8
0
100
AcDbLine
 10
-10.32471924799267
 20
-5.250405604459309
 30
0.0
 11
-8.767515943268778
 21
-5.250405604459314
 31
0.0
  0
LINE
  5
383
330
1F
100
AcDbEntity
  8
0
100
AcDbLine
 10
-10.39688803164137
 20
-5.25040560445931
 30
0.0
 11
-10.46905681529008
 21
-5.250405604459308
 31
0.0
  0
LINE
  5
384
330
1F
100
AcDbEntity
  8
0
100
AcDbLine
 10
-10.32471924799267
 20
-5.125405604459309
 30
0.0
 11
-10.39688803164138
 21
-5.125405604459308
 31
0.0
  0
LINE
  5
385
330
1F
100
AcDbEntity
  8
0
100
AcDbLine
 10
-10.39688803164138
 20
-5.125405604459308
 30
0.0
 11
-10.46905681529008
 21
-5.125405604459307
 31
0.0
  0
LINE
  5
386
330
1F
100
AcDbEntity
  8
0
100
AcDbLine
 10
-8.620865943268777
 20
-5.250405604459345
 30
0.0
 11
-8.767515943268778
 21
-5.250405604459314
 31
0.0
  0
LINE
  5
387
330
1F
100
AcDbEntity
  8
0
100
AcDbLine
 10
-8.368215943268774
 20
-5.250405604459322
 30
0.0
 11
-8.620865943268777
 21
-5.250405604459345
 31
0.0
  0
LINE
  5
388
330
1F
100
AcDbEntity
  8
0
100
AcDbLine
 10
-8.767515943268775
 20
-5.125405604459309
 30
0.0
 11
-8.62086594326877
 21
-5.125405604459328
 31
0.0
  0
LINE
  5
389
330
1F
100
AcDbEntity
  8
0
100
AcDbLine
 10
-8.62086594326877
 20
-5.125405604459328
 30
0.0
 11
-8.368215943268774
 21
-5.125405604459331
 31
0.0
  0
LINE
  5
38A
330
1F
100
AcDbEntity
  8
0
100
AcDbLine
 10
-3.435707221568214
 20
-3.912378259395305
 30
0.0
 11
-3.382494026103919
 21
-3.905372607694451
 31
0.0
  0
LINE
  5
38B
330
1F
100
AcDbEntity
  8
0
100
AcDbLine
 10
-3.358910749329977
 20
-3.504425709681375
 30
0.0
 11
-3.398331449657814
 21
-3.503040929263839
 31
0.0
  0
LINE
  5
38C
330
1F
100
AcDbEntity
  8
0
100
AcDbLine
 10
-1.71659652308241
 20
-4.283257077482669
 30
0.0
 11
-3.420449827806309
 21
-4.283257128261732
 31
0.0
  0
LINE
  5
38D
330
1F
100
AcDbEntity
  8
0
100
AcDbLine
 10
-3.420449835405575
 20
-4.028269586400338
 30
0.0
 11
-0.9808914929384986
 21
-4.028269513695435
 31
0.0
  0
LINE
  5
38E
330
1F
100
AcDbEntity
  8
0
100
AcDbLine
 10
-3.48584047435409
 20
-3.786565970198599
 30
0.0
 11
-3.413772311497026
 21
-3.777078014372548
 31
0.0
  0
LINE
  5
38F
330
1F
100
AcDbEntity
  8
0
100
AcDbLine
 10
-2.974887624441969
 20
-3.786723616534043
 30
0.0
 11
-0.5353292819749007
 21
-3.786723616534043
 31
0.0
  0
LINE
  5
390
330
1F
100
AcDbEntity
  8
0
100
AcDbLine
 10
-2.239182586698796
 20
-3.531736074672648
 30
0.0
 11
-0.5353292819749007
 21
-3.531736074672648
 31
0.0
  0
LINE
  5
391
330
1F
100
AcDbEntity
  8
0
100
AcDbLine
 10
-0.4699386502297442
 20
-4.028427234684582
 30
0.0
 11
-0.5420068133695728
 21
-4.037915188362822
 31
0.0
  0
LINE
  5
392
330
1F
100
AcDbEntity
  8
0
100
AcDbLine
 10
-0.5200718992661009
 20
-3.902614943993783
 30
0.0
 11
-0.5732850949391817
 21
-3.909620594108751
 31
0.0
  0
LINE
  5
393
330
1F
100
AcDbEntity
  8
0
100
AcDbLine
 10
-0.5574476833757713
 20
-4.311952273011358
 30
0.0
 11
-0.5968683836623412
 21
-4.310567491418987
 31
0.0
  0
LINE
  5
394
330
1F
100
AcDbEntity
  8
0
100
AcDbLine
 10
-3.66799482295521
 20
-4.708003723332912
 30
0.0
 11
-1.228436480488134
 21
-4.708003723332912
 31
0.0
  0
LINE
  5
395
330
1F
100
AcDbEntity
  8
0
100
AcDbLine
 10
-2.932289785212039
 20
-4.453016181471517
 30
0.0
 11
-1.228436480488138
 21
-4.45301618147152
 31
0.0
  0
LINE
  5
396
330
1F
100
AcDbEntity
  8
0
100
AcDbLine
 10
-1.163045848742988
 20
-4.94970734148345
 30
0.0
 11
-1.23511401188282
 21
-4.959195295161691
 31
0.0
  0
LINE
  5
397
330
1F
100
AcDbEntity
  8
0
100
AcDbLine
 10
-1.21317909777934
 20
-4.823895050792652
 30
0.0
 11
-1.266392293452419
 21
-4.83090070090762
 31
0.0
  0
LINE
  5
398
330
1F
100
AcDbEntity
  8
0
100
AcDbLine
 10
-1.250554881889015
 20
-5.233232379810227
 30
0.0
 11
-1.289975582175583
 21
-5.231847598217856
 31
0.0
  0
LINE
  5
399
330
1F
100
AcDbEntity
  8
0
100
AcDbLine
 10
0.3998340035365585
 20
-0.0579649048047275
 30
0.0
 11
-0.7796396779165402
 21
-0.0579649048047267
 31
0.0
  0
LINE
  5
39A
330
1F
100
AcDbEntity
  8
0
100
AcDbLine
 10
-3.44278519815827
 20
-1.509897261592894
 30
0.0
 11
-3.169087377870841
 21
-1.035838730934212
 31
0.0
  0
LINE
  5
39B
330
1F
100
AcDbEntity
  8
0
100
AcDbLine
 10
-2.039380031164246
 20
-2.992549253113859
 30
0.0
 11
-2.586775671739102
 21
-2.992549253113859
 31
0.0
  0
LINE
  5
39C
330
1F
100
AcDbEntity
  8
0
100
AcDbLine
 10
-1.18337050474508
 20
-2.182292902167751
 30
0.0
 11
-1.457068325032507
 21
-2.656351432826432
 31
0.0
  0
LINE
  5
39D
330
1F
100
AcDbEntity
  8
0
100
AcDbLine
 10
-2.586775671739103
 20
-0.6996409106467869
 30
0.0
 11
-2.039380031164247
 21
-0.6996409106467869
 31
0.0
  0
LINE
  5
39E
330
1F
100
AcDbEntity
  8
0
100
AcDbLine
 10
-1.673574675978621
 20
-1.160838730934219
 30
0.0
 11
-1.399876855691193
 21
-1.634897261592894
 31
0.0
  0
LINE
  5
39F
330
1F
100
AcDbEntity
  8
0
100
AcDbLine
 10
-2.952581026924729
 20
-2.531351432826433
 30
0.0
 11
-3.226278847212158
 21
-2.057292902167753
 31
0.0
  0
LINE
  5
3A0
330
1F
100
AcDbEntity
  8
0
100
AcDbLine
 10
-0.3495159058608298
 20
4.937204605803847
 30
0.0
 11
-0.3495159058608298
 21
5.192192147665242
 31
0.0
  0
LINE
  5
3A1
330
1F
100
AcDbEntity
  8
0
100
AcDbLine
 10
-0.3495159058608298
 20
5.192192147665242
 30
0.0
 11
-0.2245159058608296
 21
5.192192147665242
 31
0.0
  0
LINE
  5
3A2
330
1F
100
AcDbEntity
  8
0
100
AcDbLine
 10
-0.2245159058608296
 20
5.192192147665242
 30
0.0
 11
-0.2245159058608296
 21
4.937204605803847
 31
0.0
  0
LINE
  5
3A3
330
1F
100
AcDbEntity
  8
0
100
AcDbLine
 10
1.041216688375693
 20
5.192794932899078
 30
0.0
 11
1.041216688375693
 21
4.896107391037688
 31
0.0
  0
LINE
  5
3A4
330
1F
100
AcDbEntity
  8
0
100
AcDbLine
 10
1.166216688375693
 20
5.192794932899079
 30
0.0
 11
1.166216688375694
 21
4.896107391037688
 31
0.0
  0
LINE
  5
3A5
330
1F
100
AcDbEntity
  8
0
100
AcDbLine
 10
0.354488178314518
 20
1.855615445360806
 30
0.0
 11
-0.8249855031385778
 21
1.855615445360806
 31
0.0
  0
LINE
  5
3A6
330
1F
100
AcDbEntity
  8
0
100
AcDbLine
 10
0.8887013366251382
 20
-1.366635946311803
 30
0.0
 11
1.128905507858677
 21
-1.782681775078264
 31
0.0
  0
LINE
  5
3A7
330
1F
100
AcDbEntity
  8
0
100
AcDbLine
 10
1.128905507858679
 20
-2.388090117545341
 30
0.0
 11
0.8887013366251417
 21
-2.804135946311803
 31
0.0
  0
LINE
  5
3A8
330
1F
100
AcDbEntity
  8
0
100
AcDbLine
 10
0.3644023323856227
 20
-3.10684011754534
 30
0.0
 11
-0.1160060100814531
 21
-3.106840117545341
 31
0.0
  0
LINE
  5
3A9
330
1F
100
AcDbEntity
  8
0
100
AcDbLine
 10
-0.6403050143209676
 20
-2.804135946311802
 30
0.0
 11
-0.8805091855545064
 21
-2.38809011754534
 31
0.0
  0
LINE
  5
3AA
330
1F
100
AcDbEntity
  8
0
100
AcDbLine
 10
-0.8805091855545064
 20
-1.782681775078269
 30
0.0
 11
-0.6403050143209685
 21
-1.366635946311806
 31
0.0
  0
LINE
  5
3AB
330
1F
100
AcDbEntity
  8
0
100
AcDbLine
 10
-0.1160060100814548
 20
-1.06393177507826
 30
0.0
 11
0.3644023323856209
 21
-1.06393177507826
 31
0.0
  0
LINE
  5
3AC
330
1F
100
AcDbEntity
  8
0
100
AcDbLine
 10
-10.76465626595033
 20
-4.158658068437368
 30
0.0
 11
-10.76465626595033
 21
-4.153558068437369
 31
0.0
  0
LINE
  5
3AD
330
1F
100
AcDbEntity
  8
0
100
AcDbLine
 10
-10.46905681529008
 20
-5.125405604459307
 30
0.0
 11
-10.46905681529008
 21
-5.120305604459308
 31
0.0
  0
ENDSEC
  0
SECTION
  2
OBJECTS
  0
DICTIONARY
  5
C
330
0
100
AcDbDictionary
  3
ACAD_GROUP
350
D
  3
ACAD_LAYOUT
350
1A
  3
ACAD_MATERIAL
350
43
  3
ACAD_MLEADERSTYLE
350
3D0
  3
ACAD_MLINESTYLE
350
17
  3
ACAD_PLOTSETTINGS
350
19
  3
ACAD_SCALELIST
350
47
  3
ACAD_VISUALSTYLE
350
2A
  3
ACDBHEADERROUNDTRIPXREC
350
3AE
  3
ACDBVARIABLEDICTIONARY
350
3CE
  0
DICTIONARY
  5
3D5
330
8
100
AcDbDictionary
280
     1
  3
ACAD_XREC_ROUNDTRIP
360
3D6
  0
DICTIONARY
  5
D
102
{ACAD_REACTORS
330
C
102
}
330
C
100
AcDbDictionary
  0
DICTIONARY
  5
1A
102
{ACAD_REACTORS
330
C
102
}
330
C
100
AcDbDictionary
  0
DICTIONARY
  5
43
102
{ACAD_REACTORS
330
C
102
}
330
C
100
AcDbDictionary
  3
BYBLOCK
350
45
  3
BYLAYER
350
44
  3
GLOBAL
350
46
  0
DICTIONARY
  5
3D0
102
{ACAD_REACTORS
330
C
102
}
330
C
100
AcDbDictionary
  0
DICTIONARY
  5
17
102
{ACAD_REACTORS
330
C
102
}
330
C
100
AcDbDictionary
  3
STANDARD
350
18
  0
DICTIONARY
  5
19
102
{ACAD_REACTORS
330
C
102
}
330
C
100
AcDbDictionary
  0
DICTIONARY
  5
47
102
{ACAD_REACTORS
330
C
102
}
330
C
100
AcDbDictionary
  3
A0
350
48
  3
A1
350
49
  3
A2
350
4A
  3
A3
350
4B
  3
A4
350
4C
  3
A5
350
4D
  3
A6
350
4E
  3
A7
350
4F
  3
A8
350
50
  3
A9
350
51
  3
B0
350
52
  3
B1
350
53
  3
B2
350
54
  3
B3
350
55
  3
B4
350
56
  3
B5
350
57
  3
B6
350
58
  3
B7
350
59
  3
B8
350
5A
  3
B9
350
5B
  3
C0
350
5C
  3
C1
350
5D
  3
C2
350
5E
  3
C3
350
5F
  3
C4
350
60
  3
C5
350
61
  3
C6
350
62
  3
C7
350
63
  3
C8
350
64
  3
C9
350
65
  3
D0
350
66
  3
D1
350
67
  3
D2
350
68
  0
DICTIONARY
  5
2A
102
{ACAD_REACTORS
330
C
102
}
330
C
100
AcDbDictionary
  3
2DWIREFRAME
350
2F
  3
BASIC
350
32
  3
BRIGHTEN
350
36
  3
COLORCHANGE
350
3A
  3
CONCEPTUAL
350
34
  3
DIM
350
35
  3
EDGECOLOROFF
350
3D
  3
FACEPATTERN
350
39
  3
FLAT
350
2B
  3
FLATWITHEDGES
350
2C
  3
GOURAUD
350
2D
  3
GOURAUDWITHEDGES
350
2E
  3
HIDDEN
350
31
  3
JITTEROFF
350
3B
  3
LINEPATTERN
350
38
  3
OVERHANGOFF
350
3C
  3
REALISTIC
350
33
  3
SHADED
350
42
  3
SHADED_WITH_EDGES
350
41
  3
SHADES_OF_GRAY
350
3E
  3
SKETCHY
350
3F
  3
THICKEN
350
37
  3
WIREFRAME
350
30
  3
X-RAY
350
40
  0
DICTIONARY
  5
3AE
102
{ACAD_REACTORS
330
C
102
}
330
C
100
AcDbDictionary
  3
CEPSNTYPE
350
3B7
  3
DIMSTYLEDATA
350
3CD
  3
FINGERPRINTGUID
350
3B8
  3
HYPERLINKBASE
350
3B1
  3
INSUNITS
350
3B6
  3
LAYOUTDICT
350
3B3
  3
LWETCUNION
350
3B5
  3
PLOTSETDICT
350
3B4
  3
PSVPSCALE
350
3BA
  3
PUCSBASE
350
3BD
  3
PUCSORGBACK
350
3C3
  3
PUCSORGBOTTOM
350
3BF
  3
PUCSORGFRONT
350
3C2
  3
PUCSORGLEFT
350
3C0
  3
PUCSORGRIGHT
350
3C1
  3
PUCSORGTOP
350
3BE
  3
PUCSORTHOREF
350
3BB
  3
PUCSORTHOVIEW
350
3BC
  3
STYLESHEET
350
3B2
  3
TSTACKALIGN
350
3AF
  3
TSTACKSIZE
350
3B0
  3
UCSBASE
350
3C6
  3
UCSORGBACK
350
3CC
  3
UCSORGBOTTOM
350
3C8
  3
UCSORGFRONT
350
3CB
  3
UCSORGLEFT
350
3C9
  3
UCSORGRIGHT
350
3CA
  3
UCSORGTOP
350
3C7
  3
UCSORTHOREF
350
3C4
  3
UCSORTHOVIEW
350
3C5
  3
VERSIONGUID
350
3B9
  0
DICTIONARY
  5
3CE
102
{ACAD_REACTORS
330
C
102
}
330
C
100
AcDbDictionary
  3
CANNOSCALE
350
3D7
  3
DIMASSOC
350
3D3
  3
HIDETEXT
350
3D4
  3
MSLTSCALE
350
3D8
  0
XRECORD
  5
3D6
102
{ACAD_REACTORS
330
3D5
102
}
330
3D5
100
AcDbXrecord
102
VTR_0.000_0.000_1.000_1.000_GRIDDISPLAY
 70
     3
102
VTR_0.000_0.000_1.000_1.000_GRIDMAJOR
 70
     5
102
VTR_0.000_0.000_1.000_1.000_DEFAULTLIGHTING
280
     1
102
VTR_0.000_0.000_1.000_1.000_DEFAULTLIGHTINGTYPE
 70
     1
102
VTR_0.000_0.000_1.000_1.000_BRIGHTNESS
141
0.0
102
VTR_0.000_0.000_1.000_1.000_CONTRAST
142
0.0
  0
MATERIAL
  5
45
102
{ACAD_REACTORS
330
43
102
}
102
{ACAD_XDICTIONARY
360
3DB
102
}
330
43
100
AcDbMaterial
  1
BYBLOCK
  0
MATERIAL
  5
44
102
{ACAD_REACTORS
330
43
102
}
102
{ACAD_XDICTIONARY
360
3D9
102
}
330
43
100
AcDbMaterial
  1
BYLAYER
  0
MATERIAL
  5
46
102
{ACAD_REACTORS
330
43
102
}
102
{ACAD_XDICTIONARY
360
3DD
102
}
330
43
100
AcDbMaterial
  1
GLOBAL
  0
MLINESTYLE
  5
18
102
{ACAD_REACTORS
330
17
102
}
330
17
100
AcDbMlineStyle
  2
Standard
 70
     0
  3

 62
   256
 51
90.0
 52
90.0
 71
     2
 49
0.5
 62
   256
  6
BYLAYER
 49
-0.5
 62
   256
  6
BYLAYER
  0
ACAD_PROXY_OBJECT
  5
48
102
{ACAD_REACTORS
330
47
102
}
330
47
100
AcDbProxyObject
 90
      499
 91
      503
 93
       41
310
903313A31580
  0
ACAD_PROXY_OBJECT
  5
49
102
{ACAD_REACTORS
330
47
102
}
330
47
100
AcDbProxyObject
 90
      499
 91
      503
 93
      105
310
903313A324000000000000004000
  0
ACAD_PROXY_OBJECT
  5
4A
102
{ACAD_REACTORS
330
47
102
}
330
47
100
AcDbProxyObject
 90
      499
 91
      503
 93
      105
310
903313A344000000000000104000
  0
ACAD_PROXY_OBJECT
  5
4B
102
{ACAD_REACTORS
330
47
102
}
330
47
100
AcDbProxyObject
 90
      499
 91
      503
 93
      105
310
903313A354000000000000144000
  0
ACAD_PROXY_OBJECT
  5
4C
102
{ACAD_REACTORS
330
47
102
}
330
47
100
AcDbProxyObject
 90
      499
 91
      503
 93
      105
310
903313A384000000000000204000
  0
ACAD_PROXY_OBJECT
  5
4D
102
{ACAD_REACTORS
330
47
102
}
330
47
100
AcDbProxyObject
 90
      499
 91
      503
 93
      113
310
904313A31304000000000000244000
  0
ACAD_PROXY_OBJECT
  5
4E
102
{ACAD_REACTORS
330
47
102
}
330
47
100
AcDbProxyObject
 90
      499
 91
      503
 93
      113
310
904313A31364000000000000304000
  0
ACAD_PROXY_OBJECT
  5
4F
102
{ACAD_REACTORS
330
47
102
}
330
47
100
AcDbProxyObject
 90
      499
 91
      503
 93
      113
310
904313A32304000000000000344000
  0
ACAD_PROXY_OBJECT
  5
50
102
{ACAD_REACTORS
330
47
102
}
330
47
100
AcDbProxyObject
 90
      499
 91
      503
 93
      113
310
904313A333040000000000003E4000
  0
ACAD_PROXY_OBJECT
  5
51
102
{ACAD_REACTORS
330
47
102
}
330
47
100
AcDbProxyObject
 90
      499
 91
      503
 93
      113
310
904313A34304000000000000444000
  0
ACAD_PROXY_OBJECT
  5
52
102
{ACAD_REACTORS
330
47
102
}
330
47
100
AcDbProxyObject
 90
      499
 91
      503
 93
      113
310
904313A35304000000000000494000
  0
ACAD_PROXY_OBJECT
  5
53
102
{ACAD_REACTORS
330
47
102
}
330
47
100
AcDbProxyObject
 90
      499
 91
      503
 93
      121
310
905313A3130304000000000000594000
  0
ACAD_PROXY_OBJECT
  5
54
102
{ACAD_REACTORS
330
47
102
}
330
47
100
AcDbProxyObject
 90
      499
 91
      503
 93
      105
310
903323A310000000000000010100
  0
ACAD_PROXY_OBJECT
  5
55
102
{ACAD_REACTORS
330
47
102
}
330
47
100
AcDbProxyObject
 90
      499
 91
      503
 93
      105
310
903343A310000000000000410100
  0
ACAD_PROXY_OBJECT
  5
56
102
{ACAD_REACTORS
330
47
102
}
330
47
100
AcDbProxyObject
 90
      499
 91
      503
 93
      105
310
903383A310000000000000810100
  0
ACAD_PROXY_OBJECT
  5
57
102
{ACAD_REACTORS
330
47
102
}
330
47
100
AcDbProxyObject
 90
      499
 91
      503
 93
      113
310
90431303A310000000000000910100
  0
ACAD_PROXY_OBJECT
  5
58
102
{ACAD_REACTORS
330
47
102
}
330
47
100
AcDbProxyObject
 90
      499
 91
      503
 93
      121
310
9053130303A310000000000001650100
  0
ACAD_PROXY_OBJECT
  5
59
102
{ACAD_REACTORS
330
47
102
}
330
47
100
AcDbProxyObject
 90
      499
 91
      503
 93
      257
310
90E312F31323822203D2031272D3022000000000000200FC000000000000284000
  0
ACAD_PROXY_OBJECT
  5
5A
102
{ACAD_REACTORS
330
47
102
}
330
47
100
AcDbProxyObject
 90
      499
 91
      503
 93
      249
310
90D312F363422203D2031272D3022000000000000240FC000000000000284000
  0
ACAD_PROXY_OBJECT
  5
5B
102
{ACAD_REACTORS
330
47
102
}
330
47
100
AcDbProxyObject
 90
      499
 91
      503
 93
      249
310
90D312F333222203D2031272D3022000000000000280FC000000000000284000
  0
ACAD_PROXY_OBJECT
  5
5C
102
{ACAD_REACTORS
330
47
102
}
330
47
100
AcDbProxyObject
 90
      499
 91
      503
 93
      249
310
90D312F313622203D2031272D30220000000000002C0FC000000000000284000
  0
ACAD_PROXY_OBJECT
  5
5D
102
{ACAD_REACTORS
330
47
102
}
330
47
100
AcDbProxyObject
 90
      499
 91
      503
 93
      249
310
90D332F333222203D2031272D30220000000000002E0FC000000000000284000
  0
ACAD_PROXY_OBJECT
  5
5E
102
{ACAD_REACTORS
330
47
102
}
330
47
100
AcDbProxyObject
 90
      499
 91
      503
 93
      241
310
90C312F3822203D2031272D3022000000000000300FC000000000000284000
  0
ACAD_PROXY_OBJECT
  5
5F
102
{ACAD_REACTORS
330
47
102
}
330
47
100
AcDbProxyObject
 90
      499
 91
      503
 93
      249
310
90D332F313622203D2031272D3022000000000000320FC000000000000284000
  0
ACAD_PROXY_OBJECT
  5
60
102
{ACAD_REACTORS
330
47
102
}
330
47
100
AcDbProxyObject
 90
      499
 91
      503
 93
      241
310
90C312F3422203D2031272D3022000000000000340FC000000000000284000
  0
ACAD_PROXY_OBJECT
  5
61
102
{ACAD_REACTORS
330
47
102
}
330
47
100
AcDbProxyObject
 90
      499
 91
      503
 93
      241
310
90C332F3822203D2031272D3022000000000000360FC000000000000284000
  0
ACAD_PROXY_OBJECT
  5
62
102
{ACAD_REACTORS
330
47
102
}
330
47
100
AcDbProxyObject
 90
      499
 91
      503
 93
      241
310
90C312F3222203D2031272D3022000000000000380FC000000000000284000
  0
ACAD_PROXY_OBJECT
  5
63
102
{ACAD_REACTORS
330
47
102
}
330
47
100
AcDbProxyObject
 90
      499
 91
      503
 93
      241
310
90C332F3422203D2031272D30220000000000003A0FC000000000000284000
  0
ACAD_PROXY_OBJECT
  5
64
102
{ACAD_REACTORS
330
47
102
}
330
47
100
AcDbProxyObject
 90
      499
 91
      503
 93
      161
310
90A3122203D2031272D30224000000000000284000
  0
ACAD_PROXY_OBJECT
  5
65
102
{ACAD_REACTORS
330
47
102
}
330
47
100
AcDbProxyObject
 90
      499
 91
      503
 93
      257
310
90E312D312F3222203D2031272D30220000000000003E0FC000000000000284000
  0
ACAD_PROXY_OBJECT
  5
66
102
{ACAD_REACTORS
330
47
102
}
330
47
100
AcDbProxyObject
 90
      499
 91
      503
 93
      225
310
90A3322203D2031272D302200000000000002100000000000000284000
  0
ACAD_PROXY_OBJECT
  5
67
102
{ACAD_REACTORS
330
47
102
}
330
47
100
AcDbProxyObject
 90
      499
 91
      503
 93
      225
310
90A3622203D2031272D302200000000000006100000000000000284000
  0
ACAD_PROXY_OBJECT
  5
68
102
{ACAD_REACTORS
330
47
102
}
330
47
100
AcDbProxyObject
 90
      499
 91
      503
 93
      249
310
90D31272D3022203D2031272D30220000000000000A100000000000000284000
  0
ACAD_PROXY_OBJECT
  5
2F
102
{ACAD_REACTORS
330
2A
102
}
330
2A
100
AcDbProxyObject
 90
      499
 91
      501
 93
      436
310
42CC9915DA5C99599C985B595049028333333333333E33F0000000000000F90107901411070040501600405405064090741402480A0340
1001
ACAD
1000
AcDbSavedByObjectVersion
1070
     0
  0
ACAD_PROXY_OBJECT
  5
32
102
{ACAD_REACTORS
330
2A
102
}
330
2A
100
AcDbProxyObject
 90
      499
 91
      501
 93
      388
310
4150985CDA58D07406404333333333333E33F0000000000000F90107A41107004050150841D405064090741402480A0350
1001
ACAD
1000
AcDbSavedByObjectVersion
1070
     0
  0
ACAD_PROXY_OBJECT
  5
36
102
{ACAD_REACTORS
330
2A
102
}
330
2A
100
AcDbProxyObject
 90
      499
 91
      501
 93
      428
310
42109C9A59DA1D195B90C409028333333333333E33F0000000000000F9010790141107004050150841D405064090741402480A029950
1001
ACAD
1000
AcDbSavedByObjectVersion
1070
     0
  0
ACAD_PROXY_OBJECT
  5
3A
102
{ACAD_REACTORS
330
2A
102
}
330
2A
100
AcDbProxyObject
 90
      499
 91
      501
 93
      452
310
42D0DBDB1BDC90DA185B99D95104090240C333333333333E33F0000000000000F90108901411070040501508421405064090741402480A0350
1001
ACAD
1000
AcDbSavedByObjectVersion
1070
     0
  0
ACAD_PROXY_OBJECT
  5
34
102
{ACAD_REACTORS
330
2A
102
}
330
2A
100
AcDbProxyObject
 90
      499
 91
      501
 93
      500
310
4290DBDB98D95C1D1D585B10940D028333333333333E33F0000000000000F90107902409070040501000000000018199010841D405064090740C02480A0340
1001
ACAD
1000
AcDbSavedByObjectVersion
1070
     0
  0
ACAD_PROXY_OBJECT
  5
35
102
{ACAD_REACTORS
330
2A
102
}
330
2A
100
AcDbProxyObject
 90
      499
 91
      501
 93
      412
310
40D11A5B50B409028333333333333E33F0000000000000F9010790141107004050150841D405064090741402480A02677FFFFFD0
1001
ACAD
1000
AcDbSavedByObjectVersion
1070
     0
  0
ACAD_PROXY_OBJECT
  5
3D
102
{ACAD_REACTORS
330
2A
102
}
330
2A
100
AcDbProxyObject
 90
      499
 91
      501
 93
      452
310
43115919D950DBDB1BDC93D999916409028333333333333E33F0000000000000F9010790141107004050150841D405064090741402480A0350
1001
ACAD
1000
AcDbSavedByObjectVersion
1070
     0
  0
ACAD_PROXY_OBJECT
  5
39
102
{ACAD_REACTORS
330
2A
102
}
330
2A
100
AcDbProxyObject
 90
      499
 91
      501
 93
      444
310
42D19858D95C185D1D195C9B90F409028333333333333E33F0000000000000F9010790141107004050150841D405064090741402480A0350
1001
ACAD
1000
AcDbSavedByObjectVersion
1070
     0
  0
ACAD_PROXY_OBJECT
  5
2B
102
{ACAD_REACTORS
330
2A
102
}
330
2A
100
AcDbProxyObject
 90
      499
 91
      501
 93
      380
310
41119B185D240901404333333333333E33F0000000000000F9010740A907004050150841D405064090741402480A1B50
1001
ACAD
1000
AcDbSavedByObjectVersion
1070
     0
  0
ACAD_PROXY_OBJECT
  5
2C
102
{ACAD_REACTORS
330
2A
102
}
330
2A
100
AcDbProxyObject
 90
      499
 91
      501
 93
      468
310
43519B185D15DA5D1A115919D95CD0140901404333333333333E33F0000000000000F90107409019070040501600405405064090741402480A1B50
1001
ACAD
1000
AcDbSavedByObjectVersion
1070
     0
  0
ACAD_PROXY_OBJECT
  5
2D
102
{ACAD_REACTORS
330
2A
102
}
330
2A
100
AcDbProxyObject
 90
      499
 91
      501
 93
      404
310
41D1DBDD5C985D5910240902404333333333333E33F0000000000000F9010740A9070040501641D405064090741402480A1B50
1001
ACAD
1000
AcDbSavedByObjectVersion
1070
     0
  0
ACAD_PROXY_OBJECT
  5
2E
102
{ACAD_REACTORS
330
2A
102
}
330
2A
100
AcDbProxyObject
 90
      499
 91
      501
 93
      492
310
4411DBDD5C985D5915DA5D1A115919D95CD0340902404333333333333E33F0000000000000F90107409019070040501600405405064090741402480A1B50
1001
ACAD
1000
AcDbSavedByObjectVersion
1070
     0
  0
ACAD_PROXY_OBJECT
  5
31
102
{ACAD_REACTORS
330
2A
102
}
330
2A
100
AcDbProxyObject
 90
      499
 91
      501
 93
      476
310
41921A5919195B90640502408333333333333E33F0000000000000F901079024090700405020000000000001110200405405064090740C02480A0340
1001
ACAD
1000
AcDbSavedByObjectVersion
1070
     0
  0
ACAD_PROXY_OBJECT
  5
3B
102
{ACAD_REACTORS
330
2A
102
}
330
2A
100
AcDbProxyObject
 90
      499
 91
      501
 93
      428
310
42529A5D1D195C93D999914409028333333333333E33F0000000000000F9010790141107004050150A41D405064090741402480A0350
1001
ACAD
1000
AcDbSavedByObjectVersion
1070
     0
  0
ACAD_PROXY_OBJECT
  5
38
102
{ACAD_REACTORS
330
2A
102
}
330
2A
100
AcDbProxyObject
 90
      499
 91
      501
 93
      444
310
42D31A5B995C185D1D195C9B90E409028333333333333E33F0000000000000F9010790141107004050750841D405064090741402483A0350
1001
ACAD
1000
AcDbSavedByObjectVersion
1070
     0
  0
ACAD_PROXY_OBJECT
  5
3C
102
{ACAD_REACTORS
330
2A
102
}
330
2A
100
AcDbProxyObject
 90
      499
 91
      501
 93
      444
310
42D3DD995C9A185B99D3D999915409028333333333333E33F0000000000000F9010790141107004050150941D405064090741402480A0350
1001
ACAD
1000
AcDbSavedByObjectVersion
1070
     0
  0
ACAD_PROXY_OBJECT
  5
33
102
{ACAD_REACTORS
330
2A
102
}
330
2A
100
AcDbProxyObject
 90
      499
 91
      501
 93
      428
310
425499585B1A5CDD1A58D08409038333333333333E33F0000000000000F9010740A907004050150800405405064090740C02480A1B40
1001
ACAD
1000
AcDbSavedByObjectVersion
1070
     0
  0
ACAD_PROXY_OBJECT
  5
42
102
{ACAD_REACTORS
330
2A
102
}
330
2A
100
AcDbProxyObject
 90
      499
 91
      501
 93
      420
310
4194DA1859195911B40902404333333333333E33F0000000000000F9010740A41107004050150800405405064090840C02480A0B40
1001
ACAD
1000
AcDbSavedByObjectVersion
1070
     0
  0
ACAD_PROXY_OBJECT
  5
41
102
{ACAD_REACTORS
330
2A
102
}
330
2A
100
AcDbProxyObject
 90
      499
 91
      501
 93
      516
310
4454DA18591959081DDA5D1A08195919D95CD1A40902404333333333333E33F0000000000000F901074090142907004050250800405405064090740C02480A0B40
1001
ACAD
1000
AcDbSavedByObjectVersion
1070
     0
  0
ACAD_PROXY_OBJECT
  5
3E
102
{ACAD_REACTORS
330
2A
102
}
330
2A
100
AcDbProxyObject
 90
      499
 91
      501
 93
      532
310
4394DA1859195CC81BD98811DC985E5174090240C333333333333E33F0000000000000F901079024090741D01000000000000111010841D405064090740C02480A0340
1001
ACAD
1000
AcDbSavedByObjectVersion
1070
     0
  0
ACAD_PROXY_OBJECT
  5
3F
102
{ACAD_REACTORS
330
2A
102
}
330
2A
100
AcDbProxyObject
 90
      499
 91
      501
 93
      476
310
41D4DAD95D18DA1E51840502408333333333333E33F0000000000000F901079024090741D01000000000000111010B41D405064090741802480A0340
1001
ACAD
1000
AcDbSavedByObjectVersion
1070
     0
  0
ACAD_PROXY_OBJECT
  5
37
102
{ACAD_REACTORS
330
2A
102
}
330
2A
100
AcDbProxyObject
 90
      499
 91
      501
 93
      412
310
41D51A1A58DAD95B90D409028333333333333E33F0000000000000F9010790141107004050150C41D405064090741402480A0350
1001
ACAD
1000
AcDbSavedByObjectVersion
1070
     0
  0
ACAD_PROXY_OBJECT
  5
30
102
{ACAD_REACTORS
330
2A
102
}
330
2A
100
AcDbProxyObject
 90
      499
 91
      501
 93
      420
310
4255DA5C99599C985B595059028333333333333E33F0000000000000F90107901411070040501600405405064090740C02480A0340
1001
ACAD
1000
AcDbSavedByObjectVersion
1070
     0
  0
ACAD_PROXY_OBJECT
  5
40
102
{ACAD_REACTORS
330
2A
102
}
330
2A
100
AcDbProxyObject
 90
      499
 91
      501
 93
      404
310
41560B54985E51940902404000000000000E03F0000000000000F9010740501907004050150841D405064090740C02480A1B40
1001
ACAD
1000
AcDbSavedByObjectVersion
1070
     0
  0
XRECORD
  5
3B7
102
{ACAD_REACTORS
330
3AE
102
}
330
3AE
100
AcDbXrecord
 90
        0
  0
XRECORD
  5
3CD
102
{ACAD_REACTORS
330
3AE
102
}
330
3AE
100
AcDbXrecord
1000
DSTYLE
1002
{
1070
   340
340
11
1002
}
  0
XRECORD
  5
3B8
102
{ACAD_REACTORS
330
3AE
102
}
330
3AE
100
AcDbXrecord
  1
{E10AEA08-35DC-4CD8-B27E-87A289714531}
  0
XRECORD
  5
3B1
102
{ACAD_REACTORS
330
3AE
102
}
330
3AE
100
AcDbXrecord
  1

  0
XRECORD
  5
3B6
102
{ACAD_REACTORS
330
3AE
102
}
330
3AE
100
AcDbXrecord
 90
        1
  0
XRECORD
  5
3B3
102
{ACAD_REACTORS
330
3AE
102
}
330
3AE
100
AcDbXrecord
340
1A
  0
XRECORD
  5
3B5
102
{ACAD_REACTORS
330
3AE
102
}
330
3AE
100
AcDbXrecord
 90
    10781
  0
XRECORD
  5
3B4
102
{ACAD_REACTORS
330
3AE
102
}
330
3AE
100
AcDbXrecord
340
19
  0
XRECORD
  5
3BA
102
{ACAD_REACTORS
330
3AE
102
}
330
3AE
100
AcDbXrecord
 40
0.0
  0
XRECORD
  5
3BD
102
{ACAD_REACTORS
330
3AE
102
}
330
3AE
100
AcDbXrecord
340
0
  0
XRECORD
  5
3C3
102
{ACAD_REACTORS
330
3AE
102
}
330
3AE
100
AcDbXrecord
 10
0.0
 20
0.0
 30
0.0
  0
XRECORD
  5
3BF
102
{ACAD_REACTORS
330
3AE
102
}
330
3AE
100
AcDbXrecord
 10
0.0
 20
0.0
 30
0.0
  0
XRECORD
  5
3C2
102
{ACAD_REACTORS
330
3AE
102
}
330
3AE
100
AcDbXrecord
 10
0.0
 20
0.0
 30
0.0
  0
XRECORD
  5
3C0
102
{ACAD_REACTORS
330
3AE
102
}
330
3AE
100
AcDbXrecord
 10
0.0
 20
0.0
 30
0.0
  0
XRECORD
  5
3C1
102
{ACAD_REACTORS
330
3AE
102
}
330
3AE
100
AcDbXrecord
 10
0.0
 20
0.0
 30
0.0
  0
XRECORD
  5
3BE
102
{ACAD_REACTORS
330
3AE
102
}
330
3AE
100
AcDbXrecord
 10
0.0
 20
0.0
 30
0.0
  0
XRECORD
  5
3BB
102
{ACAD_REACTORS
330
3AE
102
}
330
3AE
100
AcDbXrecord
340
0
  0
XRECORD
  5
3BC
102
{ACAD_REACTORS
330
3AE
102
}
330
3AE
100
AcDbXrecord
 70
     0
  0
XRECORD
  5
3B2
102
{ACAD_REACTORS
330
3AE
102
}
330
3AE
100
AcDbXrecord
  1

  0
XRECORD
  5
3AF
102
{ACAD_REACTORS
330
3AE
102
}
330
3AE
100
AcDbXrecord
 90
        1
  0
XRECORD
  5
3B0
102
{ACAD_REACTORS
330
3AE
102
}
330
3AE
100
AcDbXrecord
 90
       70
  0
XRECORD
  5
3C6
102
{ACAD_REACTORS
330
3AE
102
}
330
3AE
100
AcDbXrecord
340
0
  0
XRECORD
  5
3CC
102
{ACAD_REACTORS
330
3AE
102
}
330
3AE
100
AcDbXrecord
 10
0.0
 20
0.0
 30
0.0
  0
XRECORD
  5
3C8
102
{ACAD_REACTORS
330
3AE
102
}
330
3AE
100
AcDbXrecord
 10
0.0
 20
0.0
 30
0.0
  0
XRECORD
  5
3CB
102
{ACAD_REACTORS
330
3AE
102
}
330
3AE
100
AcDbXrecord
 10
0.0
 20
0.0
 30
0.0
  0
XRECORD
  5
3C9
102
{ACAD_REACTORS
330
3AE
102
}
330
3AE
100
AcDbXrecord
 10
0.0
 20
0.0
 30
0.0
  0
XRECORD
  5
3CA
102
{ACAD_REACTORS
330
3AE
102
}
330
3AE
100
AcDbXrecord
 10
0.0
 20
0.0
 30
0.0
  0
XRECORD
  5
3C7
102
{ACAD_REACTORS
330
3AE
102
}
330
3AE
100
AcDbXrecord
 10
0.0
 20
0.0
 30
0.0
  0
XRECORD
  5
3C4
102
{ACAD_REACTORS
330
3AE
102
}
330
3AE
100
AcDbXrecord
340
0
  0
XRECORD
  5
3C5
102
{ACAD_REACTORS
330
3AE
102
}
330
3AE
100
AcDbXrecord
 70
     0
  0
XRECORD
  5
3B9
102
{ACAD_REACTORS
330
3AE
102
}
330
3AE
100
AcDbXrecord
  1
{FAEB1C32-E019-11D5-929B-00C0DF256EC4}
  0
DICTIONARYVAR
  5
3D7
102
{ACAD_REACTORS
330
3CE
102
}
330
3CE
100
DictionaryVariables
280
     0
  1
1:1
  0
DICTIONARYVAR
  5
3D3
102
{ACAD_REACTORS
330
3CE
102
}
330
3CE
100
DictionaryVariables
280
     0
  1
2
  0
DICTIONARYVAR
  5
3D4
102
{ACAD_REACTORS
330
3CE
102
}
330
3CE
100
DictionaryVariables
280
     0
  1
1
  0
DICTIONARYVAR
  5
3D8
102
{ACAD_REACTORS
330
3CE
102
}
330
3CE
100
DictionaryVariables
280
     0
  1
1
  0
DICTIONARY
  5
3DB
330
45
100
AcDbDictionary
280
     1
  3
ACAD_XREC_ROUNDTRIP
360
3DC
  0
DICTIONARY
  5
3D9
330
44
100
AcDbDictionary
280
     1
  3
ACAD_XREC_ROUNDTRIP
360
3DA
  0
DICTIONARY
  5
3DD
330
46
100
AcDbDictionary
280
     1
  3
ACAD_XREC_ROUNDTRIP
360
3DE
  0
XRECORD
  5
3DC
102
{ACAD_REACTORS
330
3DB
102
}
330
3DB
100
AcDbXrecord
102
MATERIAL
148
0.0
149
0.0
149
0.0
 93
        0
 94
      127
282
     0
 72
     1
 77
     1
171
     1
175
     1
179
     1
273
     0
  0
XRECORD
  5
3DA
102
{ACAD_REACTORS
330
3D9
102
}
330
3D9
100
AcDbXrecord
102
MATERIAL
148
0.0
149
0.0
149
0.0
 93
        0
 94
      127
282
     0
 72
     1
 77
     1
171
     1
175
     1
179
     1
273
     0
  0
XRECORD
  5
3DE
102
{ACAD_REACTORS
330
3DD
102
}
330
3DD
100
AcDbXrecord
102
MATERIAL
148
0.0
149
0.0
149
0.0
 93
        0
 94
      127
282
     0
 72
     1
 77
     1
171
     1
175
     1
179
     1
273
     0
  0
ENDSEC
  0
EOF
